<svg xmlns="http://www.w3.org/2000/svg" xmlns:xlink="http://www.w3.org/1999/xlink" width="610.93" height="616.14" viewBox="0 0 610.93 616.14"><defs><style>.cls-1{fill:none;}.cls-2{clip-path:url(#clip-path);}.cls-3{fill:#2c6098;}.cls-4{fill:#3c5d24;}</style><clipPath id="clip-path" transform="translate(-334.36 -204.69)"><rect class="cls-1" x="328" y="195" width="623" height="634"/></clipPath></defs><title>ACUDEEN_C</title><g id="Layer_2" data-name="Layer 2"><g class="cls-2"><path class="cls-3" d="M581.91,275.12c43.83,71.7,86.56,141.63,129.33,211.54q49.82,81.44,99.67,162.84c6.85,11.21,6.72,11.31-7.39,11.32q-42.35,0-84.68,0c-2.26,0-4.52-.39-10.49-.93,4.95-1.78,6.3-2.3,7.66-2.75,24.81-8.16,33.56-23.56,25.55-46.75-7.56-21.9-18.22-42.58-30.66-62.54q-62-99.45-123.52-199.15c-1.39-2.25-3.16-4.31-5.9-8-11.42,20-22.23,38.82-32.87,57.7q-45.3,80.37-90.45,160.82a171.55,171.55,0,0,0-16.72,43.09C435.34,627,446,644.47,475.16,659c-1,2.44-3.32,1.86-5.23,1.86-41.5,0-83,.06-124.52-.14-3.59,0-8.91,2.5-10.53-3-1.51-5.11,3.6-6.35,7-8.09,26-13.22,44.3-33.19,57.95-56.94Q477,458.44,553.81,324C562.89,308.13,572,292.31,581.91,275.12Z" transform="translate(-334.36 -204.69)"/><path class="cls-3" d="M622.51,204.69c17.12,27.7,33.68,54.54,50.3,81.34q91.08,146.81,182.25,293.56a261.57,261.57,0,0,0,15.36,22.23c19.16,24.69,40.27,47.38,74.42,55.91l-1.34,3c-19.25,0-38.66-1.44-57.69.41-18.33,1.77-26.59-5.5-35-19.4Q732,446.79,611.54,252.7c-6.71-10.84-8.7-19.61-.18-29.9C615.59,217.7,618.35,211.56,622.51,204.69Z" transform="translate(-334.36 -204.69)"/><path class="cls-4" d="M639.57,677.27h290.2c13.55,0,18,5.78,14.2,17.69-.87,2.71-2.49,3.75-5.16,4-2.07.17-4.15.23-6.22.23q-293.33,0-586.63.14c-8.55,0-11.16-2.39-11.56-10.42-.5-10.18,4-11.81,13.73-11.78C445.27,677.38,542.42,677.27,639.57,677.27Z" transform="translate(-334.36 -204.69)"/><path class="cls-4" d="M639.5,712.5q145.13,0,290.26,0c7.44,0,14.72-1.12,14.67,10,0,9.47-3.76,11.56-13,11.56q-292.14-.24-584.27,0c-8.19,0-12.67-1.12-12.77-10.55-.1-10.11,5-11.15,13.62-11.14Q493.75,712.6,639.5,712.5Z" transform="translate(-334.36 -204.69)"/><path class="cls-4" d="M404.31,800.32H373.42l-5.41,9c-1.34,2.22-2,3.88-2,5,0,.87.58,1.64,1.73,2.3s3.66,1.09,7.51,1.29v1.56H350.12v-1.56c3.34-.43,5.49-1,6.47-1.65q3-2,6.65-8.23l28.07-47.1h2.06l27.77,47.61q3.35,5.73,6.09,7.45a15.75,15.75,0,0,0,7.62,1.92v1.56H403.37v-1.56c3.18-.12,5.32-.5,6.44-1.14a2.79,2.79,0,0,0,1.68-2.37c0-1.23-.79-3.19-2.36-5.86Zm-1.65-3.12-13.53-23.13L375.25,797.2Z" transform="translate(-334.36 -204.69)"/><path class="cls-4" d="M508.75,760.94l1.82,19.46h-1.82q-3.66-8.73-10.42-12.58A32.38,32.38,0,0,0,482.09,764a34.64,34.64,0,0,0-14.35,2.89,21.84,21.84,0,0,0-10.09,9.22Q454,782.42,454,791.84a25.33,25.33,0,0,0,3.47,13.46A22,22,0,0,0,467.88,814a39.45,39.45,0,0,0,15.92,3,36.6,36.6,0,0,0,13.71-2.38q5.94-2.38,13.06-9.48l1.82.85a36.64,36.64,0,0,1-14,11.18,46.72,46.72,0,0,1-19,3.55q-19.83,0-30.72-10.55-8.12-7.86-8.12-18.49A25.73,25.73,0,0,1,445.91,776a34.65,34.65,0,0,1,14.74-11.12,52.35,52.35,0,0,1,20.5-3.95,50,50,0,0,1,17.06,3,11.89,11.89,0,0,0,3.53.93,4.85,4.85,0,0,0,2.77-.8,6.22,6.22,0,0,0,2.18-3.17Z" transform="translate(-334.36 -204.69)"/><path class="cls-4" d="M574.05,763.81v-1.56h28.24v1.56h-3a9.21,9.21,0,0,0-7.23,2.83q-1.24,1.3-1.24,6.08v23.21q0,8.61-2.38,13.36t-9.36,8.14q-7,3.39-19,3.4-13.07,0-19.83-3.25t-9.59-8.74q-1.89-3.75-1.88-14.09V772.38c0-3.52-.68-5.82-2-6.92s-3.54-1.65-6.56-1.65h-3v-1.56h34.47v1.56h-3.05c-3.3,0-5.65.75-7.07,2.24q-1.47,1.51-1.47,6.33v24.94A39.81,39.81,0,0,0,541,805a13.4,13.4,0,0,0,3.09,6.71,16.43,16.43,0,0,0,6.44,4,29.82,29.82,0,0,0,10.32,1.56,37.83,37.83,0,0,0,14-2.45q6.18-2.44,8.44-6.27t2.27-12.93V772.38q0-5.36-1.65-6.71-2.29-1.86-6.83-1.86Z" transform="translate(-334.36 -204.69)"/><path class="cls-3" d="M605.65,819.48v-1.56h3q5.05,0,7.18-2.33c.86-.92,1.29-3,1.29-6.24v-37q0-5.36-1.65-6.71-2.29-1.86-6.82-1.86h-3v-1.56h32.48q17.88,0,27.21,2.91a31.16,31.16,0,0,1,15,9.71,23.74,23.74,0,0,1,5.68,15.7q0,11.94-10.12,20-11.35,9-34.6,9Zm22.77-4.14A82.36,82.36,0,0,0,641,816.52q13.65,0,22.65-6.87t9-18.66q0-11.85-9-18.69t-23.12-6.84a69.09,69.09,0,0,0-12.06,1.22Z" transform="translate(-334.36 -204.69)"/><path class="cls-3" d="M715.79,765.38V788h17.53c4.55,0,7.59-.5,9.12-1.48,2-1.3,3.18-3.57,3.42-6.84H748V799.6h-2.17a16.78,16.78,0,0,0-1.65-5.36,7,7,0,0,0-3.47-2.32,24.21,24.21,0,0,0-7.42-.84H715.79v18.86c0,2.53.16,4.07.47,4.62a3.21,3.21,0,0,0,1.65,1.31,13.68,13.68,0,0,0,4.47.48h13.53a50.78,50.78,0,0,0,9.83-.67,16.32,16.32,0,0,0,5.88-2.66,34.53,34.53,0,0,0,7.47-7.89h2.36l-6.89,14.35H693.08v-1.56h2.82a14.78,14.78,0,0,0,5.36-1,4.3,4.3,0,0,0,2.56-2q.67-1.35.67-5.53V772.21c0-3.63-.51-5.86-1.53-6.71-1.41-1.12-3.76-1.69-7.06-1.69h-2.82v-1.56h61.48l.89,12.54h-2.3q-1.23-4.51-2.73-6.21A9.49,9.49,0,0,0,746,766a36.8,36.8,0,0,0-8.29-.63Z" transform="translate(-334.36 -204.69)"/><path class="cls-3" d="M789.39,765.38V788h17.54c4.55,0,7.59-.5,9.12-1.48,2-1.3,3.17-3.57,3.41-6.84h2.18V799.6h-2.18a16.78,16.78,0,0,0-1.65-5.36,6.9,6.9,0,0,0-3.47-2.32,24.18,24.18,0,0,0-7.41-.84H789.39v18.86c0,2.53.16,4.07.47,4.62a3.29,3.29,0,0,0,1.65,1.31,13.76,13.76,0,0,0,4.47.48h13.54a50.66,50.66,0,0,0,9.82-.67,16.32,16.32,0,0,0,5.88-2.66,34.33,34.33,0,0,0,7.48-7.89h2.35l-6.88,14.35H766.68v-1.56h2.83a14.76,14.76,0,0,0,5.35-1,4.25,4.25,0,0,0,2.56-2q.68-1.35.68-5.53V772.21c0-3.63-.51-5.86-1.53-6.71-1.41-1.12-3.77-1.69-7.06-1.69h-2.83v-1.56h61.49l.88,12.54h-2.29q-1.25-4.51-2.74-6.21a9.45,9.45,0,0,0-4.44-2.57,36.91,36.91,0,0,0-8.3-.63Z" transform="translate(-334.36 -204.69)"/><path class="cls-3" d="M836.23,762.25h21.65l48.78,42.92v-33q0-5.28-1.65-6.58c-1.46-1.19-3.75-1.78-6.89-1.78h-2.76v-1.56h27.77v1.56h-2.82c-3.38,0-5.77.74-7.18,2.2q-1.3,1.35-1.3,6.16v48.24h-2.12l-52.6-46.09v35.24q0,5.28,1.59,6.58,2.24,1.79,6.89,1.78h2.82v1.56H840.64v-1.56h2.77c3.41,0,5.82-.74,7.23-2.2.86-.9,1.3-3,1.3-6.16v-39.8a33.58,33.58,0,0,0-5.27-3.84,23.79,23.79,0,0,0-5.26-1.73,26.18,26.18,0,0,0-5.18-.38Z" transform="translate(-334.36 -204.69)"/></g></g></svg>