<svg xmlns="http://www.w3.org/2000/svg" xmlns:xlink="http://www.w3.org/1999/xlink" width="642" height="642" viewBox="0 0 642 642"><defs><style>.cls-1{fill:none;}.cls-2{clip-path:url(#clip-path);}.cls-3{fill:#454545;}.cls-4{fill:red;}.cls-5{fill:#d33338;}.cls-6{fill:#00a759;}.cls-7{fill:#0c8b4e;}.cls-8{fill:#1f5e3c;}.cls-9{fill:#147645;}.cls-10{fill:#b63235;}.cls-11{fill:#bb3235;}.cls-12{fill:#245237;}.cls-13{fill:#a13033;}.cls-14{fill:#0e854b;}.cls-15{fill:#176e42;}.cls-16{fill:#059a53;}.cls-17{fill:#9a3132;}.cls-18{fill:#153422;}.cls-19{fill:#0b1a11;}.cls-20{fill:#18412a;}.cls-21{fill:#0f291a;}</style><clipPath id="clip-path" transform="translate(-324 -190)"><rect class="cls-1" x="324" y="190" width="642" height="642"/></clipPath></defs><title>CTR_C</title><g id="Layer_2" data-name="Layer 2"><g class="cls-2"><path class="cls-3" d="M792.64,478.63q0,7.42-1.73,11.41a31.55,31.55,0,0,1-3.3,6.1,19.08,19.08,0,0,1-5.13,5.71,10.18,10.18,0,0,1-6,2h-1.57V478.63H739.53v77.76H775V529.32h17.39v26.27a55.15,55.15,0,0,1-1.25,12.48,29.31,29.31,0,0,1-3.41,8.75,15,15,0,0,1-5.08,5.18,12,12,0,0,1-6.18,1.72H737.64a10.2,10.2,0,0,1-6-2,17.87,17.87,0,0,1-5-5.57,31.34,31.34,0,0,1-3.41-8.63A47.09,47.09,0,0,1,722,556.12V477.83a43.25,43.25,0,0,1,1.26-10.75,31.63,31.63,0,0,1,3.41-8.49,19.71,19.71,0,0,1,5-5.71,10,10,0,0,1,6.08-2.12h38.76q7.34,0,11.73,7.17T792.64,478.63Z" transform="translate(-324 -190)"/><path class="cls-3" d="M870.06,456.6q0,8.49-1.57,13c-1,3-2.32,5.14-3.83,6.37a9.86,9.86,0,0,1-4.66,2.26,25.59,25.59,0,0,1-4.19.4H843.55v77.49q0,14.86-2.67,21.23t-9.9,6.37h-5.13V478.63H798.93v-3.72q0-14.06,3.19-19.11a10.14,10.14,0,0,1,9.06-5h58.88Z" transform="translate(-324 -190)"/><path class="cls-3" d="M927.15,584l-25-80.68h27.24V478.63H893.84v73.51q0,18.86-4.5,25.48a11,11,0,0,1-5.24,4.51,17.4,17.4,0,0,1-6,1.06h-1.78V450.76h54.47q7.33,0,11.63,7.17t4.3,20.7v25.21q0,12.74-3.93,19.9t-11.16,8L948.42,584Z" transform="translate(-324 -190)"/><path class="cls-3" d="M673.25,666.24a19.39,19.39,0,0,1-.71,5.61,12.47,12.47,0,0,1-1.93,3.9,7.81,7.81,0,0,1-2.87,2.37,8,8,0,0,1-3.49.79h-22a6.7,6.7,0,0,1-3.38-.91,9.17,9.17,0,0,1-2.81-2.56,13.05,13.05,0,0,1-1.93-4,18,18,0,0,1-.71-5.24V630.31a16.52,16.52,0,0,1,.71-4.94,13.41,13.41,0,0,1,1.93-3.9,10.23,10.23,0,0,1,2.81-2.62,6.57,6.57,0,0,1,3.43-1h21.91a7.91,7.91,0,0,1,6.57,3.11q2.43,3.1,2.43,9.68h-29.9v35.7h20.07V654.91h-7.1a7.79,7.79,0,0,1-6.13-3,12.57,12.57,0,0,1-2.87-7.55V642h25.93Z" transform="translate(-324 -190)"/><path class="cls-3" d="M705.51,679l-14.15-37h15.39V630.67H686.68v33.75q0,8.66-2.54,11.69a6,6,0,0,1-3,2.07,11.76,11.76,0,0,1-3.38.49h-1V617.88h30.78a7.75,7.75,0,0,1,6.57,3.29q2.43,3.29,2.43,9.5v11.58c0,3.89-.74,6.94-2.22,9.13a8.12,8.12,0,0,1-6.3,3.66l9.47,24Z" transform="translate(-324 -190)"/><path class="cls-3" d="M751,678.91v-24H731v9.51a28.1,28.1,0,0,1-.65,6.94,11,11,0,0,1-2,4.14,9.2,9.2,0,0,1-3,2.5,7.73,7.73,0,0,1-3.64.91h-.59V631.28a22.47,22.47,0,0,1,.71-6,12.44,12.44,0,0,1,2-4.14,8,8,0,0,1,2.87-2.44,7.82,7.82,0,0,1,3.41-.79h31v61Zm0-48.24H731V642h20Z" transform="translate(-324 -190)"/><path class="cls-3" d="M804.31,642q0,6.46-3,9.69a10.56,10.56,0,0,1-8.11,3.22h-14.8a31.67,31.67,0,0,1,.33-4.32,19.62,19.62,0,0,1,1-4.2,10,10,0,0,1,1.81-3.11,3.45,3.45,0,0,1,2.66-1.28h10.19V630.67h-20v34q0,8.54-2.55,11.7a6.1,6.1,0,0,1-3,2.07,12,12,0,0,1-3.37.48h-1v-61h30.72a7.88,7.88,0,0,1,6.55,3.29q2.51,3.29,2.51,9.5Z" transform="translate(-324 -190)"/><path class="cls-3" d="M837.76,678.91v-24h-20v24h-9.89v-48.6a16.52,16.52,0,0,1,.71-4.94,13.41,13.41,0,0,1,1.93-3.9,10.09,10.09,0,0,1,2.81-2.62,6.57,6.57,0,0,1,3.43-1h1v24.37h20.07V617.88h9.83v61Z" transform="translate(-324 -190)"/><path class="cls-3" d="M860,678.91a6.7,6.7,0,0,1-3.38-.91,9.17,9.17,0,0,1-2.81-2.56,12.81,12.81,0,0,1-1.92-4,18,18,0,0,1-.71-5.24V617.88h9.88v61Z" transform="translate(-324 -190)"/><path class="cls-3" d="M904.54,630.67a11.33,11.33,0,0,1-1,5.24,13.62,13.62,0,0,1-1.87,2.8,9.62,9.62,0,0,1-2.9,2.62,6.68,6.68,0,0,1-3.37.92h-.89V630.67h-20v35.7h20.07V653.94h9.83V666a20.77,20.77,0,0,1-.71,5.73,12.33,12.33,0,0,1-1.93,4,7.81,7.81,0,0,1-2.87,2.37,8,8,0,0,1-3.49.79h-22a6.7,6.7,0,0,1-3.38-.91,9.17,9.17,0,0,1-2.81-2.56,12.81,12.81,0,0,1-1.92-4,17.61,17.61,0,0,1-.72-5.24V630.31a16.2,16.2,0,0,1,.72-4.94,13.15,13.15,0,0,1,1.92-3.9,10.23,10.23,0,0,1,2.81-2.62,6.58,6.58,0,0,1,3.44-1h21.9a7.91,7.91,0,0,1,6.63,3.29Q904.54,624.46,904.54,630.67Z" transform="translate(-324 -190)"/><path class="cls-3" d="M948.11,666.24q0,6.59-2.64,9.69a8.59,8.59,0,0,1-6.89,3.11H917.5a8,8,0,0,1-3.46-.8,8.42,8.42,0,0,1-3-2.43,12.91,12.91,0,0,1-2.13-4,16.62,16.62,0,0,1-.8-5.48h30.13V654.91H917.09a7.68,7.68,0,0,1-3.41-.79,8,8,0,0,1-2.87-2.43,13,13,0,0,1-2-4,19,19,0,0,1-.74-5.67V631.89a23.74,23.74,0,0,1,.74-6.34,13.47,13.47,0,0,1,2-4.38,7.84,7.84,0,0,1,2.87-2.5,8,8,0,0,1,3.47-.79h21.54a8.61,8.61,0,0,1,6.84,3c1.72,2,2.58,5.26,2.58,9.81h-29.9V642h20.42a9.71,9.71,0,0,1,3.5.67,8,8,0,0,1,3,2.13,11.67,11.67,0,0,1,2.13,3.84,16.46,16.46,0,0,1,.83,5.42Z" transform="translate(-324 -190)"/><path class="cls-3" d="M662.52,759.78v-24h-20v9.5a28.69,28.69,0,0,1-.65,7,11.28,11.28,0,0,1-2,4.14,9.06,9.06,0,0,1-3,2.5,7.77,7.77,0,0,1-3.65.91h-.59V712.15a22.36,22.36,0,0,1,.71-6,12.6,12.6,0,0,1,2-4.15,8,8,0,0,1,2.87-2.43,7.64,7.64,0,0,1,3.4-.79h31v61Zm0-48.24h-20v11.33h20Z" transform="translate(-324 -190)"/><path class="cls-3" d="M709.88,759.54a11.33,11.33,0,0,1-1.9-.19,8,8,0,0,1-2.42-.85,10.8,10.8,0,0,1-2.61-2,13.35,13.35,0,0,1-2.43-3.47l-10.59-20.47-4-7.55v34.48h-9.89V698.75h2a13.48,13.48,0,0,1,1.95.18,8,8,0,0,1,2.46.85,11.9,11.9,0,0,1,2.6,2,12.93,12.93,0,0,1,2.46,3.47l10.54,20.47c0,.08.25.49.65,1.22s.91,1.7,1.54,2.92,1.2,2.28,1.71,3.17V711.05q0-6.45,2.52-9.38a8.29,8.29,0,0,1,6.6-2.92h.77v60.79Z" transform="translate(-324 -190)"/><path class="cls-3" d="M755.22,747.11a19.81,19.81,0,0,1-.68,5.6,11.29,11.29,0,0,1-1.92,3.9,8.26,8.26,0,0,1-2.87,2.38,7.93,7.93,0,0,1-3.52.79H715.44v-61h30.79A7.74,7.74,0,0,1,752.8,702q2.41,3.3,2.42,9.51Zm-29.71-35.57v35.69H745.4V711.54Z" transform="translate(-324 -190)"/><path class="cls-3" d="M812.29,747.11q0,6.58-2.63,9.69a8.62,8.62,0,0,1-6.9,3.1H781.69a8.06,8.06,0,0,1-3.47-.79,8.65,8.65,0,0,1-3-2.44,12.68,12.68,0,0,1-2.13-4,16.85,16.85,0,0,1-.8-5.48h30.14V735.78H781.27a7.64,7.64,0,0,1-3.4-.79,7.87,7.87,0,0,1-2.87-2.44,13,13,0,0,1-2-4,19.23,19.23,0,0,1-.74-5.66V712.76a24.15,24.15,0,0,1,.74-6.34,13.75,13.75,0,0,1,2-4.39,7.57,7.57,0,0,1,6.33-3.28h21.55a8.59,8.59,0,0,1,6.84,3q2.56,3,2.57,9.81H782.4v11.33h20.42a9.45,9.45,0,0,1,3.49.67,7.77,7.77,0,0,1,3,2.13,11.13,11.13,0,0,1,2.13,3.84,16.46,16.46,0,0,1,.83,5.42Z" transform="translate(-324 -190)"/><path class="cls-3" d="M824.66,759.78a6.69,6.69,0,0,1-3.37-.91,9.18,9.18,0,0,1-2.81-2.56,13.29,13.29,0,0,1-1.93-4,18,18,0,0,1-.71-5.24V698.75h9.89v61Z" transform="translate(-324 -190)"/><path class="cls-3" d="M869.06,747.11a19,19,0,0,1-.71,5.6,12,12,0,0,1-1.92,3.9,7.85,7.85,0,0,1-6.37,3.17h-22a6.66,6.66,0,0,1-3.37-.91,9.21,9.21,0,0,1-2.82-2.56,13.27,13.27,0,0,1-1.92-4,18,18,0,0,1-.71-5.24V711.17a16.45,16.45,0,0,1,.71-4.93,13.39,13.39,0,0,1,1.92-3.9,9.84,9.84,0,0,1,2.82-2.62,6.46,6.46,0,0,1,3.43-1h21.9a7.91,7.91,0,0,1,6.58,3.1q2.42,3.1,2.42,9.69H839.17v35.69h20.07V735.78h-7.11a7.79,7.79,0,0,1-6.13-3,12.7,12.7,0,0,1-2.87-7.56v-2.31h25.93Z" transform="translate(-324 -190)"/><path class="cls-3" d="M906.42,759.54a11.33,11.33,0,0,1-1.9-.19,8,8,0,0,1-2.42-.85,10.8,10.8,0,0,1-2.61-2,13.35,13.35,0,0,1-2.43-3.47l-10.59-20.47-4-7.55v34.48h-9.89V698.75h2a13.48,13.48,0,0,1,2,.18,8,8,0,0,1,2.46.85,11.9,11.9,0,0,1,2.6,2,12.93,12.93,0,0,1,2.46,3.47l10.54,20.47c0,.08.25.49.65,1.22s.91,1.7,1.54,2.92,1.2,2.28,1.71,3.17V711.05q0-6.45,2.52-9.38a8.29,8.29,0,0,1,6.6-2.92h.77v60.79Z" transform="translate(-324 -190)"/><path class="cls-3" d="M952,747.11q0,6.58-2.63,9.69a8.62,8.62,0,0,1-6.9,3.1H921.39a8.05,8.05,0,0,1-3.46-.79,8.65,8.65,0,0,1-3-2.44,12.68,12.68,0,0,1-2.13-4,16.85,16.85,0,0,1-.8-5.48h30.13V735.78H921a7.64,7.64,0,0,1-3.4-.79,8,8,0,0,1-2.88-2.44,13,13,0,0,1-2-4,19.23,19.23,0,0,1-.74-5.66V712.76a24.15,24.15,0,0,1,.74-6.34,13.75,13.75,0,0,1,2-4.39,7.85,7.85,0,0,1,2.88-2.49,7.77,7.77,0,0,1,3.46-.79h21.55a8.59,8.59,0,0,1,6.84,3q2.57,3,2.57,9.81H922.1v11.33h20.43a9.45,9.45,0,0,1,3.49.67,7.77,7.77,0,0,1,3,2.13,11.13,11.13,0,0,1,2.13,3.84,16.46,16.46,0,0,1,.83,5.42Z" transform="translate(-324 -190)"/><path class="cls-3" d="M559.07,529.72" transform="translate(-324 -190)"/><path class="cls-4" d="M658.66,260.19" transform="translate(-324 -190)"/><path class="cls-5" d="M504.86,628.08c0-9.61-.08-19.22-.08-28.83,0-19.74,0-39.48,0-59.22,0-2.67-.36-3.63-2.54-3.59-9,.18-18,0-27,.06a2.6,2.6,0,0,1-2.71-1.59c-10.26-19.36-20.57-38.67-31-58.14.8-.76,1.64-.43,2.4-.43,19.54,0,39.08,0,58.61.11,1.89,0,2.37-.6,2.36-3.17q-.1-48.48,0-97a10.49,10.49,0,0,1,.26-3.91c1.21,1.4.13,3.08.29,4.62.13,1.29,0,2.62,0,3.66a16.19,16.19,0,0,0,0-2.1c0-4.21.46-4.95,3.64-5,7.49-.15,15,0,22.48-.06,4.38,0,8.77,0,13.16,0,1.71,0,2.77-.45,2.63-3.19-.07-1.35.28-2.66,1.53-2.93,1.67,1.08.45,3.29,1,4.79,0,1.23-.12,2.45-.12,3.67q0,48.64-.06,97.28c0,2.84.61,3.31,2.53,3.28,9-.14,18-.05,27-.08a2.55,2.55,0,0,1,2.7,1.55q15.21,28.68,30.49,57.28c.15.3.24.66.49,1.32h-2.43c-19.54,0-39.08,0-58.62-.06-1.88,0-2.38.62-2.38,3.19q.12,48.33,0,96.66a10,10,0,0,1-.23,3.62c-1.48-3.22-.76-6.74-.6-10.11.07-1.49.31-3,.31-3.85,0,3.48-.48,4.25-3.47,4.27-12.26.09-24.52.07-36.78,0A4,4,0,0,1,504.86,628.08Z" transform="translate(-324 -190)"/><path class="cls-6" d="M699.38,295.31c7.52,12,13.09,25.48,17.22,40.07,16.59,58.64,4.14,124.72-31.24,165.56-1.73,2-1.76,3.1-.46,5.48,4.74,8.61,9.27,17.43,13.9,26.16a3.81,3.81,0,0,1,.55,3.28q-9.33,31.92-18.57,63.89a5.16,5.16,0,0,1-.37.69L614.7,475.92A59.15,59.15,0,0,0,628.16,474c27.32-7.34,48.55-39.71,50.88-77.19a122.34,122.34,0,0,0-5.92-46.28,16.36,16.36,0,0,1,1.17-9.05c5.92-12.8,11.78-25.65,17.71-38.43.89-1.9,1.72-3.84,2.61-5.74C696.14,294,696.73,293.75,699.38,295.31Z" transform="translate(-324 -190)"/><path class="cls-6" d="M333.38,654a119.68,119.68,0,0,1-2.11-19c-3.55-68.85,28.42-131.79,77.15-152.14,1.92-.81,2.85-.4,4,1.81,8.86,16.84,17.82,33.56,26.75,50.32.21.39.38.82.71,1.52a49.09,49.09,0,0,0-20,4.63q-28.1,13.44-39.69,50.6c-.23.74-.51,1.45-.77,2.18-1.13.26-1.08,1.69-1.2,2.64-1,7.64-4.8,12.53-8.85,17.23-.8.93-1.61,1.84-2.36,2.86-8.46,11.53-17.51,22.24-26,33.81-1,1.31-2.12,2.29-3.1,3.58C335.71,656.93,335.38,656.91,333.38,654Z" transform="translate(-324 -190)"/><path class="cls-7" d="M333.38,654l.14-1.56c.64.48.68,1.22.86,1.86.45,1.6,1.19,1.7,2.09.64,1.36-1.61,2.75-3.17,4-4.86,5.54-7.23,11-14.53,16.58-21.73,5.33-6.91,10.74-13.7,16.11-20.57a22.81,22.81,0,0,0,4.45-10.4c.22-1.27,0-3.44,1.76-3.51a115.09,115.09,0,0,0-3.17,16c-.33,2.4-.23,4.8-.61,7.15-.3,4.68-.2,9.36-.06,14.05a118.34,118.34,0,0,0,9.25,39.32c.31,1.85,1.3,3.2,2,4.76a4.41,4.41,0,0,1-.44,4.91c-2.47,3.31-4.84,6.76-7.4,9.93-6,7.4-11.87,14.85-17.58,22.58-.37.51-.74,1-1.13,1.52-3,3.83-3.42,3.83-6.11,0a3.05,3.05,0,0,0-.7-.77c-8.43-14.41-14.3-30.59-18.16-48.14C334.5,661.53,333.43,657.93,333.38,654Z" transform="translate(-324 -190)"/><path class="cls-8" d="M471.64,702.38a3.52,3.52,0,0,1,1.78-1.34c3.62-2.16,6.58-5.61,9.66-8.85a76.47,76.47,0,0,0,8-10.79c.36-.55.75-1.54,1.46-1s.55,1.41.53,2.22a11.61,11.61,0,0,1-2.05,6.63c-6.2,8.54-12.7,16.65-19.18,24.8-.72.91-1.43,1.82-2.12,2.76-8.47,11.54-17.38,22.47-26,33.75-4.4,5.73-8.67,11.68-13.35,17-1.92,2.19-3.8,4-6.49,3-.52-.19-1.15-.67-1.73-.06-7.84-1.51-15.29-4.84-22.6-8.84a63,63,0,0,1-10.63-7,.84.84,0,0,1,.44-1.16c4-1.53,6.2-6.13,9-9.63,2.41-3.06,4.93-6,7.22-9.27,4.06-5.76,8.71-10.71,12.68-16.61a41.83,41.83,0,0,1,3.24-3.84c1-1.2,1.43-2.37,0-3.65-.32-.3-1.55-.94,0-1.49,7,2.46,14.14,4.11,21.45,3.7a53.47,53.47,0,0,0,17.34-4,37.31,37.31,0,0,0,7.84-3.92A5.47,5.47,0,0,0,471.64,702.38Z" transform="translate(-324 -190)"/><path class="cls-9" d="M421.37,709c-.16.16-.44.36-.14.62,2.68,2.39,2.84,2.82.35,5.26-2.78,2.71-4.67,6.54-7.29,9.45-4.74,5.27-8.81,11.55-13.43,17a79.93,79.93,0,0,0-6.56,8.71c-1.49,2.35-3.46,3.42-5.44,4.57-14-10.37-25.86-24-35.4-41.34.8-.41,1.17.6,1.35,1.14,1.06,3.16,2.41,2.23,3.85.63q.52-.57,1-1.2c5.47-7.19,10.83-14.53,16.45-21.49,3.18-3.94,6.15-8.14,9.34-12,1.51-1.83,1.73-3.38.73-5.77-.54-1.28-1.81-2.27-1.37-4.17,5.63,11.71,12.6,21.59,21.41,29A77,77,0,0,0,421.37,709Z" transform="translate(-324 -190)"/><path class="cls-10" d="M549.32,367.75c-1.87.42-1.53,2.55-1.22,3.85.74,3-.46,2.91-2,2.91-12,0-24,0-36.05,0h-1.59c-1.84,0-3,.83-2.78,3.79a6.91,6.91,0,0,1-.51,4.15v-10c.89-17.3,4.82-33.44,10.28-49a92.85,92.85,0,0,1,5.67-13.55,5.41,5.41,0,0,1,4.82-2c6.94,0,13.87,0,20.81.05,2.1,0,3.82-.45,5-3.16.41-.95,1.27-3,2.2-.3a15,15,0,0,1-.48,4.49A251.75,251.75,0,0,0,550,344c-.14,4.75-.11,9.54-.72,14.26-1.09,1.53-.3,3.48-.64,5.18.37-1.42-.47-3.14.6-4.38A10.89,10.89,0,0,1,549.32,367.75Z" transform="translate(-324 -190)"/><path class="cls-11" d="M504.86,628.08c1.89,1.26,3.9,1.26,5.95,1.25,11.42-.05,22.84,0,34.26,0,3.72,0,3.72,0,3.85-5a1.37,1.37,0,0,1,.52-1.13v16.72c-1.27,15.15-3.37,30-8.37,43.87-.32.9,0,2.1-.76,2.71-1.37,3.86-3.75,4.63-6.71,4.56-7.78-.18-15.56,0-23.34-.09-2.36,0-4.32.39-5.32,3.82-.35,1.18-1.14,2.62-2,.29a8.23,8.23,0,0,1-.07-2.71c.92-7.08,1.16-14.28,1.91-21.39a181.17,181.17,0,0,0,.07-21.61c-.53-2.41.18-4.91-.27-7.32Z" transform="translate(-324 -190)"/><path class="cls-12" d="M422.09,770.49a1.54,1.54,0,0,1,2.12-.5c2.19,1.16,3.64-.67,5.05-2.2s3-3.47,4.38-5.28c5.44-6.94,10.71-14.14,16.15-21.08,7.16-9.1,14.23-18.31,21.32-27.49,6.32-8.2,12.78-16.2,19-24.52a12.18,12.18,0,0,0,2.34-8.75c-1.16.44-1.79,1.66-2.38,2.68-4.15,7.19-9.54,12.39-15.13,17.26-.44.38-.88,1.3-1.54.43,8-6.45,14.52-15,20.38-24.67a4.79,4.79,0,0,0,.33-1.07c.58-.2.8-1.51,1.47-1.15s.68,1.51.7,2.41a117.25,117.25,0,0,1-1.38,17.31c-2,14.9-4.38,29.62-9.74,43.15-4.86,12.26-11.37,22.3-20.49,29-1.11.82-2.36,1.48-3,3.16-2.47,1.66-5.21,1.73-7.83,2.52a21.62,21.62,0,0,1-7,.7,63.16,63.16,0,0,1-12.22,0A35.22,35.22,0,0,1,422.09,770.49Z" transform="translate(-324 -190)"/><path class="cls-13" d="M453.88,771.73c2.54-1.3,5.35-1.29,7.8-3,.59-1.23,1.62-1.43,2.52-1.91a49.42,49.42,0,0,0,17.19-14c10.2-12.45,15.72-28.48,19.26-46,.62-3.05,1.14-6.14,1.63-9.24.15-1,0-2.37,1.13-2.67.17,1.08.66,1.35.84.18.72-4.76,3.15-5.12,6.14-5.05,7.92.17,15.85,0,23.77.1,2.51,0,4.65-.37,5.78-3.84,0,0,.15,0,.21,0s.11.14.16.21a143.83,143.83,0,0,1-16.63,35.92c-18,28.07-40.86,44.07-68,49.2A12.21,12.21,0,0,1,453.88,771.73Z" transform="translate(-324 -190)"/><path class="cls-14" d="M657,321.76a72.91,72.91,0,0,0-22.18-17.21c-2.1-2-2.3-3.09-1-6.07,3.17-7.31,6.6-14.39,9.88-21.59,3.09-6.77,6.19-13.53,9.38-20.21,1.1-2.28,2.17-4.43,4.49-4.34,7,3.5,13.17,8.86,19.22,14.57,2,1.85,3.84,3.86,5.76,5.8,0,.23-.06.55-.14.52-2.68-.93-3.51,1.92-4.56,4.16-6.36,13.66-12.58,27.44-19.06,41C658.24,319.54,658.55,321.59,657,321.76Z" transform="translate(-324 -190)"/><path class="cls-15" d="M657.56,252.34c-2.41,1.06-3.47,3.81-4.76,6.48-6.23,13-12.11,26.25-18.22,39.32-1.2,2.57-1.25,4.37.24,6.41-7.22-2.77-14.53-4.66-22.08-4.31-2.34.11-4.67.36-7,.54-2.07-1.49-2.3-2.33-1.07-5,7.78-16.69,15.41-33.51,23.18-50.21,1.22-2.62,2.91-2.78,4.72-3.19,7.21,1.15,14.08,4,20.79,7.58C654.77,250.75,656.16,251.56,657.56,252.34Z" transform="translate(-324 -190)"/><path class="cls-8" d="M632.57,242.41c-2.84.56-4.09,3.42-5.46,6.41q-11,23.94-22.16,47.66c-1.08,2.29.07,3,.79,4.3-8.53,1.56-16.41,5.79-24.16,10.6-.7.44-.87,1.7-1.73,1.8-1.61.46-2.68,2.18-4,3.23-.63.48-1.24,1.61-1.95.76s-.32-2.1.13-3.08c1.58-3.48,3.19-6.94,4.78-10.4,7.5-16.3,15.12-32.48,22.53-48.84,1.8-4,3.6-7.83,6.48-10.86,3.19-3.34,6.66-3.3,10.23-3.65,1,.09,1.93-.22,2.87.23,3.39.46,6.8.65,10.13,1.79A5.41,5.41,0,0,0,632.57,242.41Z" transform="translate(-324 -190)"/><path class="cls-16" d="M657,321.76c4.69-11.57,10.13-22.51,15.3-33.68,1.84-4,3.68-7.92,5.48-11.91,1.1-2.44,2-5.31,4.76-3.46a107,107,0,0,1,16.84,22.6c-.27.51-.63.55-1,.21-1.41-1.4-2.27-.23-2.94,1.23-7.15,15.56-14.25,31.15-21.42,46.68-1,2.27,0,4.87-.93,7.08-2-4.54-3.71-9.25-6-13.55A110.9,110.9,0,0,0,657,321.76Z" transform="translate(-324 -190)"/><path class="cls-12" d="M617.55,240.68a1.32,1.32,0,0,1-1.46.56c-5.46-.52-9.19,3.4-11.88,9.11-8.06,17.11-15.93,34.37-23.89,51.57q-2.87,6.22-5.79,12.41a3,3,0,0,0-.4,2.65c1.52-.41,2.49-2.13,3.82-3,.61-.39,1-1.71,1.9-.83a92.64,92.64,0,0,0-16.41,19.48c-.64.46-1.13,1.56-2,.94s-.78-1.67-.68-2.69c1.57-15.91,3.15-31.79,7.88-46.75,4.18-13.19,9.89-24.75,18.45-33.53a14.88,14.88,0,0,0,4-6.15c2-1.72,4.44-1.72,6.64-2.63a31.58,31.58,0,0,1,9.27-1.32A42,42,0,0,1,617.55,240.68Z" transform="translate(-324 -190)"/><path class="cls-17" d="M597.71,241.85c-2.09,1.37-4.5,1.46-6.53,3.06-1,1.58-2.47,1.86-3.76,2.61a46.92,46.92,0,0,0-13.24,11.36c-7.43,8.15-12.1,18.93-16,30.47-1.39,4.11-2.37,8.4-3.45,12.65-.24.95-.09,2.38-1.27,2.52-.19-1.4-.65-.92-.87-.11-1.22,4.46-3.85,4.54-6.78,4.44-5.72-.2-11.44-.07-17.16-.06-2.54,0-5.1-.34-7.53,1.1a112.75,112.75,0,0,1,12.29-22c16.93-24.51,37.59-39.82,62-45.71A21.29,21.29,0,0,1,597.71,241.85Z" transform="translate(-324 -190)"/><path class="cls-18" d="M573.89,258.29a43.51,43.51,0,0,1,17.29-13.38c0,3.26-2.07,4.66-3.53,6.13-9.21,9.31-15,21.77-19.21,36-3.52,11.92-5.05,24.43-6.4,37-.22,2-.26,4.05-.57,6-.52,3.37-.37,3.58,2,2.61q-3.93,7.15-7.24,14.85c-1.69-.36-1.94-2.1-1.86-3.9.56-12.12,1-24.28,3-36.15,2.81-16.33,6.77-32,14.51-45.51A16.76,16.76,0,0,0,573.89,258.29Z" transform="translate(-324 -190)"/><path class="cls-19" d="M573.89,258.29c-.15,2.52-1.45,4.28-2.47,6.07-6.1,10.6-9.31,22.95-12,35.6a207.58,207.58,0,0,0-3.8,31.16c-.25,4.13.16,8.35-.73,12.43-.37,1.68.47,2.88,1.32,4A131.68,131.68,0,0,0,550,372.22c-.93-1.3-.33-3-.66-4.47,0-2.91.24-5.85-.36-8.71-.15-.12-.2-.24-.16-.36s.1-.19.15-.19c.13-10.3.38-20.6,1.29-30.85.7-7.81,2-15.46,3.23-23.12,2.15-8.58,4.25-17.2,7.68-25S568.27,263.85,573.89,258.29Z" transform="translate(-324 -190)"/><path class="cls-20" d="M481.66,753.48a47.37,47.37,0,0,1-20,15.26c-.39-1.6.7-1.74,1.29-2.2A62.2,62.2,0,0,0,475.46,754c5.07-6.91,8.63-15.17,11.53-23.95,4.57-13.85,6.46-28.7,8.18-43.55.45-3.84,1-7.83.4-11.92l-1.44.69c1.15-2.41,2.29-4.82,3.44-7.24a4,4,0,0,0,.94-1.69c.33-.78.56-1.89,1.42-1.63s.9,1.53.93,2.52c.07,2.66.12,5.32,0,8a288.93,288.93,0,0,1-3.57,32.43c-2.33,13.65-5.74,26.7-11.47,38.51C484.54,748.76,482.8,750.81,481.66,753.48Z" transform="translate(-324 -190)"/><path class="cls-21" d="M481.66,753.48c.8-3.6,2.87-6.15,4.3-9.22,5.49-11.83,8.74-24.78,10.93-38.31a236.87,236.87,0,0,0,3.36-37.44c0-1.07.45-2.75-.34-3.1-1.14-.5-1.07,1.54-1.62,2.37-.2.31-.37.68-.72.28a121.16,121.16,0,0,0,7-26c1.14,2.12.36,4.64.77,6.92.21,7.35.25,14.71,0,22.07q-1,11.93-1.93,23.86c-1.24,6.18-2.09,12.5-3.59,18.6C496.06,728.74,490.78,742.7,481.66,753.48Z" transform="translate(-324 -190)"/><path class="cls-15" d="M617.55,240.68,607,240.53a44.39,44.39,0,0,1,13.9,0Z" transform="translate(-324 -190)"/><path class="cls-8" d="M434.65,772.44h12.22A33.47,33.47,0,0,1,434.65,772.44Z" transform="translate(-324 -190)"/><path class="cls-6" d="M375.58,631.11a56.46,56.46,0,0,1,.06-14.05Z" transform="translate(-324 -190)"/><path class="cls-12" d="M471.64,702.38c-.74,2.09-2,2.75-3.64,2.46Z" transform="translate(-324 -190)"/><path class="cls-5" d="M549,358.49a1.14,1.14,0,0,1,0,.55v4.82C548.62,362.05,548,360.23,549,358.49Z" transform="translate(-324 -190)"/><path class="cls-13" d="M505.34,671.05q0-11,0-22.07c.81,4.3.31,8.69.34,13C505.72,665,506.17,668.09,505.34,671.05Z" transform="translate(-324 -190)"/><rect class="cls-1" width="642" height="642"/></g></g></svg>