<?xml version="1.0" encoding="UTF-8" standalone="no"?>
<svg
   xmlns:dc="http://purl.org/dc/elements/1.1/"
   xmlns:cc="http://creativecommons.org/ns#"
   xmlns:rdf="http://www.w3.org/1999/02/22-rdf-syntax-ns#"
   xmlns:svg="http://www.w3.org/2000/svg"
   xmlns="http://www.w3.org/2000/svg"
   id="svg8"
   version="1.1"
   viewBox="0 0 135.46666 130.53629"
   height="130.53629mm"
   width="135.46666mm">
  <defs
     id="defs2" />
  <metadata
     id="metadata5">
    <rdf:RDF>
      <cc:Work
         rdf:about="">
        <dc:format>image/svg+xml</dc:format>
        <dc:type
           rdf:resource="http://purl.org/dc/dcmitype/StillImage" />
        <dc:title></dc:title>
      </cc:Work>
    </rdf:RDF>
  </metadata>
  <g
     transform="translate(-43.391666,-76.845371)"
     id="layer1">
    <path
       id="path21"
       transform="scale(0.26458333)"
       d="m 520.5,290.43945 c -6.58235,-0.0127 -9.03965,0.46021 -13.86523,2.67188 -3.22568,1.4784 -7.39566,4.03417 -9.26758,5.67773 -1.87193,1.64357 -4.40932,3.22334 -5.63672,3.51172 -1.2274,0.28857 -21.58049,3.66757 -45.23047,7.50977 -23.64998,3.84219 -44.67224,7.45116 -46.71484,8.01953 -4.41011,1.22706 -6.78516,4.23552 -6.78516,8.58984 0,2.3692 7.07536,14.99313 28.04297,50.02735 15.4244,25.77223 28.97479,47.64492 30.11133,48.60742 1.1365,0.96249 3.68693,1.75 5.66797,1.75 3.38948,0 5.41163,-1.80467 34.27539,-30.61328 23.05217,-23.00805 31.03295,-30.39929 32.12304,-29.75 0.79771,0.47512 8.4916,6.90572 17.09766,14.29101 l 15.64648,13.42774 -2.70898,3.57226 c -1.49038,1.96468 -12.31435,15.92269 -24.05274,31.01563 l -21.34179,27.4414 -6.97461,3.37305 c -11.81726,5.71612 -21.13105,16.97035 -24.49219,29.59375 -0.75417,2.83242 -1.37525,8.63592 -1.38281,12.89844 l -0.0117,7.75 H 319.5 164 v 27 27 h 27.5 27.5 v 110 110 h 73 73 v -18.5 -18.5 H 465.5 566 v 18.5 18.5 h 27.5 27.5 v -110 -110 h 27.5 27.5 v -27 -27 h -45.37109 -45.3711 l -0.71093,-9.08008 c -1.02702,-13.12808 -5.59234,-24.85528 -12.03126,-30.9043 C 571.1319,468.52038 570,467.0267 570,466.50195 c 0,-0.52478 12.55953,-17.04946 27.91016,-36.72265 15.35059,-19.6732 28.44205,-36.76251 29.09179,-37.97657 0.67408,-1.2593 0.91066,-3.6446 0.55274,-5.55273 -0.54305,-2.89466 -5.29777,-7.34155 -35.3418,-33.05664 -19.09274,-16.3417 -34.83263,-29.79601 -34.97851,-29.89844 -0.14593,-0.10254 -0.95219,-2.84214 -1.79102,-6.08789 C 551.26324,301.03311 537.47752,290.47347 520.5,290.43945 Z m -0.30273,18.03321 c 5.14585,-0.13516 10.36982,1.8412 14.09765,6.27148 7.68851,9.13727 4.87937,22.89302 -5.72265,28.02539 -4.78508,2.3164 -10.67361,2.56772 -15.0918,0.64258 -4.11375,-1.79248 -9.14841,-7.75141 -10.41992,-12.33008 -1.29366,-4.65853 -1.29366,-4.89615 0,-9.55469 2.26326,-8.14994 9.61585,-12.85715 17.13672,-13.05468 z m -37.63868,13.67773 c 0.96733,0.0507 1.31207,1.56683 1.74024,6.67383 0.93581,11.16246 6.17952,20.69279 14.83789,26.96484 l 3.70898,2.6875 -22.30078,22.28516 -22.30273,22.28516 -20.77344,-34.63672 c -11.42498,-19.04965 -20.59182,-34.80297 -20.37109,-35.00782 0.22083,-0.20466 14.57736,-2.7051 31.90234,-5.55664 17.32498,-2.85154 32.22175,-5.38601 33.10352,-5.63281 0.16564,-0.0464 0.31688,-0.0697 0.45507,-0.0625 z m 70.44727,21.68555 c 0.43167,0.0122 1.01399,0.53217 2.16992,1.57226 1.27812,1.15004 13.23672,11.42434 26.57422,22.83008 13.3375,11.40573 24.25,20.91266 24.25,21.12695 0,0.21423 -11.73784,15.47504 -26.08398,33.91407 -16.58098,21.31154 -26.69087,33.48927 -27.75,33.42578 -0.91639,-0.0548 -2.79103,-0.46004 -4.16602,-0.90039 -1.37499,-0.44036 -5.31252,-0.84559 -8.75,-0.90039 -3.43752,-0.0548 -6.25,-0.37135 -6.25,-0.70508 0,-0.33373 9.33264,-12.59624 20.74023,-27.25 11.40768,-14.65376 21.5675,-28.30419 22.57618,-30.33399 1.71537,-3.45169 1.72798,-3.90483 0.20703,-7 -0.95853,-1.95061 -8.57211,-9.23644 -18.54492,-17.74414 l -16.91993,-14.43359 4.78516,-5.06641 c 2.63195,-2.78623 5.28503,-5.96207 5.89648,-7.05859 0.55299,-0.99179 0.83396,-1.48877 1.26563,-1.47656 z m -23.57813,128.97461 c 7.1895,0.003 14.72903,0.46686 16.75391,1.02929 6.82628,1.89593 13.03688,7.1033 16.56836,13.89258 2.86639,5.51067 3.25,7.18141 3.25,14.16016 v 7.91211 H 529.5 493 v -6.31836 c 0,-9.97565 2.31742,-16.12797 8.3418,-22.15235 7.19697,-7.19697 11.58849,-8.53099 28.08593,-8.52343 z M 182,527.80469 h 238 238 v 9 9 H 420 182 v -9 z m 55,36 h 55 55 v 27.5 27.5 h -55 -55 v -27.5 z m 128,0 H 465.5 566 v 82.5 82.5 H 465.5 365 v -82.5 z m 220,0 h 9 9 v 101 101 h -9 -9 v -101 z m -311,19 v 9 9 h 18 18 v -9 -9 h -18 z m -37,55 h 55 55 v 27 27 h -55 -55 v -27 z m 37,18 v 9 9 h 18 18 v -9 -9 h -18 z m -37,55 h 55 55 v 27.5 27.5 h -55 -55 v -27.5 z m 37,18 v 9 9 h 18 18 v -9 -9 h -18 z"
       style="fill:#000000;stroke-width:0.99999994" />
  </g>
</svg>
