<svg xmlns="http://www.w3.org/2000/svg" xmlns:xlink="http://www.w3.org/1999/xlink" width="629" height="639" viewBox="0 0 629 639"><defs><style>.cls-1,.cls-6,.cls-7{fill:none;}.cls-2{clip-path:url(#clip-path);}.cls-3{fill:#fd9729;}.cls-4,.cls-5,.cls-8{fill:#fff;}.cls-5{font-size:47.07px;font-family:NoticiaText-Bold, Noticia Text;font-weight:700;}.cls-6{stroke:#ff931e;stroke-width:7px;}.cls-6,.cls-7,.cls-8{stroke-miterlimit:10;}.cls-7,.cls-8{stroke:#fff;}.cls-7{stroke-width:18px;}.cls-8{stroke-width:0.5px;}</style><clipPath id="clip-path" transform="translate(-355.5 -151.5)"><rect class="cls-1" x="351" y="149" width="640" height="651"/></clipPath></defs><title>HAPPY_C</title><g id="Layer_2" data-name="Layer 2"><g class="cls-2"><rect class="cls-3" x="24.43" y="23.91" width="580.14" height="589.47" rx="290.07" ry="290.07"/><path class="cls-4" d="M736.92,300.42c1.61-2.54,2.93-4.58,4.21-6.65,5.52-8.9,11.07-17.78,16.51-26.73,1.12-1.84,1.72-1.88,3.14-.24q11,12.68,22.15,25.14c1.4,1.55,1.09,2.35-.16,3.73-8.67,9.57-17.22,19.24-25.87,28.82a5.31,5.31,0,0,0-1.49,4.93c4.28,27,8.36,54,12.66,80.92.39,2.4-.29,3.22-2.22,4.14Q737.49,428,709.18,441.72c-.55.26-1.08.56-2,1l59.57,65c-1.11.87-2.17.54-3.15.54-20.34,0-40.68,0-61,.08-2.33,0-3.33-.8-4.17-2.9q-16.93-42.54-34.09-85c-.94-2.33-.3-2.86,1.74-3.56,22.66-7.85,45.28-15.8,67.94-23.66,1.8-.63,2.24-1.38,1.89-3.33q-9.25-51.71-18.39-103.43c-.28-1.58,0-2.19,1.58-2.46q5.85-1,11.66-2.26c1.61-.36,2.1.17,2.42,1.72C734.29,289,735.56,294.4,736.92,300.42Z" transform="translate(-355.5 -151.5)"/><path class="cls-4" d="M627.47,483.16c-7.11,8-13.83,15.39-20.42,22.94a5.87,5.87,0,0,1-4.94,2.31c-10.55-.11-21.1-.05-31.78-.05-.19-1.39.69-2.09,1.2-2.86q23.61-35.69,47.25-71.34a5.4,5.4,0,0,1,3-2.45q15.64-5.08,31.21-10.39c1.67-.57,2.23-.22,2.77,1.46q13.38,41.52,26.93,83c.73,2.23.21,2.62-1.88,2.61-15.76-.06-31.52-.1-47.27,0-2.44,0-2.54-1.36-2.78-3C629.65,498.21,628.6,491,627.47,483.16Z" transform="translate(-355.5 -151.5)"/><path class="cls-4" d="M705.33,388.59c-2.26-5.84-4.29-11.78-6.43-17.67q-19.5-53.94-39-107.86c-1.3-3.59-1.31-3.61-4.82-1.8q-16.42,8.44-32.86,16.9c-.52.26-1,1.09-1.87.3.77-.58,1.49-1.14,2.23-1.68q20.12-14.52,40.28-29c1.67-1.2,2.09-1.95.58-3.71-3.21-3.73-6.2-7.65-9.2-11.56-.86-1.12-1.47-1.33-2.66-.4-2.5,1.95-5.14,3.7-7.72,5.54l-22.3,15.92c.08-1.56,1-2.12,1.62-2.86,5.12-6.41,10.22-12.84,15.48-19.13,1.5-1.78,1.47-2.71-.33-4.27-3.66-3.18-7.74-5.91-10.78-9.8h-.61l-13.47,16.37q-24.76,30-49.57,60c-1.27,1.53-1.59,2.6-.12,4.1a20.4,20.4,0,0,1,2.34,3.24c2,3.08,4.82,5.58,5.86,9.3,3.43,12.28,6.93,24.54,10.4,36.81,7.53,26.63,15.1,53.24,22.51,79.91.75,2.72,1.64,2.77,3.87,1.83,5.06-2.13,10.23-4,15.35-6q39.81-15.4,79.64-30.77C705.91,391.47,706.14,390.65,705.33,388.59Zm-67.31-80c5.63-2.7,5.61-2.75,7.92,3,1.21,3,2.43,6.08,3.63,9.05,0,1.46-1.23,1.6-2,2.06-4.63,2.66-4.63,2.63-6.73-2.36-1.27-3-2.49-6.06-3.86-9C636.27,309.88,636.62,309.26,638,308.58Zm-21,9.78c6.18-4,6.15-4.08,8.79,2.75l3.33,8.61c0,.1.07.19.11.29.2.75-.28,1.08-.79,1.47-5.34,4.13-6.36,3.86-8.87-2.4-1.11-2.76-2.21-5.53-3.39-8.25C615.7,319.65,616,319.08,617,318.36Zm55.35,41.22c-1.68,11.93-10.48,20.54-23.69,23.32-12.54,2.65-21.9-2.69-29.58-12.19a30.43,30.43,0,0,1-2.12-3c-2.83-4.6-2.56-3.39,1.36-6,1.47-1,2.1-.73,3,.67,4.49,6.58,10.18,11.45,18.25,12.82a21.39,21.39,0,0,0,25.2-21.11,26,26,0,0,0-1.62-9.21c-.61-1.72-.42-2.58,1.42-3.16,4.84-1.53,3.78-2.62,5.73,2.71A31.29,31.29,0,0,1,672.39,359.58Z" transform="translate(-355.5 -151.5)"/><text x="-355.5" y="-151.5"></text><text class="cls-5" transform="translate(67.54 410.48) scale(1.35 1)">ServeHappyJobs</text><rect class="cls-6" x="3.5" y="3.5" width="622" height="632" rx="311" ry="311"/><path class="cls-7" d="M671.67,721.08h0c-92.32,0-172.86-51.31-215.49-127.39" transform="translate(-355.5 -151.5)"/><path class="cls-7" d="M887.74,592.65C845.27,669.3,764.42,721.08,671.67,721.08" transform="translate(-355.5 -151.5)"/><ellipse class="cls-8" cx="101.45" cy="443.26" rx="7.53" ry="7.66"/><ellipse class="cls-8" cx="531.74" cy="441.56" rx="7.53" ry="7.66"/></g></g></svg>