<?xml version="1.0" encoding="UTF-8" standalone="no"?>
<svg
   xmlns:dc="http://purl.org/dc/elements/1.1/"
   xmlns:cc="http://creativecommons.org/ns#"
   xmlns:rdf="http://www.w3.org/1999/02/22-rdf-syntax-ns#"
   xmlns:svg="http://www.w3.org/2000/svg"
   xmlns="http://www.w3.org/2000/svg"
   xmlns:sodipodi="http://sodipodi.sourceforge.net/DTD/sodipodi-0.dtd"
   xmlns:inkscape="http://www.inkscape.org/namespaces/inkscape"
   id="svg8"
   version="1.1"
   viewBox="0 0 133.87915 135.32233"
   height="135.32233mm"
   width="133.87915mm"
   sodipodi:docname="office.svg"
   inkscape:version="0.92.3 (2405546, 2018-03-11)">
  <sodipodi:namedview
     pagecolor="#ffffff"
     bordercolor="#666666"
     borderopacity="1"
     objecttolerance="10"
     gridtolerance="10"
     guidetolerance="10"
     inkscape:pageopacity="0"
     inkscape:pageshadow="2"
     inkscape:window-width="1920"
     inkscape:window-height="1001"
     id="namedview7"
     showgrid="false"
     inkscape:zoom="0.46142915"
     inkscape:cx="252.99997"
     inkscape:cy="255.72723"
     inkscape:window-x="-9"
     inkscape:window-y="-9"
     inkscape:window-maximized="1"
     inkscape:current-layer="svg8" />
  <defs
     id="defs2" />
  <metadata
     id="metadata5">
    <rdf:RDF>
      <cc:Work
         rdf:about="">
        <dc:format>image/svg+xml</dc:format>
        <dc:type
           rdf:resource="http://purl.org/dc/dcmitype/StillImage" />
        <dc:title />
      </cc:Work>
    </rdf:RDF>
  </metadata>
  <path
     style="fill:#424242;stroke-width:0.99999994"
     d="m 10.125426,131.9072 c -1.640363,-1.18978 -0.4872085,-2.96432 2.089006,-3.21472 l 1.929381,-0.18752 V 103.18283 77.860685 L 8.6103898,77.602278 C 0.95988136,77.244997 0.35884238,76.638046 0.35884238,69.269591 c 0,-5.196659 0.0709469,-5.479841 1.71899772,-6.865774 l 1.7189854,-1.445554 h 45.3030935 45.30308 v -4.167951 c 0,-5.111346 0.396068,-5.406919 7.245291,-5.406919 4.54498,0 4.89857,-0.0912 5.2205,-1.346466 1.91773,-7.477685 3.99963,-18.678636 3.57319,-19.224259 -0.28953,-0.370435 -2.65995,-3.288924 -5.26758,-6.485532 l -4.74117,-5.812015 -2.322791,1.501438 c -2.089008,1.350312 -2.646372,2.326844 -5.537476,9.701806 -4.975024,12.690937 -5.332653,12.962937 -9.323623,7.091289 -2.574882,-3.788243 -2.593383,-3.801003 -5.110076,-3.523926 -6.47086,0.71241 -11.1389,-6.367481 -7.818426,-11.857977 1.024037,-1.693281 1.007929,-1.756307 -1.27675,-4.996474 C 65.268051,11.076028 65.360052,11.017089 77.7951,10.825338 87.396944,10.677275 88.607888,10.5411 90.205834,9.4297029 l 1.770715,-1.231563 -1.572961,-1.8259184 c -3.113344,-3.6140299 0.03192,-5.73704437 3.264405,-2.2033908 1.713474,1.8731541 1.813591,1.9021971 3.225989,0.9358926 2.45389,-1.6788265 3.399388,-1.2090642 6.657238,3.3076026 3.4552,4.7902481 3.72884,5.9163601 1.74958,7.2000121 -1.34453,0.871977 -1.30967,0.935234 4.28866,7.784798 3.1043,3.798122 5.64418,7.282064 5.64418,7.742093 0,0.460029 -0.96495,5.107467 -2.14434,10.32764 -1.17937,5.220173 -2.14432,9.711079 -2.14432,9.979791 0,0.26871 2.41237,0.566373 5.36083,0.661471 l 5.36081,0.172906 0.1787,4.274463 0.17867,4.274466 4.63596,0.228666 c 6.29154,0.310321 6.95365,1.09488 6.95365,8.239624 0,4.677695 -0.14615,5.349372 -1.41798,6.516429 -1.2312,1.129763 -2.11899,1.301171 -6.73932,1.301171 h -5.32134 v 25.692724 25.69272 l 1.62304,0.18935 c 2.12183,0.24755 3.18984,1.84346 2.09557,3.13134 -1.1308,1.33087 -18.78492,1.40389 -20.60298,0.0852 -1.55126,-1.12515 -0.5425,-2.94528 1.78268,-3.21655 l 1.62305,-0.18935 V 117.77784 107.05438 L 87.510514,106.89625 68.364713,106.73812 68.058377,92.076591 67.752053,77.415071 47.687258,77.257289 27.622461,77.099501 v 25.702739 25.70272 l 1.991158,0.18752 c 1.56406,0.1473 2.03552,0.49392 2.197927,1.61592 0.113707,0.78562 -0.16197,1.6567 -0.61266,1.93574 -0.450689,0.27903 -5.109003,0.51146 -10.351813,0.51649 -7.354047,0.007 -9.804161,-0.18796 -10.721647,-0.85343 z M 23.640129,102.84833 V 77.415071 L 20.729975,77.232676 17.819808,77.05028 v 25.79805 25.79804 l 2.910167,-0.1824 2.910154,-0.18239 z m 92.818841,0.29921 V 77.714286 h -3.06334 -3.06331 v 25.433254 25.43325 h 3.06331 3.06334 z m -9.80265,-5.385866 V 92.076591 H 89.195337 71.734371 v 5.685083 5.685086 h 17.460966 17.460983 z m -24.145316,0.52257 c -0.789404,-2.00933 0.762847,-2.617077 6.684333,-2.617077 5.921487,0 7.473749,0.607747 6.684347,2.617077 -0.318903,0.81174 -1.429618,0.9735 -6.684347,0.9735 -5.254728,0 -6.36543,-0.16176 -6.684333,-0.9735 z M 106.65632,83.10015 V 77.714286 H 89.195337 71.734371 v 5.385864 5.385864 h 17.460966 17.460983 z m -23.870001,0.925848 c -0.425541,-0.500832 -0.613669,-1.317975 -0.418072,-1.815874 0.353252,-0.899146 1.0288,-0.985051 7.746098,-0.985051 5.827354,0 5.612844,-0.06853 5.401513,1.72547 l -0.193862,1.64568 -5.880979,0.170188 c -4.671593,0.135191 -6.040105,-0.01705 -6.654698,-0.740413 z M 129.81128,69.186667 129.63127,64.848054 H 67.139382 4.6474967 L 4.4674977,69.186667 4.2874865,73.52528 H 67.139382 129.99129 Z M 118.29697,58.265331 v -2.692932 h -9.80266 -9.802657 v 2.692932 2.692932 h 9.802657 9.80266 z M 90.087552,27.299911 92.697081,20.870096 90.729174,17.874649 88.76128,14.879201 h -7.902372 -7.902371 l 3.746513,5.236257 c 2.060567,2.879941 5.162902,7.305108 6.894069,9.833703 1.731154,2.528596 3.312568,4.413649 3.514236,4.189006 0.201667,-0.224643 1.540956,-3.301857 2.976197,-6.838256 z m -12.042908,1.78376 c -2.057812,-3.176382 -3.624277,-5.214359 -4.012777,-5.220621 -0.983679,-0.01586 -0.397327,3.643892 0.76584,4.780027 1.369199,1.337383 4.064893,1.703177 3.246937,0.440594 z M 99.131262,14.97509 102.32788,12.715869 100.74094,10.537324 99.154,8.3587799 l -3.550604,2.4457821 -3.550631,2.445784 1.328279,2.003878 c 0.730557,1.102133 1.603994,1.998526 1.940952,1.991984 0.336968,-0.0065 2.05114,-1.028546 3.809266,-2.271118 z M 20.995604,56.918865 c 0.167368,-1.420706 0.500697,-1.67065 2.438369,-1.828327 1.978168,-0.160973 2.359847,-0.464213 3.216491,-2.555435 0.534598,-1.305034 0.971997,-2.494592 0.971997,-2.643463 0,-0.148871 -3.928719,-0.345391 -8.730489,-0.436711 L 10.161495,49.28889 V 31.336009 13.383127 l 25.259069,-0.156234 25.25908,-0.156235 0.338404,1.353093 c 0.18612,0.744202 0.261065,8.893304 0.166533,18.109117 l -0.171857,16.756022 -8.730477,0.166039 c -4.80177,0.09132 -8.730489,0.39505 -8.730489,0.674954 0,0.279903 0.417251,1.484329 0.927225,2.676501 0.811696,1.897534 1.190658,2.167585 3.041766,2.167585 1.395343,0 2.302108,0.356194 2.665983,1.047252 1.281425,2.433592 0.647557,2.543324 -14.691374,2.543324 H 20.80174 Z m 19.492832,-2.324288 c 0,-0.208666 -0.31934,-1.420486 -0.709647,-2.692932 l -0.709647,-2.31354 h -3.519075 c -3.282695,0 -3.560055,0.110546 -4.129015,1.645681 -0.335461,0.905124 -0.805488,2.116944 -1.044485,2.692932 -0.393835,0.949142 0.05947,1.047251 4.838662,1.047251 2.900256,0 5.273207,-0.170726 5.273207,-0.379392 z M 57.030406,31.328353 V 16.659178 L 35.433941,16.816441 13.837477,16.973704 13.673425,31.485616 13.50936,45.997529 h 21.760529 21.760517 z"
     id="path42"
     inkscape:connector-curvature="0" />
</svg>
