<svg xmlns="http://www.w3.org/2000/svg" xmlns:xlink="http://www.w3.org/1999/xlink" width="624" height="642" viewBox="0 0 624 642"><defs><style>.cls-1{fill:none;}.cls-2{clip-path:url(#clip-path);}.cls-3,.cls-4{fill:#454545;stroke:#454545;stroke-miterlimit:10;}.cls-4{stroke-width:0.25px;}</style><clipPath id="clip-path" transform="translate(-327.5 -190.5)"><rect class="cls-1" x="327.5" y="186.5" width="623" height="652"/></clipPath></defs><title>PUSHKART</title><g id="Layer_2" data-name="Layer 2"><g class="cls-2"><path class="cls-3" d="M492.13,262.32c0,8.71,0,16.58,0,24.46.06,51.08-.82,102.2.41,153.25,1.72,71.37,60.89,131,129.4,132.18,71.53,1.23,134-53.91,136.74-125.92,2.92-76.51,1.06-153.22,1.28-229.85,0-16.25-8.54-23.94-23.35-24.91-7.68-.5-15.42-.25-23.13-.23-32.1.12-36.15,4.32-36.17,37.95,0,71.52.18,143-.14,214.57-.13,31-14.79,52.05-38.67,57.66-34.8,8.19-63.16-16-63.42-55.58-.47-74.43-.2-148.88,0-223.32,0-16.19-3.08-30.23-21.73-30.82-26.62-.85-53.32-1.21-79.9.14-19.85,1-27.09,15.15-26.79,34.69.34,21.5,8.51,32.18,27.21,34.31C479.26,261.52,484.73,261.76,492.13,262.32Z" transform="translate(-327.5 -190.5)"/><path class="cls-3" d="M677.76,631.88c-.06,24.47,19,44.53,42.2,44.52,22,0,42.87-22.21,42.48-45.21-.39-22.62-19.77-42.29-42.06-42.7C696.44,588.05,677.82,607,677.76,631.88Z" transform="translate(-327.5 -190.5)"/><path class="cls-3" d="M574.37,631.74c-.12-24.67-19-43.7-42.84-43.25-22.45.41-41.35,19.78-41.81,42.85s20,44.92,42.52,45.06C555.49,676.54,574.5,656.4,574.37,631.74Z" transform="translate(-327.5 -190.5)"/><path class="cls-3" d="M492.13,262.32c-7.4-.56-12.87-.8-18.3-1.42-18.7-2.13-26.87-12.81-27.21-34.31-.3-19.54,6.94-33.68,26.79-34.69,26.58-1.35,53.28-1,79.9-.14,18.65.59,21.77,14.63,21.73,30.82-.16,74.44-.43,148.89,0,223.32.26,39.54,28.62,63.77,63.42,55.58,23.88-5.61,38.54-26.68,38.67-57.66.32-71.53.09-143,.14-214.57,0-33.63,4.07-37.83,36.17-37.95,7.71,0,15.45-.27,23.13.23,14.81,1,23.4,8.66,23.35,24.91-.22,76.63,1.64,153.34-1.28,229.85-2.74,72-65.21,127.15-136.74,125.92C553.43,571,494.26,511.4,492.54,440c-1.23-51-.35-102.17-.41-153.25C492.12,278.9,492.13,271,492.13,262.32Z" transform="translate(-327.5 -190.5)"/><path class="cls-3" d="M677.76,631.88c.06-24.87,18.68-43.83,42.62-43.39,22.29.41,41.67,20.08,42.06,42.7.39,23-20.48,45.21-42.48,45.21C696.71,676.41,677.7,656.35,677.76,631.88Z" transform="translate(-327.5 -190.5)"/><path class="cls-3" d="M574.37,631.74c.13,24.66-18.88,44.8-42.13,44.66-22.48-.14-43-21.87-42.52-45.06s19.36-42.44,41.81-42.85C555.4,588,574.25,607.07,574.37,631.74Z" transform="translate(-327.5 -190.5)"/><path class="cls-3" d="M329.36,831.32a5.1,5.1,0,0,1-.92-1.5,5.25,5.25,0,0,1-.44-2.19V739.69l.33-.68a26.64,26.64,0,0,1,3.59-3.55,20.89,20.89,0,0,1,3.21-2.39,5.83,5.83,0,0,1,2.88-1v3a9.15,9.15,0,0,1,2-1.43c.76-.41,1.54-.8,2.33-1.16a24.86,24.86,0,0,1,10.45-2.19A23.92,23.92,0,0,1,364.45,733a25.92,25.92,0,0,1,8.27,7.1,31.82,31.82,0,0,1,5.12,10.65,56.94,56.94,0,0,1,2,12.43l.1,2.18v4.78a4.28,4.28,0,0,1,0,.75c0,.23-.05.3-.05.21a57.22,57.22,0,0,1-2.18,13,34.46,34.46,0,0,1-5,10.93,28.37,28.37,0,0,1-7.83,7.64,21.94,21.94,0,0,1-10.88,2.73h-1.2l-1.74-.13a20.43,20.43,0,0,1-7.18-2.6,7.27,7.27,0,0,1-1.85-1.5v26.63a4.3,4.3,0,0,1-.33,2.18,3.93,3.93,0,0,1-1,1.44,2.63,2.63,0,0,1-1.85.61h-7.61A2.29,2.29,0,0,1,329.36,831.32Zm17.47-41.51q1.85,1.77,5.55,1.77a9.06,9.06,0,0,0,5.44-1.64A12.76,12.76,0,0,0,362,785.3a25.22,25.22,0,0,0,2.72-7.78,48.7,48.7,0,0,0,1-10.24q0-10.65-3.26-16.8-3.06-5.73-9.25-5.74a8.23,8.23,0,0,0-5.66,1.92c-.8.73-1.54,1.45-2.23,2.18a12.9,12.9,0,0,0-1.69,2.19,26.21,26.21,0,0,0-3.05,8.73c-.14,1.46-.27,3-.38,4.58a48.25,48.25,0,0,0-.05,5c.14,1.46.29,2.87.43,4.24a41.42,41.42,0,0,0,.66,4.09,25.46,25.46,0,0,0,.92,3.76,35.36,35.36,0,0,0,1.47,3.75A9.81,9.81,0,0,0,346.83,789.81Z" transform="translate(-327.5 -190.5)"/><path class="cls-3" d="M460.21,780.79a16.59,16.59,0,0,1,1.74-.95,19.66,19.66,0,0,1,2-1,9,9,0,0,1,2.23-.61,2.52,2.52,0,0,1,1.36.2,4.23,4.23,0,0,1,1,.69l1.74,2.32,1.74,2.86a27.77,27.77,0,0,0,3.59,4,11.11,11.11,0,0,0,4.9,2.6l2.83.41h.87a.39.39,0,0,1,.33-.14h.43a6.75,6.75,0,0,0,4.25-2.32,6.93,6.93,0,0,0,1.63-5.05,6.32,6.32,0,0,0-1.63-4.64,17.14,17.14,0,0,0-2.4-2,32.58,32.58,0,0,0-2.83-1.7l-7.29-3a31.18,31.18,0,0,1-7.83-3.82,21.85,21.85,0,0,1-6.31-6.42q-2.62-4.1-2.62-10.78a25.35,25.35,0,0,1,1.74-9.7,22.41,22.41,0,0,1,4.79-7,21.26,21.26,0,0,1,6.75-4.24,22.11,22.11,0,0,1,3.86-1,24.16,24.16,0,0,1,4.08-.34,26.77,26.77,0,0,1,7,.82,20,20,0,0,1,5.33,2.32,22.15,22.15,0,0,1,3.92,3.41,13.93,13.93,0,0,1,2.72,3.83,25.09,25.09,0,0,1,3.26,10.51l.11,1.09a24.48,24.48,0,0,1-2.28,1.78,23.83,23.83,0,0,1-2.56,1.36,11.75,11.75,0,0,1-3.21,1,3,3,0,0,1-2.4-.68,1.76,1.76,0,0,1-.54-1,12.88,12.88,0,0,0-1.85-5.19,16.69,16.69,0,0,0-1.47-1.84,12.07,12.07,0,0,0-2-1.71,10.59,10.59,0,0,0-11.54.14,4.5,4.5,0,0,0-1.3,1.43,6.41,6.41,0,0,0-.66,3.35,5.16,5.16,0,0,0,.77,3,13.44,13.44,0,0,0,2.72,2.73l4.24,2.19a19.42,19.42,0,0,1,2.61.95l1.8.75c.54.23.78.34.71.34l6.31,2.74a24.61,24.61,0,0,1,5.87,4.09,15.23,15.23,0,0,1,2.51,2.8A20.74,20.74,0,0,1,504.82,782a25.9,25.9,0,0,1-1.95,10.38,18.55,18.55,0,0,1-5.12,7.24,20.25,20.25,0,0,1-7.29,4.23,29.26,29.26,0,0,1-8.6,1.23,21.71,21.71,0,0,1-8.7-1.78,26.71,26.71,0,0,1-7.18-4.78,22.69,22.69,0,0,1-5.12-6.82,20,20,0,0,1-2.17-8.33l.11-1.37A5.72,5.72,0,0,1,460.21,780.79Z" transform="translate(-327.5 -190.5)"/><path class="cls-3" d="M566,802.64H555.75a1.66,1.66,0,0,1-1.79-1.57,15.14,15.14,0,0,1-.28-2.66V753.89l-.11-1.36-.21-1.5v-.41q-2-7.51-8.06-7.51c-3.41,0-6,1-7.83,3.14a15.89,15.89,0,0,0-3.59,8.33v43.69a7.34,7.34,0,0,1-.11,2.19,10.15,10.15,0,0,1-.54,1.5,1.14,1.14,0,0,1-1.09.68H522a1.32,1.32,0,0,1-1.25-.68,6.19,6.19,0,0,1-.6-1.5,9,9,0,0,1-.22-2.05l-.11-3V705.15a6.56,6.56,0,0,1,.38-1.58,2.72,2.72,0,0,1,2.23-1.57l2.51-.13h4l2.18.13a2.59,2.59,0,0,1,2.28,1.44,5.55,5.55,0,0,1,.44,1.71v29.49A16.91,16.91,0,0,1,538,731.5a20.15,20.15,0,0,1,10.12-2.6q9.69,0,14.59,6.7t4.89,17.88v44.79a7,7,0,0,1-.11,2.19A13.2,13.2,0,0,1,567,802,1,1,0,0,1,566,802.64Z" transform="translate(-327.5 -190.5)"/><path class="cls-3" d="M620.5,801.28c-.73-.91-1.46-1.92-2.18-3-.8-1.27-1.63-2.68-2.51-4.23l-4-7.1-4.14-7.1-3.81-6.28-2.06-4c-.07,0-.11-.05-.11-.14s0-.27-.11-.27l-.43.54-.55.69a6,6,0,0,1-.49.54c-.18.19-.34.37-.49.55v26.63a5.33,5.33,0,0,1-.43,2.18,6.19,6.19,0,0,1-.93,1.57,2.17,2.17,0,0,1-1.8.75h-7.5a2.17,2.17,0,0,1-1.8-.75,6.14,6.14,0,0,1-.92-1.57,6.52,6.52,0,0,1-.55-2.18V709.52l-.11-3.42a4.81,4.81,0,0,1,.88-3.28l1.73-1h8.06l2.28,1a5.65,5.65,0,0,1,1.09,3.83v50.11q2.07-2.73,4.84-6.35t5.28-7q2.94-4,6.09-8.06l2-2.46c1.09-1.45,2.14-2.18,3.16-2.18h6.64a21.42,21.42,0,0,1,3,.14,5.78,5.78,0,0,1,1.14.27,1.89,1.89,0,0,1,1.31,1,5.84,5.84,0,0,1,.43,1.09,1.33,1.33,0,0,1,.11.68,2.83,2.83,0,0,1-.65,1.78l-1.42,2-1.63,2.05-8.92,11.06q-1.74,2.06-3.27,4l-4.57,5.74c.44.73.95,1.59,1.53,2.59s1.16,2,1.74,2.87,1.3,2.1,2,3.28L625,780.38l2.06,3.56,1.74,3,1.64,2.59,2.39,4.1,1.52,2.59,3.59,6.42H622.35C621.84,802.64,621.22,802.19,620.5,801.28Z" transform="translate(-327.5 -190.5)"/><path class="cls-3" d="M690.9,802.37a10.32,10.32,0,0,1-2.61,1.5,10.73,10.73,0,0,1-4.14.68,9,9,0,0,1-7.4-3.55,1.75,1.75,0,0,1-.27.28,1.72,1.72,0,0,0-.27.27l-.22.27a22.15,22.15,0,0,1-6.8,2,34.7,34.7,0,0,1-5.93.27,28.56,28.56,0,0,1-5.77-.82,17.45,17.45,0,0,1-6-3.82,17.17,17.17,0,0,1-4.14-6.28,22,22,0,0,1-1.52-8.88q0-7.1,2.5-11.47a22.06,22.06,0,0,1,2.77-4,20.73,20.73,0,0,1,3.54-3.14,35.38,35.38,0,0,1,3.86-2.45,23,23,0,0,1,4.3-1.78l8.49-2.46,6.31-1.36a3.08,3.08,0,0,0,2.18-1.3,6.1,6.1,0,0,0,.87-2.25,9.13,9.13,0,0,0,.11-3.14,7.8,7.8,0,0,0-.54-3.14,6.57,6.57,0,0,0-2.29-3,9.55,9.55,0,0,0-1.91-.82,12.92,12.92,0,0,0-3.75-.41,9.25,9.25,0,0,0-1.63.14,9.64,9.64,0,0,0-1.53.41,16.25,16.25,0,0,0-5.55,3.55,31.62,31.62,0,0,0-5.11,8.19l-.54,1.1h-1.09a12.71,12.71,0,0,1-4.46-.82,8.08,8.08,0,0,1-3.92-2.87l-.55-.69v-.95a24.26,24.26,0,0,1,1.85-8.33,20.15,20.15,0,0,1,4.47-6.42,19.52,19.52,0,0,1,6.31-4.37,30.42,30.42,0,0,1,7.73-2.18l2-.28h3.38l1.52.14a18.49,18.49,0,0,1,6.31,1.5,17.15,17.15,0,0,1,5.66,3.83A18.8,18.8,0,0,1,691,742a24.19,24.19,0,0,1,1.63,9.43v48.88A6.17,6.17,0,0,1,690.9,802.37Zm-31-19.12a8.35,8.35,0,0,0,2.18,6.15,8.68,8.68,0,0,0,6.31,2.32,13.12,13.12,0,0,0,3.7-.48,13.6,13.6,0,0,0,3-1.3,6.18,6.18,0,0,0,2.94-4.23c.28-1.55.49-3,.6-4.37s.16-2.68.16-4V769.6a25.14,25.14,0,0,1-4.79,1.64c-1.3.27-2.55.59-3.75,1s-2.34.78-3.43,1.23a16,16,0,0,0-5.22,3.69Q659.88,779.15,659.88,783.25Z" transform="translate(-327.5 -190.5)"/><path class="cls-3" d="M743.89,745.56a10.88,10.88,0,0,1-2,1.23,7.9,7.9,0,0,1-2.07.62,5.81,5.81,0,0,1-2.61-.21c-.87-.36-1.71-.72-2.5-1.09a11.86,11.86,0,0,0-2.4-.61,7.17,7.17,0,0,0-2.61.06,6.29,6.29,0,0,0-3,1.92,5.76,5.76,0,0,0-1.53,3.14,58.84,58.84,0,0,0-.65,8.87l-.11,9.83v29.5a5,5,0,0,1-.82,3.07,2,2,0,0,1-1.36.75h-9.79a1.64,1.64,0,0,1-1.79-1.5,14.31,14.31,0,0,1-.28-2.18l-.11-2.6V737.1l.55-.68q2.18-3.15,7.18-4.65l2.29-.68v5.19a12.06,12.06,0,0,1,1.19-1c.44-.31.87-.65,1.31-1a28,28,0,0,1,3.48-2,22,22,0,0,1,3.92-1.43l2.39-.41,2.07-.14a12.63,12.63,0,0,1,5.77,1.09,11.53,11.53,0,0,1,4,3.14,6.77,6.77,0,0,1,1.31,3.83,10.4,10.4,0,0,1-.11,2.59c-.15.73-.33,1.5-.55,2.32A6.11,6.11,0,0,1,743.89,745.56Z" transform="translate(-327.5 -190.5)"/><path class="cls-3" d="M782.52,731.5a4.93,4.93,0,0,1,1,1.09,3.5,3.5,0,0,1,.49,2v6.14a5.81,5.81,0,0,1,0,.76c0,.22-.06.29-.06.2a5.25,5.25,0,0,1-.32,1.37c-.22.63-.84,1-1.85,1.23H773.7v42.6a8.87,8.87,0,0,1,.39,1.3,1.36,1.36,0,0,0,.7,1,4.66,4.66,0,0,0,1.25.48,10.75,10.75,0,0,0,2.35.2,12,12,0,0,1,3.26.41,5.73,5.73,0,0,1,2.23,1.09,3.49,3.49,0,0,1,1.25,2.33c.07.73.11,1.45.11,2.18a9.84,9.84,0,0,1-.22,2,5.32,5.32,0,0,1-.76,1.85,6.65,6.65,0,0,1-3.92,2.72,17,17,0,0,1-5.55.82,22,22,0,0,1-5.44-.68,9.38,9.38,0,0,1-5-2.73,14.48,14.48,0,0,1-3.48-6,31.51,31.51,0,0,1-1.2-9.42V744.34h-5.55a1.94,1.94,0,0,1-1.91-1,3.83,3.83,0,0,1-.49-1.64v-8.46a2.6,2.6,0,0,1,.33-1.37q.54-1.23,2.61-1.23l1.85.14h3.16v-9.15l.11-3a6.56,6.56,0,0,1,.43-2.45,6.32,6.32,0,0,1,1-1.85,4.08,4.08,0,0,1,2.12-1.29l3-.82,2.07-.55,2.28-.41h-.21a1.85,1.85,0,0,1,1.85.41,3.6,3.6,0,0,1,.87,1.5,7.16,7.16,0,0,1,.33,2.32,11.12,11.12,0,0,1,.1,1.37v13.93h7.18A3.21,3.21,0,0,1,782.52,731.5Z" transform="translate(-327.5 -190.5)"/><path class="cls-3" d="M802,784.75a7.36,7.36,0,0,1,6.09-3.14,7.53,7.53,0,0,1,6.09,3.14,11.69,11.69,0,0,1,2.51,7.51,11.87,11.87,0,0,1-2.51,7.65,7.5,7.5,0,0,1-6.09,3.14,7.33,7.33,0,0,1-6.09-3.14,11.53,11.53,0,0,1-2.5-7.65A11.35,11.35,0,0,1,802,784.75Z" transform="translate(-327.5 -190.5)"/><path class="cls-3" d="M836.88,831.32a4.93,4.93,0,0,1-.93-1.5,5.25,5.25,0,0,1-.44-2.19V739.69l.33-.68a26.64,26.64,0,0,1,3.59-3.55,21.91,21.91,0,0,1,3.21-2.39,5.86,5.86,0,0,1,2.88-1v3a9.15,9.15,0,0,1,2-1.43c.76-.41,1.54-.8,2.34-1.16a24.78,24.78,0,0,1,10.44-2.19A24,24,0,0,1,872,733a26,26,0,0,1,8.27,7.1,32,32,0,0,1,5.11,10.65,56.94,56.94,0,0,1,2,12.43l.11,2.18v4.78a4.22,4.22,0,0,1-.06.75c0,.23-.05.3-.05.21a56.67,56.67,0,0,1-2.18,13,34.68,34.68,0,0,1-5,10.93,28.4,28.4,0,0,1-7.84,7.64,21.94,21.94,0,0,1-10.88,2.73h-1.19l-1.75-.13a20.51,20.51,0,0,1-7.18-2.6,7.27,7.27,0,0,1-1.85-1.5v26.63a4.41,4.41,0,0,1-.32,2.18,4,4,0,0,1-1,1.44,2.63,2.63,0,0,1-1.85.61h-7.61A2.25,2.25,0,0,1,836.88,831.32Zm17.46-41.51q1.85,1.77,5.55,1.77a9.06,9.06,0,0,0,5.44-1.64,12.67,12.67,0,0,0,4.13-4.64,25.23,25.23,0,0,0,2.73-7.78,48.74,48.74,0,0,0,1-10.24q0-10.65-3.26-16.8a9.88,9.88,0,0,0-9.25-5.74,8.24,8.24,0,0,0-5.66,1.92c-.8.73-1.54,1.45-2.23,2.18a12.9,12.9,0,0,0-1.69,2.19,26.18,26.18,0,0,0-3,8.73c-.15,1.46-.27,3-.38,4.58a45.52,45.52,0,0,0-.06,5c.15,1.46.29,2.87.44,4.24a38.62,38.62,0,0,0,.65,4.09,26.81,26.81,0,0,0,.93,3.76,33.23,33.23,0,0,0,1.46,3.75A9.87,9.87,0,0,0,854.34,789.81Z" transform="translate(-327.5 -190.5)"/><path class="cls-3" d="M949.33,802.64H939.1a1.66,1.66,0,0,1-1.79-1.57,16.16,16.16,0,0,1-.28-2.66V753.89l-.1-1.36-.22-1.5v-.41q-2-7.51-8.05-7.51c-3.41,0-6,1-7.84,3.14a16,16,0,0,0-3.59,8.33v43.69a7,7,0,0,1-.11,2.19,9.13,9.13,0,0,1-.54,1.5,1.13,1.13,0,0,1-1.09.68H905.37a1.32,1.32,0,0,1-1.25-.68,6.62,6.62,0,0,1-.6-1.5,9,9,0,0,1-.22-2.05l-.1-3V705.15a6.38,6.38,0,0,1,.37-1.58c.26-.77,1-1.29,2.24-1.57l2.5-.13h4l2.18.13a2.59,2.59,0,0,1,2.29,1.44,5.46,5.46,0,0,1,.43,1.71v29.49a16.77,16.77,0,0,1,4.14-3.14,20.15,20.15,0,0,1,10.12-2.6q9.68,0,14.58,6.7t4.9,17.88v44.79a7,7,0,0,1-.12,2.19,13.23,13.23,0,0,1-.48,1.5A1,1,0,0,1,949.33,802.64Z" transform="translate(-327.5 -190.5)"/><path class="cls-4" d="M396.71,744c0,1.72,0,3.28,0,4.84,0,10.09-.16,20.19.07,30.28.32,14.1,11.33,25.89,24.07,26.12,13.3.24,24.92-10.65,25.43-24.88.54-15.12.19-30.28.23-45.42,0-3.21-1.58-4.73-4.34-4.92-1.43-.1-2.87-.06-4.3,0-6,0-6.72.85-6.73,7.5,0,14.13,0,28.26,0,42.4,0,6.12-2.75,10.28-7.19,11.39-6.48,1.62-11.75-3.17-11.8-11-.09-14.71,0-29.42,0-44.13,0-3.2-.57-6-4-6.09-4.95-.17-9.91-.24-14.86,0-3.69.2-5,3-5,6.85.06,4.25,1.58,6.36,5.06,6.78C394.32,743.85,395.34,743.89,396.71,744Z" transform="translate(-327.5 -190.5)"/><path class="cls-4" d="M431.24,817c0,4.83,3.52,8.8,7.85,8.8,4.09,0,8-4.39,7.9-8.94s-3.68-8.35-7.83-8.43C434.71,808.37,431.25,812.12,431.24,817Z" transform="translate(-327.5 -190.5)"/><path class="cls-4" d="M412,817c0-4.87-3.53-8.63-8-8.55-4.17.09-7.69,3.91-7.77,8.47s3.72,8.88,7.9,8.91S412,821.87,412,817Z" transform="translate(-327.5 -190.5)"/><path class="cls-4" d="M396.71,743.37c-1.37-.11-2.39-.15-3.4-.28-3.48-.41-5-2.5-5.06-6.7-.05-3.82,1.29-6.58,5-6.78,4.95-.26,9.91-.19,14.86,0,3.47.11,4.05,2.85,4,6,0,14.54-.08,29.09,0,43.63.05,7.72,5.32,12.46,11.8,10.86,4.44-1.1,7.16-5.22,7.19-11.27.06-14,0-28,0-41.92,0-6.57.76-7.39,6.73-7.41,1.43,0,2.87-.06,4.3,0,2.76.19,4.35,1.69,4.34,4.87,0,15,.31,30-.23,44.9-.51,14.08-12.13,24.85-25.43,24.61-12.74-.23-23.75-11.88-24.07-25.83-.23-10-.06-20-.07-29.94C396.71,746.61,396.71,745.07,396.71,743.37Z" transform="translate(-327.5 -190.5)"/><path class="cls-4" d="M431.24,817c0-4.91,3.47-8.66,7.92-8.57,4.15.08,7.75,4,7.83,8.43s-3.81,8.94-7.9,8.94C434.76,825.83,431.23,821.86,431.24,817Z" transform="translate(-327.5 -190.5)"/><path class="cls-4" d="M412,817c0,4.87-3.51,8.85-7.84,8.83s-8-4.32-7.9-8.91,3.6-8.38,7.77-8.47C408.48,808.37,412,812.13,412,817Z" transform="translate(-327.5 -190.5)"/></g></g></svg>