<svg xmlns="http://www.w3.org/2000/svg" xmlns:xlink="http://www.w3.org/1999/xlink" width="623.49" height="652" viewBox="0 0 623.49 652"><defs><style>.cls-1{fill:none;}.cls-2{clip-path:url(#clip-path);}.cls-3,.cls-5{fill:#454545;stroke:#454545;stroke-miterlimit:10;}.cls-4{fill:#ed0044;}.cls-5{stroke-width:0.25px;}</style><clipPath id="clip-path" transform="translate(0 4)"><rect class="cls-1" y="-4" width="623" height="645.54"/></clipPath></defs><title>PUSHKART</title><g id="Layer_2" data-name="Layer 2"><g class="cls-2"><rect class="cls-1" width="623" height="652"/><path class="cls-3" d="M164.63,71.82V96.28c.06,51.08-.82,102.2.41,153.25,1.72,71.37,60.89,131,129.4,132.18,71.53,1.23,134-53.91,136.74-125.92,2.92-76.51,1.06-153.22,1.28-229.85C432.46,9.69,423.92,2,409.11,1,401.43.53,393.69.78,386,.8c-32.1.12-36.15,4.32-36.17,38,0,71.52.18,143-.14,214.57-.13,31-14.79,52.05-38.67,57.66-34.8,8.19-63.16-16-63.42-55.58-.47-74.43-.2-148.88,0-223.32,0-16.19-3.08-30.23-21.73-30.82C199.23.41,172.53.05,146,1.4c-19.85,1-27.09,15.15-26.79,34.69.34,21.5,8.51,32.18,27.21,34.31C151.76,71,157.23,71.26,164.63,71.82Z" transform="translate(0 4)"/><path class="cls-3" d="M350.26,441.38c-.06,24.47,19,44.53,42.2,44.52,22,0,42.87-22.21,42.48-45.21-.39-22.62-19.77-42.29-42.06-42.7C368.94,397.55,350.32,416.5,350.26,441.38Z" transform="translate(0 4)"/><path class="cls-3" d="M246.87,441.24c-.12-24.67-19-43.7-42.84-43.25-22.45.41-41.35,19.78-41.81,42.85s20,44.92,42.52,45.06C228,486,247,465.9,246.87,441.24Z" transform="translate(0 4)"/><path class="cls-4" d="M164.63,71.82c-7.4-.56-12.87-.8-18.3-1.42-18.7-2.13-26.87-12.81-27.21-34.31-.3-19.54,6.94-33.68,26.79-34.69,26.58-1.35,53.28-1,79.9-.14,18.65.59,21.77,14.63,21.73,30.82-.16,74.44-.43,148.89,0,223.32.26,39.54,28.62,63.77,63.42,55.58,23.88-5.61,38.54-26.68,38.67-57.66.32-71.53.09-143,.14-214.57C349.77,5.12,353.84.92,385.94.8c7.71,0,15.45-.27,23.13.23,14.81,1,23.4,8.66,23.35,24.91-.22,76.63,1.64,153.34-1.28,229.85-2.74,72-65.21,127.15-136.74,125.92C225.93,380.5,166.76,320.9,165,249.5c-1.23-51-.35-102.17-.41-153.25C164.62,88.4,164.63,80.5,164.63,71.82Z" transform="translate(0 4)"/><path class="cls-4" d="M350.26,441.38c.06-24.87,18.68-43.83,42.62-43.39,22.29.41,41.67,20.08,42.06,42.7.39,23-20.48,45.21-42.48,45.21C369.21,485.91,350.2,465.85,350.26,441.38Z" transform="translate(0 4)"/><path class="cls-4" d="M246.87,441.24C247,465.9,228,486,204.74,485.9c-22.48-.14-43-21.87-42.52-45.06S181.58,398.4,204,398C227.9,397.5,246.75,416.57,246.87,441.24Z" transform="translate(0 4)"/><path class="cls-4" d="M1.86,640.82a5.14,5.14,0,0,1-.92-1.5,5.33,5.33,0,0,1-.44-2.19V549.19l.33-.68A26.77,26.77,0,0,1,4.42,545a20.74,20.74,0,0,1,3.21-2.39,5.83,5.83,0,0,1,2.88-1v3a9.12,9.12,0,0,1,2-1.43c.76-.41,1.54-.8,2.33-1.16a24.75,24.75,0,0,1,10.45-2.19A23.88,23.88,0,0,1,37,542.5a25.79,25.79,0,0,1,8.27,7.1,31.81,31.81,0,0,1,5.12,10.65,57.56,57.56,0,0,1,2,12.43l.1,2.18v4.78a4.69,4.69,0,0,1,0,.75c0,.23,0,.3,0,.21a56.74,56.74,0,0,1-2.18,13,34.43,34.43,0,0,1-5,10.93,28.33,28.33,0,0,1-7.83,7.64A21.9,21.9,0,0,1,26.5,614.9H25.3l-1.74-.13a20.46,20.46,0,0,1-7.18-2.6,7.21,7.21,0,0,1-1.85-1.5V637.3a4.3,4.3,0,0,1-.33,2.18,3.9,3.9,0,0,1-1,1.44,2.66,2.66,0,0,1-1.85.61H3.74A2.29,2.29,0,0,1,1.86,640.82Zm17.47-41.51q1.84,1.77,5.55,1.77a9,9,0,0,0,5.44-1.64,12.77,12.77,0,0,0,4.18-4.64A25.12,25.12,0,0,0,37.22,587a48.91,48.91,0,0,0,1-10.24q0-10.65-3.26-16.8a9.92,9.92,0,0,0-9.25-5.74,8.22,8.22,0,0,0-5.66,1.92c-.8.73-1.54,1.45-2.23,2.18a12.79,12.79,0,0,0-1.69,2.19,26.11,26.11,0,0,0-3,8.73c-.14,1.46-.27,3-.38,4.58a49,49,0,0,0,0,5c.14,1.46.29,2.87.43,4.24a40.49,40.49,0,0,0,.66,4.09,25.77,25.77,0,0,0,.92,3.76,35.55,35.55,0,0,0,1.47,3.75A9.8,9.8,0,0,0,19.33,599.31Z" transform="translate(0 4)"/><path class="cls-4" d="M132.71,590.29a16.27,16.27,0,0,1,1.74-.95,20.72,20.72,0,0,1,2-1,9,9,0,0,1,2.23-.61,2.55,2.55,0,0,1,1.36.2,4.25,4.25,0,0,1,1,.69l1.74,2.32,1.74,2.86a27.28,27.28,0,0,0,3.59,4,11.09,11.09,0,0,0,4.9,2.6l2.83.41h.87a.38.38,0,0,1,.33-.14h.43a6.77,6.77,0,0,0,4.25-2.32,6.93,6.93,0,0,0,1.63-5.05,6.29,6.29,0,0,0-1.63-4.64,17,17,0,0,0-2.4-2c-.91-.61-1.86-1.18-2.83-1.7l-7.29-3a31.24,31.24,0,0,1-7.83-3.82,21.81,21.81,0,0,1-6.31-6.42q-2.62-4.1-2.62-10.78a25.32,25.32,0,0,1,1.74-9.7,22.43,22.43,0,0,1,4.79-7,21,21,0,0,1,6.75-4.24,22.34,22.34,0,0,1,3.86-1,24.24,24.24,0,0,1,4.08-.34,26.65,26.65,0,0,1,7,.82A19.92,19.92,0,0,1,166,541.8a22,22,0,0,1,3.92,3.41,13.77,13.77,0,0,1,2.72,3.83,25.18,25.18,0,0,1,3.26,10.51l.11,1.09a24.48,24.48,0,0,1-2.28,1.78,25.08,25.08,0,0,1-2.56,1.36,11.74,11.74,0,0,1-3.21,1,3,3,0,0,1-2.4-.68,1.71,1.71,0,0,1-.54-1,13,13,0,0,0-1.85-5.19,17.43,17.43,0,0,0-1.47-1.84,12.13,12.13,0,0,0-2-1.71,10.59,10.59,0,0,0-11.54.14,4.45,4.45,0,0,0-1.3,1.43,6.37,6.37,0,0,0-.66,3.35,5.11,5.11,0,0,0,.77,3,13.28,13.28,0,0,0,2.72,2.73l4.24,2.19a19,19,0,0,1,2.61.95l1.8.75c.54.23.78.34.71.34l6.31,2.74a24.63,24.63,0,0,1,5.87,4.09,15.52,15.52,0,0,1,2.51,2.8,20.77,20.77,0,0,1,3.59,12.63,25.82,25.82,0,0,1-1.95,10.38,18.54,18.54,0,0,1-5.12,7.24,20.17,20.17,0,0,1-7.29,4.23,29.14,29.14,0,0,1-8.6,1.23,21.71,21.71,0,0,1-8.7-1.78,26.63,26.63,0,0,1-7.18-4.78,22.69,22.69,0,0,1-5.12-6.82,20,20,0,0,1-2.17-8.33l.11-1.37A5.62,5.62,0,0,1,132.71,590.29Z" transform="translate(0 4)"/><path class="cls-4" d="M238.5,612.14H228.25a1.67,1.67,0,0,1-1.79-1.52v0a14.92,14.92,0,0,1-.28-2.66V563.39l-.11-1.36-.21-1.5v-.41q-2-7.51-8.06-7.51c-3.41,0-6,1-7.83,3.14a15.87,15.87,0,0,0-3.59,8.33v43.69a7.32,7.32,0,0,1-.11,2.19,9.93,9.93,0,0,1-.54,1.5,1.14,1.14,0,0,1-1.09.68H194.5a1.32,1.32,0,0,1-1.25-.68,6.27,6.27,0,0,1-.6-1.5,8.82,8.82,0,0,1-.22-2.05l-.11-3V514.65a6.62,6.62,0,0,1,.38-1.58,2.72,2.72,0,0,1,2.23-1.57l2.51-.13h4l2.18.13a2.6,2.6,0,0,1,2.28,1.44,5.33,5.33,0,0,1,.44,1.71v29.49A17,17,0,0,1,210.5,541a20.17,20.17,0,0,1,10.12-2.6q9.69,0,14.59,6.7T240.1,563v44.79A7,7,0,0,1,240,610a13.78,13.78,0,0,1-.49,1.54A1,1,0,0,1,238.5,612.14Z" transform="translate(0 4)"/><path class="cls-4" d="M293,610.78c-.73-.91-1.46-1.92-2.18-3-.8-1.27-1.63-2.68-2.51-4.23l-4-7.1-4.14-7.1-3.81-6.28-2.06-4c-.07,0-.11-.05-.11-.14s0-.27-.11-.27l-.43.54-.55.69a6.28,6.28,0,0,1-.49.54c-.18.19-.34.37-.49.55v26.63a5.44,5.44,0,0,1-.43,2.18,5.92,5.92,0,0,1-.93,1.57,2.18,2.18,0,0,1-1.8.75h-7.5a2.18,2.18,0,0,1-1.8-.75,6.17,6.17,0,0,1-.92-1.57,6.6,6.6,0,0,1-.55-2.18V519l-.11-3.42a4.8,4.8,0,0,1,.88-3.28l1.73-1h8.06l2.28,1a5.64,5.64,0,0,1,1.09,3.83v50.11q2.07-2.73,4.84-6.35t5.28-7q2.94-4,6.09-8.06l2-2.46c1.09-1.45,2.14-2.18,3.16-2.18h6.64a21.52,21.52,0,0,1,3,.14,5.56,5.56,0,0,1,1.14.27,1.88,1.88,0,0,1,1.31,1,6,6,0,0,1,.43,1.09,1.32,1.32,0,0,1,.11.68,2.82,2.82,0,0,1-.65,1.78l-1.42,2-1.63,2.05-8.92,11.06c-1.16,1.37-2.25,2.71-3.27,4L285.66,570c.44.73.95,1.59,1.53,2.59s1.16,2,1.74,2.87,1.3,2.1,2,3.28l6.57,11.12,2.06,3.56,1.74,3,1.64,2.59,2.39,4.1,1.52,2.59,3.59,6.42H294.85C294.34,612.14,293.72,611.69,293,610.78Z" transform="translate(0 4)"/><path class="cls-4" d="M363.4,611.87a10.42,10.42,0,0,1-2.61,1.5,10.63,10.63,0,0,1-4.14.68,9,9,0,0,1-7.4-3.55,1.79,1.79,0,0,1-.27.28,1.72,1.72,0,0,0-.27.27l-.22.27a22.11,22.11,0,0,1-6.8,2,34.6,34.6,0,0,1-5.93.27,28.77,28.77,0,0,1-5.77-.82,17.55,17.55,0,0,1-6-3.82,17.17,17.17,0,0,1-4.14-6.28,22.09,22.09,0,0,1-1.52-8.88q0-7.1,2.5-11.47a22,22,0,0,1,2.77-4,20.73,20.73,0,0,1,3.54-3.14,34.45,34.45,0,0,1,3.86-2.45,23.06,23.06,0,0,1,4.3-1.78l8.49-2.46,6.31-1.36a3.08,3.08,0,0,0,2.18-1.3,6.06,6.06,0,0,0,.87-2.25,9.2,9.2,0,0,0,.11-3.14,7.85,7.85,0,0,0-.54-3.14,6.54,6.54,0,0,0-2.29-3,9.48,9.48,0,0,0-1.91-.82,12.82,12.82,0,0,0-3.75-.41,9.87,9.87,0,0,0-1.63.14,9.1,9.1,0,0,0-1.53.41,16.26,16.26,0,0,0-5.55,3.55,31.46,31.46,0,0,0-5.11,8.19l-.54,1.1h-1.09a12.63,12.63,0,0,1-4.46-.82,8,8,0,0,1-3.92-2.87l-.55-.69v-1a24.4,24.4,0,0,1,1.85-8.33,20.18,20.18,0,0,1,4.47-6.42A19.43,19.43,0,0,1,333,542a30.18,30.18,0,0,1,7.73-2.18l2-.28h3.38l1.52.14a18.32,18.32,0,0,1,6.31,1.5,17.18,17.18,0,0,1,5.66,3.83,18.79,18.79,0,0,1,3.88,6.48,24.11,24.11,0,0,1,1.63,9.43v48.88A6.15,6.15,0,0,1,363.4,611.87Zm-31-19.12a8.34,8.34,0,0,0,2.18,6.15,8.67,8.67,0,0,0,6.31,2.32,12.84,12.84,0,0,0,3.7-.48,13.55,13.55,0,0,0,3-1.3,6.18,6.18,0,0,0,2.94-4.23c.28-1.55.49-3,.6-4.37s.16-2.68.16-4V579.1a24.63,24.63,0,0,1-4.79,1.64,31.2,31.2,0,0,0-3.75,1c-1.2.41-2.34.78-3.43,1.23a16,16,0,0,0-5.22,3.69q-1.73,2-1.72,6.09Z" transform="translate(0 4)"/><path class="cls-4" d="M416.39,555.06a11.07,11.07,0,0,1-2,1.23,7.85,7.85,0,0,1-2.07.62,5.77,5.77,0,0,1-2.61-.21c-.87-.36-1.71-.72-2.5-1.09a11.74,11.74,0,0,0-2.4-.61,7.16,7.16,0,0,0-2.61.06,6.28,6.28,0,0,0-3,1.92,5.75,5.75,0,0,0-1.53,3.14A58.55,58.55,0,0,0,397,569l-.11,9.83v29.5a5,5,0,0,1-.82,3.07,2,2,0,0,1-1.36.75h-9.79a1.65,1.65,0,0,1-1.79-1.48v0a14.61,14.61,0,0,1-.28-2.18l-.11-2.6V546.6l.55-.68c1.45-2.1,3.85-3.65,7.18-4.65l2.29-.68v5.19a11.45,11.45,0,0,1,1.19-1c.44-.31.87-.65,1.31-1a27.27,27.27,0,0,1,3.48-2,21.89,21.89,0,0,1,3.92-1.43l2.39-.41,2.07-.14a12.59,12.59,0,0,1,5.77,1.09,11.57,11.57,0,0,1,4,3.14,6.77,6.77,0,0,1,1.31,3.83,10.72,10.72,0,0,1-.11,2.59c-.15.73-.33,1.5-.55,2.32A6,6,0,0,1,416.39,555.06Z" transform="translate(0 4)"/><path class="cls-4" d="M455,541a4.93,4.93,0,0,1,1,1.09,3.51,3.51,0,0,1,.49,2v6.14a4.82,4.82,0,0,1,0,.76c0,.22-.06.29-.06.2a5,5,0,0,1-.32,1.37c-.22.63-.84,1-1.85,1.23H446.2v42.6a9.73,9.73,0,0,1,.39,1.3,1.33,1.33,0,0,0,.7,1,4.62,4.62,0,0,0,1.25.48,10.87,10.87,0,0,0,2.35.2,12,12,0,0,1,3.26.41,5.81,5.81,0,0,1,2.23,1.09,3.45,3.45,0,0,1,1.25,2.33c.07.73.11,1.45.11,2.18a9.65,9.65,0,0,1-.22,2,5.18,5.18,0,0,1-.76,1.85,6.66,6.66,0,0,1-3.92,2.72,16.86,16.86,0,0,1-5.55.82,22.21,22.21,0,0,1-5.44-.68,9.34,9.34,0,0,1-5-2.73,14.53,14.53,0,0,1-3.48-6,31.57,31.57,0,0,1-1.2-9.42v-40.1h-5.55a2,2,0,0,1-1.91-1,3.91,3.91,0,0,1-.49-1.64v-8.46a2.62,2.62,0,0,1,.33-1.37q.54-1.23,2.61-1.23l1.85.14h3.16v-9.15l.11-3a6.59,6.59,0,0,1,.43-2.45,6.5,6.5,0,0,1,1-1.85,4.11,4.11,0,0,1,2.12-1.29l3-.82,2.07-.55,2.28-.41H443a1.84,1.84,0,0,1,1.85.41,3.55,3.55,0,0,1,.87,1.5A7,7,0,0,1,446,525a12.44,12.44,0,0,1,.1,1.37v13.93h7.18A3.21,3.21,0,0,1,455,541Z" transform="translate(0 4)"/><path class="cls-4" d="M474.5,594.25a7.35,7.35,0,0,1,6.09-3.14,7.54,7.54,0,0,1,6.09,3.14,11.74,11.74,0,0,1,2.51,7.51,11.89,11.89,0,0,1-2.51,7.65,7.48,7.48,0,0,1-6.09,3.14,7.35,7.35,0,0,1-6.09-3.14,11.52,11.52,0,0,1-2.5-7.65A11.36,11.36,0,0,1,474.5,594.25Z" transform="translate(0 4)"/><path class="cls-4" d="M509.38,640.82a5,5,0,0,1-.93-1.5,5.33,5.33,0,0,1-.44-2.19V549.19l.33-.68a26.77,26.77,0,0,1,3.59-3.55,22.11,22.11,0,0,1,3.21-2.39,5.86,5.86,0,0,1,2.88-1v3a9.12,9.12,0,0,1,2-1.43c.76-.41,1.54-.8,2.34-1.16a24.71,24.71,0,0,1,10.44-2.19,24,24,0,0,1,11.7,2.71,26,26,0,0,1,8.27,7.1,32,32,0,0,1,5.11,10.65,57.56,57.56,0,0,1,2,12.43l.11,2.18v4.78a4.74,4.74,0,0,1-.06.75c0,.23,0,.3,0,.21a56.74,56.74,0,0,1-2.18,13,34.65,34.65,0,0,1-5,10.93,28.37,28.37,0,0,1-7.84,7.64A21.9,21.9,0,0,1,534,614.9h-1.19l-1.75-.13a20.53,20.53,0,0,1-7.18-2.6,7.21,7.21,0,0,1-1.85-1.5V637.3a4.4,4.4,0,0,1-.32,2.18,3.9,3.9,0,0,1-1,1.44,2.66,2.66,0,0,1-1.85.61h-7.61A2.26,2.26,0,0,1,509.38,640.82Zm17.46-41.51q1.85,1.77,5.55,1.77a9,9,0,0,0,5.44-1.64A12.63,12.63,0,0,0,542,594.8a25.31,25.31,0,0,0,2.73-7.78,48.91,48.91,0,0,0,1-10.24q0-10.65-3.26-16.8a9.89,9.89,0,0,0-9.25-5.74,8.22,8.22,0,0,0-5.66,1.92c-.8.73-1.54,1.45-2.23,2.18a12.79,12.79,0,0,0-1.69,2.19,26.31,26.31,0,0,0-3,8.73c-.15,1.46-.27,3-.38,4.58a46.31,46.31,0,0,0-.06,5c.15,1.46.29,2.87.44,4.24a37.82,37.82,0,0,0,.65,4.09,27.16,27.16,0,0,0,.93,3.76,33.44,33.44,0,0,0,1.46,3.75A9.87,9.87,0,0,0,526.84,599.31Z" transform="translate(0 4)"/><path class="cls-4" d="M621.83,612.14H611.6a1.67,1.67,0,0,1-1.79-1.52v0a15.9,15.9,0,0,1-.28-2.66V563.39l-.1-1.36-.22-1.5v-.41q-2-7.51-8.05-7.51c-3.41,0-6,1-7.84,3.14a16,16,0,0,0-3.59,8.33v43.69a7,7,0,0,1-.11,2.19,9.93,9.93,0,0,1-.54,1.5,1.14,1.14,0,0,1-1.09.68H577.87a1.32,1.32,0,0,1-1.25-.68,6.72,6.72,0,0,1-.6-1.5,8.82,8.82,0,0,1-.22-2.05l-.1-3V514.65a6.6,6.6,0,0,1,.37-1.58c.26-.77,1-1.29,2.24-1.57l2.5-.13h4l2.18.13a2.59,2.59,0,0,1,2.29,1.44,5.31,5.31,0,0,1,.43,1.71v29.49a16.89,16.89,0,0,1,4.14-3.14A20.17,20.17,0,0,1,604,538.4q9.67,0,14.58,6.7t4.9,17.88v44.79a7,7,0,0,1-.12,2.19,13.09,13.09,0,0,1-.48,1.5A1,1,0,0,1,621.83,612.14Z" transform="translate(0 4)"/><path class="cls-5" d="M69.21,553.5v4.84c0,10.09-.16,20.19.07,30.28.32,14.1,11.33,25.89,24.07,26.12,13.3.24,24.92-10.65,25.43-24.88.54-15.12.19-30.28.23-45.42,0-3.21-1.58-4.73-4.34-4.92a38.55,38.55,0,0,0-4.3,0c-6,0-6.72.85-6.73,7.5v42.4c0,6.12-2.75,10.28-7.19,11.39-6.48,1.62-11.75-3.17-11.8-11-.09-14.71,0-29.42,0-44.13,0-3.2-.57-6-4-6.09-5-.17-9.91-.24-14.86,0-3.69.2-5,3-5,6.85.06,4.25,1.58,6.36,5.06,6.78C66.82,553.35,67.84,553.39,69.21,553.5Z" transform="translate(0 4)"/><path class="cls-5" d="M103.74,626.5c0,4.83,3.52,8.8,7.85,8.8,4.09,0,8-4.39,7.9-8.94s-3.68-8.35-7.83-8.43C107.21,617.87,103.75,621.62,103.74,626.5Z" transform="translate(0 4)"/><path class="cls-5" d="M84.5,626.5c0-4.87-3.53-8.63-8-8.55-4.17.09-7.69,3.91-7.77,8.47s3.72,8.88,7.9,8.91S84.5,631.37,84.5,626.5Z" transform="translate(0 4)"/><path class="cls-4" d="M69.21,552.87c-1.37-.11-2.39-.15-3.4-.28-3.48-.41-5-2.5-5.06-6.7,0-3.82,1.29-6.58,5-6.78,5-.26,9.91-.19,14.86,0,3.47.11,4,2.85,4,6,0,14.54-.08,29.09,0,43.63,0,7.72,5.32,12.46,11.8,10.86,4.44-1.1,7.16-5.22,7.19-11.27.06-14,0-28,0-41.92,0-6.57.76-7.39,6.73-7.41,1.43,0,2.87-.06,4.3,0,2.76.19,4.35,1.69,4.34,4.87,0,15,.31,30-.23,44.9-.51,14.08-12.13,24.85-25.43,24.61-12.74-.23-23.75-11.88-24.07-25.83-.23-10-.06-20-.07-29.94C69.21,556.11,69.21,554.57,69.21,552.87Z" transform="translate(0 4)"/><path class="cls-4" d="M103.74,626.5c0-4.91,3.47-8.66,7.92-8.57,4.15.08,7.75,4,7.83,8.43s-3.81,8.94-7.9,8.94C107.26,635.33,103.73,631.36,103.74,626.5Z" transform="translate(0 4)"/><path class="cls-4" d="M84.5,626.5c0,4.87-3.51,8.85-7.84,8.83s-8-4.32-7.9-8.91,3.6-8.38,7.77-8.47C81,617.87,84.5,621.63,84.5,626.5Z" transform="translate(0 4)"/></g></g></svg>