<?xml version="1.0" encoding="UTF-8" standalone="no"?>
<svg
   xmlns:dc="http://purl.org/dc/elements/1.1/"
   xmlns:cc="http://creativecommons.org/ns#"
   xmlns:rdf="http://www.w3.org/1999/02/22-rdf-syntax-ns#"
   xmlns:svg="http://www.w3.org/2000/svg"
   xmlns="http://www.w3.org/2000/svg"
   id="svg8"
   version="1.1"
   viewBox="0 0 133.87915 135.32233"
   height="135.32233mm"
   width="133.87915mm">
  <defs
     id="defs2" />
  <metadata
     id="metadata5">
    <rdf:RDF>
      <cc:Work
         rdf:about="">
        <dc:format>image/svg+xml</dc:format>
        <dc:type
           rdf:resource="http://purl.org/dc/dcmitype/StillImage" />
        <dc:title></dc:title>
      </cc:Work>
    </rdf:RDF>
  </metadata>
  <g
     transform="translate(-40.405655,-78.208484)"
     id="layer1">
    <path
       id="path34"
       d="m 89.267272,213.95184 c -0.30733,-0.12417 -0.82495,-0.56311 -1.15029,-0.97542 -0.468879,-0.59423 -0.565221,-0.985 -0.464706,-1.88486 0.152911,-1.36893 0.741636,-2.07999 2.014986,-2.4337 0.52515,-0.14588 4.12808,-0.26526 8.03013,-0.26607 l 7.077598,-10e-4 v -11.50481 -11.50433 l -0.59531,-0.1219 c -0.32742,-0.067 -1.36922,-0.19378 -2.3151,-0.28164 -8.522528,-0.79167 -18.512042,-4.47606 -26.458334,-9.75852 -9.349435,-6.21522 -16.735054,-15.34322 -20.044273,-24.77302 -1.622445,-4.62325 -2.670018,-11.08721 -2.351842,-14.51184 0.306775,-3.30192 2.00641,-5.8278 4.870064,-7.23758 1.653001,-0.81377 1.899449,-0.85857 4.75996,-0.86533 l 3.016701,-0.007 0.773652,0.86408 c 1.259893,1.40713 0.963628,3.45792 -0.628977,4.3539 -0.319958,0.18001 -1.697315,0.3943 -3.060793,0.47621 -2.378167,0.14286 -2.510063,0.18363 -3.241146,1.00185 -0.688218,0.77024 -0.762095,1.03518 -0.762095,2.73303 0,6.47781 2.646409,14.55448 6.687773,20.41064 1.560424,2.26114 4.926696,6.27591 5.26218,6.27591 0.121483,0 0.220879,-0.2157 0.220879,-0.47934 0,-1.20603 1.200079,-4.92011 2.367114,-7.32587 2.675255,-5.51486 7.262743,-9.01209 13.625488,-10.38727 1.912271,-0.4133 4.048721,-0.46065 20.784479,-0.46065 16.79238,0 18.86756,0.0463 20.80279,0.46436 6.39262,1.3809 10.91353,4.83077 13.60718,10.38356 1.17599,2.42424 2.36711,6.12167 2.36711,7.34792 0,0.70544 0.27829,0.52736 1.76618,-1.13021 4.25665,-4.74207 7.33989,-10.20032 8.94747,-15.83966 0.8468,-2.97054 1.45478,-6.82251 1.45612,-9.22544 0.001,-1.73357 -0.0704,-1.99404 -0.75686,-2.76231 -0.73547,-0.82314 -0.8384,-0.85312 -3.47541,-1.01217 -2.63701,-0.15906 -2.73994,-0.18904 -3.47541,-1.01218 -1.36088,-1.52309 -0.8861,-3.6567 0.98795,-4.43973 1.71302,-0.71575 5.8498,-0.34054 7.90518,0.71701 3.43418,1.76697 4.85745,4.90326 4.5292,9.98044 -0.6477,10.01833 -4.65457,19.23419 -11.88369,27.33269 -9.42058,10.55352 -24.51124,17.97119 -38.80906,19.07623 l -0.92604,0.0716 -0.0689,11.57552 -0.0689,11.57552 7.47726,0.001 c 6.84866,8e-4 7.54576,0.0428 8.2921,0.49788 1.77439,1.08202 1.84725,3.56916 0.13822,4.71776 l -0.89902,0.60414 -17.88639,-0.0168 c -9.837517,-0.009 -18.137838,-0.11836 -18.445158,-0.24253 z m 24.652668,-34.78411 c 7.88084,-1.04314 16.01147,-4.1593 22.9165,-8.78304 2.45361,-1.64298 2.55568,-1.74968 2.44717,-2.55808 -0.0623,-0.46397 -0.23379,-1.79608 -0.38114,-2.96025 -0.74932,-5.92001 -3.49478,-10.24775 -7.80646,-12.30552 -3.50061,-1.67069 -3.41455,-1.66358 -21.55852,-1.78099 -17.404018,-0.11261 -20.222348,0.0113 -23.352964,1.02665 -5.567322,1.80567 -8.845933,6.24286 -9.727876,13.16547 -0.140917,1.10608 -0.309714,2.40637 -0.375105,2.88953 -0.116414,0.86016 -0.05988,0.91689 2.711759,2.72125 6.910027,4.49848 14.523528,7.41909 22.277526,8.54587 3.37443,0.49036 9.30359,0.5084 12.84911,0.0391 z m -27.422242,-37.186 c -2.643,-0.45729 -5.177488,-2.45923 -6.387534,-5.04538 -0.827053,-1.7676 -6.465598,-28.50372 -6.83519,-32.41022 -1.114102,-11.775809 5.921193,-22.126489 17.020468,-25.041339 2.04671,-0.5375 2.90973,-0.57783 14.479548,-0.67656 13.56223,-0.11573 15.81952,0.0306 19.61701,1.27155 4.11772,1.3456 7.04803,3.11525 10.24364,6.18624 4.91425,4.72261 7.4456,10.45161 7.4456,16.850989 0,2.63892 -0.24976,4.07743 -3.06051,17.62701 -1.90216,9.16965 -3.29262,15.26631 -3.67378,16.10826 -0.87995,1.94373 -2.32157,3.40623 -4.33465,4.39746 l -1.75157,0.86245 -20.77568,0.0396 c -11.426618,0.0218 -21.320933,-0.0547 -21.987352,-0.17006 z m 42.618352,-6.21891 c 0.32117,-0.2907 0.74332,-0.83673 0.9381,-1.2134 0.19479,-0.37667 1.69094,-7.04445 3.32479,-14.81729 2.6637,-12.67226 2.96979,-14.40581 2.96252,-16.77827 -0.006,-2.10156 -0.14638,-3.069167 -0.68029,-4.703769 -1.92791,-5.90239 -6.60175,-10.47511 -12.98767,-12.70667 l -2.42038,-0.8458 -12.98232,-0.0798 c -14.734548,-0.0905 -15.371358,-0.0302 -19.107078,1.81165 -3.083551,1.52028 -5.666262,4.09629 -7.158263,7.13969 -1.611903,3.28798 -2.020697,5.09933 -1.998562,8.855509 0.01765,2.99184 0.189778,3.9899 2.984137,17.30157 1.630984,7.76962 3.126155,14.43741 3.322606,14.8173 0.390961,0.75603 1.114459,1.46309 1.734272,1.69485 0.218281,0.0816 9.64152,0.12693 20.940538,0.10067 20.12973,-0.0468 20.55543,-0.0584 21.1276,-0.57627 z"
       style="fill:#424242;stroke-width:0.16458332" />
  </g>
</svg>
