<?xml version="1.0" encoding="UTF-8" standalone="no"?>
<svg
   xmlns:dc="http://purl.org/dc/elements/1.1/"
   xmlns:cc="http://creativecommons.org/ns#"
   xmlns:rdf="http://www.w3.org/1999/02/22-rdf-syntax-ns#"
   xmlns:svg="http://www.w3.org/2000/svg"
   xmlns="http://www.w3.org/2000/svg"
   id="svg8"
   version="1.1"
   viewBox="0 0 133.87915 135.32233"
   height="135.32233mm"
   width="133.87915mm">
  <defs
     id="defs2" />
  <metadata
     id="metadata5">
    <rdf:RDF>
      <cc:Work
         rdf:about="">
        <dc:format>image/svg+xml</dc:format>
        <dc:type
           rdf:resource="http://purl.org/dc/dcmitype/StillImage" />
        <dc:title></dc:title>
      </cc:Work>
    </rdf:RDF>
  </metadata>
  <g
     transform="translate(-40.405655,-78.208484)"
     id="layer1">
    <path
       id="path47"
       d="m 94.643518,214.19074 c -3.587387,-1.09123 -5.483079,-4.63374 -4.469248,-8.35175 0.379632,-1.39222 2.619462,-3.59694 4.104782,-4.04045 0.598967,-0.17884 2.238343,-0.32517 3.643061,-0.32517 h 2.554017 l -0.20348,-0.72761 c -0.380427,-1.36037 -0.19128,-3.58481 0.40255,-4.73407 0.70238,-1.35932 2.49058,-2.92142 3.74231,-3.26915 0.51883,-0.14413 1.80653,-0.26272 2.86156,-0.26353 1.05503,-7.9e-4 1.91817,-0.0908 1.9181,-0.19991 -8e-5,-0.10914 -0.25687,-0.85328 -0.57065,-1.65365 -0.79246,-2.02135 -0.79154,-5.34462 0.002,-7.54062 1.63922,-4.53578 5.33801,-7.37961 10.12925,-7.78791 l 1.75535,-0.14959 11.40584,-14.23513 11.40585,-14.23513 -0.52734,-1.56538 c -0.32358,-0.96041 -0.52738,-2.26747 -0.52738,-3.38208 v -1.8167 l -13.10351,-9.19227 -13.10351,-9.19227 -1.66391,0.41729 c -3.14045,0.78759 -6.15374,0.41626 -8.97362,-1.10583 -0.69195,-0.3735 -1.30387,-0.63007 -1.35982,-0.57017 -0.0559,0.0599 -2.4437,4.79574 -5.306111,10.52407 l -5.204415,10.41515 0.412668,0.86962 c 0.507338,1.06915 0.529333,2.51181 0.05558,3.64566 -0.554506,1.32712 -3.136648,3.54423 -4.370557,3.7527 -2.221214,0.37527 -2.925003,-0.0669 -7.881064,-4.95183 l -4.582305,-4.51651 -1.921682,0.89025 c -1.665628,0.77163 -2.256589,0.90325 -4.435221,0.98782 -1.953683,0.0758 -2.873274,-0.0161 -4.128605,-0.41286 -3.840769,-1.21386 -6.924319,-4.38921 -7.900028,-8.13521 -0.790989,-3.03681 -0.383042,-6.52168 1.054803,-9.0106 l 0.622611,-1.07775 -4.10262,-4.08163 c -5.19063,-5.16407 -5.993733,-6.4694 -5.380783,-8.74573 0.542357,-2.01416 3.415208,-4.43942 5.28254,-4.45952 0.363802,-0.004 1.199912,0.18584 1.858022,0.42168 l 1.196564,0.4288 13.620103,-6.80814 c 7.491055,-3.744471 14.453538,-7.298661 15.472184,-7.898201 1.343237,-0.79057 3.378626,-2.58897 7.408333,-6.54575 3.055942,-3.00064 5.949593,-5.65784 6.430353,-5.9049 1.39258,-0.71562 3.29156,-0.83181 4.74646,-0.29041 1.02601,0.3818 2.35192,1.54977 7.17519,6.32049 6.37894,6.30946 7.17811,7.38907 7.17188,9.68861 -0.004,1.55004 -0.81091,3.29856 -2.15725,4.675771 l -1.07916,1.10391 1.36002,1.38164 c 1.81363,1.84246 2.92228,4.14975 3.31515,6.89939 l 0.31129,2.17863 13.48282,9.44915 c 7.41554,5.19704 13.55838,9.40277 13.65073,9.34607 0.0924,-0.0567 0.95534,-0.2146 1.91773,-0.35089 2.43349,-0.34462 4.6514,0.0252 6.94293,1.15776 2.82637,1.39686 5.70314,4.77923 5.21966,6.13702 -0.5564,1.5626 -2.33776,1.94489 -3.3542,0.71982 -1.87798,-2.26346 -2.70711,-3.01099 -3.9548,-3.56556 -3.6316,-1.61417 -8.12251,-0.01 -10.06861,3.59748 -0.46425,0.86048 -0.571,1.50351 -0.571,3.43959 0,2.73641 0.43824,3.84245 2.1566,5.44289 1.39546,1.29971 2.10981,1.69862 3.73595,2.08624 1.70807,0.40716 3.43581,0.18516 5.09244,-0.65431 1.09375,-0.55425 1.74249,-1.16651 3.60942,-3.40646 1.02221,-1.22644 2.79777,-0.83762 3.35905,0.73559 0.48082,1.34768 -2.77665,5.15662 -5.46105,6.38559 -0.77603,0.35527 -2.29779,0.78669 -3.38171,0.95871 l -1.97074,0.31276 -11.54119,14.4043 -11.54119,14.40431 0.39559,1.22873 c 0.59899,1.86053 0.51876,5.38983 -0.16572,7.28942 -0.30972,0.85952 -0.56312,1.60366 -0.56312,1.65364 0,0.05 0.86321,0.0915 1.91823,0.0923 1.05503,7.9e-4 2.34273,0.1194 2.86156,0.26353 1.25173,0.34773 3.03993,1.90983 3.74231,3.26915 0.59383,1.14926 0.78299,3.3737 0.40255,4.73407 l -0.20348,0.72761 h 2.55403 c 1.40472,0 3.0441,0.14633 3.64306,0.32517 1.48532,0.44351 3.72515,2.64823 4.10479,4.04045 0.87986,3.22673 -0.41824,6.35118 -3.28034,7.89559 -1.02564,0.55344 -1.38165,0.57347 -11.52556,0.64845 -10.31496,0.0763 -10.47758,0.0692 -11.17865,-0.48222 -0.89925,-0.70735 -0.97386,-2.05357 -0.15491,-2.79529 0.52161,-0.47242 1.20328,-0.51232 10.87114,-0.63632 l 10.31464,-0.13229 0.63823,-0.74236 c 0.91285,-1.06178 0.85996,-2.38391 -0.13516,-3.37903 l -0.7734,-0.7734 H 119.64834 95.398274 l -0.773395,0.7734 c -0.995127,0.99512 -1.048015,2.31725 -0.135165,3.37903 l 0.63823,0.74236 10.314626,0.13229 c 9.66787,0.124 10.34953,0.1639 10.87114,0.63632 0.81267,0.73604 0.74438,2.0879 -0.14063,2.78406 -0.67881,0.53395 -0.96234,0.54777 -10.78177,0.52563 -5.546547,-0.0125 -10.383048,-0.11352 -10.747792,-0.22447 z m 39.294072,-13.13281 c 1.61151,-0.76472 1.86764,-2.98099 0.47142,-4.07925 -0.60466,-0.47563 -1.07001,-0.5324 -4.36434,-0.5324 -3.43503,0 -3.76321,0.0443 -4.79296,0.6477 -3.21972,1.88649 -7.49701,1.89559 -11.10513,0.0236 -1.20193,-0.62358 -1.5531,-0.67133 -4.93802,-0.67133 -3.25079,0 -3.71711,0.0575 -4.32089,0.5324 -1.37834,1.0842 -1.14493,3.29311 0.43006,4.06989 0.72444,0.3573 2.64415,0.41356 14.29062,0.41877 11.68645,0.005 13.56877,-0.0486 14.32924,-0.40941 z m -11.69208,-6.88495 c 0.67992,-0.23168 1.81605,-0.94255 2.52474,-1.57972 5.25027,-4.72044 1.94081,-13.33972 -5.12191,-13.33972 -3.80308,0 -6.75269,2.41708 -7.53229,6.17237 -0.81725,3.93671 1.51712,7.69032 5.54792,8.92087 1.13665,0.34701 3.29313,0.2652 4.58154,-0.1738 z m -4.14539,-1.95233 c -2.85416,-0.91129 -4.47797,-3.81146 -3.74666,-6.69166 1.24638,-4.90874 7.82598,-5.69091 10.13462,-1.20477 1.42739,2.77368 0.3671,6.09909 -2.40107,7.53057 -0.94815,0.49031 -3.00574,0.67913 -3.98689,0.36586 z m 2.59862,-4.23226 c 0.60859,-0.67249 0.60368,-1.85483 -0.01,-2.30324 -1.06683,-0.78009 -2.56219,-0.1573 -2.56219,1.0671 0,0.88846 0.75185,1.75653 1.52135,1.75653 0.31869,0 0.79138,-0.23418 1.0504,-0.52039 z m 18.41063,-22.87626 c 9.04321,-11.30826 10.08843,-12.71173 9.65526,-12.96458 -0.26716,-0.15596 -1.01403,-0.67718 -1.6597,-1.15827 -0.64567,-0.48109 -1.26929,-0.83827 -1.38581,-0.79375 -0.11653,0.0445 -4.8888,5.90695 -10.60504,13.02761 -10.27812,12.80333 -10.3867,12.95124 -9.80953,13.36146 0.32099,0.22814 1.07444,0.80868 1.67432,1.29008 1.04705,0.84023 1.10868,0.85611 1.54009,0.39687 0.24717,-0.26311 5.01285,-6.18485 10.59041,-13.15942 z m -49.439555,-20.1768 c 0.408146,-0.39103 0.742082,-0.83717 0.742082,-0.99142 0,-0.3845 -33.656037,-34.01637 -34.040807,-34.01637 -0.169392,0 -0.625495,0.37734 -1.013563,0.83853 l -0.705577,0.83853 17.01931,17.02084 c 9.360619,9.36147 17.07267,17.02085 17.137889,17.02085 0.06522,0 0.452522,-0.31993 0.860666,-0.71096 z m -16.364626,-7.42903 1.017246,-0.40419 -5.508421,-5.51311 -5.50842,-5.51311 -0.454981,1.12009 c -0.967489,2.38181 -0.512126,5.59881 1.116198,7.88558 1.87284,2.63016 6.075216,3.72132 9.338378,2.42474 z m 27.589421,-21.34983 c -1.332097,-2.03304 -1.661614,-6.61341 -0.66834,-9.28999 1.91919,-5.17159 6.48574,-8.096851 12.02909,-7.705654 l 2.18116,0.15393 1.48143,-1.553127 c 2.40228,-2.51853 2.52812,-2.25214 -4.27994,-9.0602 -5.20333,-5.20332 -5.84689,-5.76138 -6.64425,-5.76138 -0.79339,0 -1.44977,0.55827 -6.475591,5.50753 -3.076003,3.02913 -6.128512,5.87169 -6.783355,6.31678 -0.654844,0.4451 -7.530703,3.97959 -15.279687,7.854411 -7.748984,3.87484 -14.089062,7.13383 -14.089062,7.24219 0,0.10837 6.339747,6.53761 14.088329,14.28721 l 14.088329,14.09017 5.372081,-10.7416 c 5.081286,-10.16017 5.350836,-10.77401 4.979806,-11.34027 z m 42.9631,19.46427 c 0,-0.12979 0.55099,-0.8488 1.22442,-1.59781 0.67343,-0.74902 1.17944,-1.39677 1.12448,-1.43946 -1.08302,-0.84113 -24.1325,-16.8351 -24.26167,-16.8351 -0.10108,0 -0.50702,0.50602 -0.90208,1.12448 -0.39506,0.61846 -0.90413,1.3764 -1.13126,1.6843 -0.40363,0.54716 -0.14489,0.74864 11.43584,8.9052 6.51685,4.58995 11.99764,8.35639 12.17955,8.36986 0.1819,0.0135 0.33072,-0.0817 0.33072,-0.21147 z m -29.83312,-17.75317 c 2.52811,-0.94589 4.52438,-3.56879 4.85229,-6.37543 0.25321,-2.16725 -0.37767,-4.07736 -1.90936,-5.78097 -1.57866,-1.75584 -2.94203,-2.4443 -5.15514,-2.60317 -4.6013,-0.33031 -8.24396,3.03487 -8.24773,7.61946 -0.004,5.44929 5.30047,9.07052 10.45994,7.14011 z m -4.95958,-2.08714 c -2.29898,-1.05461 -3.42282,-2.92608 -3.25723,-5.42408 0.14214,-2.14425 1.08716,-3.59668 2.9414,-4.52068 1.76799,-0.88103 3.14437,-0.86523 4.96345,0.057 1.97772,1.00264 2.9812,2.62796 2.9812,4.82865 0,2.20068 -1.00348,3.82601 -2.9812,4.82864 -1.68801,0.85576 -3.12881,0.92722 -4.64762,0.2305 z m 3.16853,-3.83106 c 1.09625,-0.80161 0.3699,-2.81558 -1.01546,-2.81558 -0.75096,0 -1.49161,0.76544 -1.49161,1.54153 0,1.35819 1.41122,2.07535 2.50707,1.27405 z m 40.30794,34.90898 c -2.75668,-0.72814 -4.36446,-2.9632 -4.11451,-5.71976 0.26961,-2.97323 2.4707,-5.0173 5.40273,-5.0173 3.06643,0 5.18759,1.92101 5.55601,5.03175 0.12644,1.06756 0.0291,1.55417 -0.54612,2.72986 -1.21659,2.48662 -3.70249,3.66104 -6.29811,2.97545 z m 2.26076,-4.14168 c 1.49372,-1.17496 0.23718,-3.15849 -1.60443,-2.53268 -1.11219,0.37794 -1.11616,2.36428 -0.006,2.81115 0.82635,0.33251 0.83527,0.33096 1.61005,-0.27847 z"
       style="fill:#424242;stroke-width:0.16458332" />
  </g>
</svg>
