<?xml version="1.0" encoding="UTF-8" standalone="no"?>
<svg
   xmlns:dc="http://purl.org/dc/elements/1.1/"
   xmlns:cc="http://creativecommons.org/ns#"
   xmlns:rdf="http://www.w3.org/1999/02/22-rdf-syntax-ns#"
   xmlns:svg="http://www.w3.org/2000/svg"
   xmlns="http://www.w3.org/2000/svg"
   id="svg8"
   version="1.1"
   viewBox="0 0 133.87915 135.32233"
   height="135.32233mm"
   width="133.87915mm">
  <defs
     id="defs2" />
  <metadata
     id="metadata5">
    <rdf:RDF>
      <cc:Work
         rdf:about="">
        <dc:format>image/svg+xml</dc:format>
        <dc:type
           rdf:resource="http://purl.org/dc/dcmitype/StillImage" />
        <dc:title></dc:title>
      </cc:Work>
    </rdf:RDF>
  </metadata>
  <g
     transform="translate(-40.405655,-78.208484)"
     id="layer1">
    <path
       id="path21"
       d="m 42.654613,212.32498 c -0.873125,-0.65413 -1.625866,-1.29858 -1.672759,-1.43213 -0.04689,-0.13355 7.299889,-10.39685 16.326181,-22.80734 l 16.411441,-22.56454 -15.974329,-0.13229 -15.974327,-0.13229 -0.682583,-0.64143 -0.682582,-0.64144 v -42.25789 c 0,-41.212646 0.01251,-42.273346 0.50579,-42.882526 l 0.50579,-0.62462 h 65.927995 65.928 l 0.50579,0.62462 c 0.49328,0.60918 0.50579,1.66988 0.50579,42.882526 v 42.25789 l -0.68258,0.64144 -0.68258,0.64143 -15.97418,0.13229 -15.97417,0.13229 16.27929,22.35729 c 8.95361,12.29651 16.34867,22.52136 16.43347,22.72188 0.15362,0.36325 -0.0786,0.58755 -2.21224,2.13686 l -1.0932,0.79381 -17.50622,-24.07107 -17.50622,-24.07106 H 122.41404 109.4619 v 23.41563 23.41562 h -2.11667 -2.11666 V 188.80431 165.38868 H 92.277276 79.32598 l -17.250096,23.74636 c -9.487553,13.06049 -17.381424,23.88875 -17.541934,24.0628 -0.222332,0.24108 -0.66992,0.0332 -1.879337,-0.87286 z m 127.331597,-90.65869 0.067,-39.092186 h -62.7071 -62.707122 v 38.981946 c 0,21.44007 0.07962,39.06156 0.176939,39.15888 0.09732,0.0973 28.285363,0.14692 62.640103,0.11024 l 62.46316,-0.0667 z M 59.454448,151.55214 c -4.830824,-1.36262 -7.178983,-7.12416 -4.650703,-11.41117 3.12341,-5.29612 10.876566,-5.05116 13.676439,0.43211 0.798332,1.56345 0.968295,4.2234 0.382547,5.98692 -1.226134,3.69155 -5.666397,6.0476 -9.408283,4.99214 z m 3.430567,-4.54671 c 1.755389,-0.90775 2.447331,-3.23209 1.42614,-4.79062 -0.951555,-1.45226 -3.385078,-1.90851 -4.692814,-0.87985 -1.446127,1.13753 -1.822461,2.66593 -1.022583,4.153 0.912773,1.69697 2.711538,2.33334 4.289257,1.51747 z m 42.155715,-2.77697 c -3.88974,-1.96707 -5.401082,-6.29837 -3.5575,-10.19531 1.14791,-2.42644 2.95935,-3.83563 5.53144,-4.30312 7.39704,-1.34445 12.21037,7.59206 6.99823,12.99305 -1.50847,1.56314 -2.77121,2.10285 -5.21246,2.22787 -1.95821,0.10029 -2.23966,0.0462 -3.75971,-0.72249 z m 4.8422,-3.98689 c 2.56976,-1.24399 2.53162,-4.7109 -0.0654,-5.94325 -1.27871,-0.60679 -2.59344,-0.32686 -3.71028,0.78998 -0.76399,0.76399 -0.87871,1.05374 -0.87871,2.21927 0,1.17621 0.11217,1.45274 0.91501,2.25557 0.79694,0.79694 1.24042,1.0179 2.37489,1.18326 0.13596,0.0198 0.74996,-0.20735 1.36446,-0.50483 z m -40.64154,-4.09324 -1.440979,-1.4591 3.367458,-3.36746 3.367455,-3.36745 1.518721,1.51872 1.518719,1.51872 -3.299896,3.30783 c -1.814944,1.81932 -3.365283,3.30784 -3.445198,3.30784 -0.07992,0 -0.793742,-0.65659 -1.58628,-1.4591 z m 26.416784,-4.5707 c -1.261893,-0.83095 -2.376082,-1.59314 -2.475976,-1.69374 -0.226298,-0.22791 1.664314,-3.38127 2.135712,-3.56216 0.251087,-0.0964 3.970056,2.14 5.35735,3.22157 0.17367,0.1354 -2.180639,3.56539 -2.440587,3.55569 -0.15518,-0.006 -1.314606,-0.6904 -2.576499,-1.52136 z m -14.322011,-2.55432 c -5.338323,-1.90414 -6.936877,-8.69767 -3.012887,-12.80416 2.505228,-2.62175 6.723975,-3.02883 9.839668,-0.94947 4.251428,2.83734 4.6394,8.84324 0.790136,12.23149 -0.669002,0.58888 -1.76675,1.25822 -2.439445,1.48744 -1.483998,0.50564 -3.813389,0.52126 -5.177472,0.0347 z m 4.415136,-4.6684 c 0.867516,-0.68239 1.485604,-1.83758 1.485604,-2.77654 0,-1.53619 -1.824427,-3.28552 -3.426563,-3.28552 -1.701485,0 -3.18802,1.61637 -3.18802,3.46645 0,1.11056 0.122742,1.40115 0.93486,2.21327 0.81212,0.81212 1.102712,0.93486 2.213276,0.93486 0.895805,0 1.488644,-0.16536 1.980843,-0.55252 z m 30.491711,3.38336 -1.55326,-1.38967 3.51563,-4.22631 c 1.9336,-2.32447 3.55158,-4.27221 3.59553,-4.3283 0.11393,-0.14544 1.103,0.56133 2.42948,1.73606 l 1.14245,1.01176 -3.59586,4.29948 c -1.97773,2.36471 -3.68246,4.29659 -3.78829,4.29306 -0.10583,-0.004 -0.89138,-0.63177 -1.74568,-1.39608 z m 11.85199,-9.98966 c -3.1101,-1.19654 -5.00708,-3.96115 -4.97687,-7.25315 0.0292,-3.18015 1.51053,-5.57888 4.28739,-6.94252 2.06873,-1.0159 4.86089,-1.04867 6.7608,-0.0793 4.96603,2.53365 5.90998,8.97905 1.85744,12.68284 -2.29544,2.0979 -5.13312,2.66773 -7.92876,1.59217 z m 4.37511,-4.38641 c 2.79496,-1.65102 1.64809,-6.18185 -1.56478,-6.18185 -1.75243,0 -3.44857,1.59956 -3.45078,3.25429 -0.003,2.45912 2.92001,4.16543 5.01556,2.92756 z m 8.08451,-7.49646 c -0.51162,-1.01595 -0.93022,-1.94732 -0.93022,-2.06972 0,-0.25307 3.11325,-1.79767 3.27285,-1.62378 0.24356,0.26536 1.75423,3.42912 1.75423,3.67384 0,0.14758 -0.71249,0.62799 -1.58332,1.06758 l -1.58332,0.79926 z m 10.90577,1.02673 c -2.30431,-0.54289 -4.10962,-1.98661 -5.26446,-4.21003 -0.87762,-1.6897 -0.88086,-5.170326 -0.006,-6.823936 2.90374,-5.49065 10.57118,-5.73253 13.69714,-0.43211 2.63552,4.46886 -0.0176,10.399286 -5.12796,11.462306 -1.59091,0.33093 -1.9082,0.33129 -3.29838,0.004 z m 3.3843,-4.74337 c 0.90365,-0.55849 1.71304,-1.9255 1.71304,-2.893226 0,-1.5842 -1.62182,-3.18802 -3.22382,-3.18802 -2.07125,0 -3.39076,1.26051 -3.39076,3.23911 0,1.302416 0.49268,2.141236 1.68452,2.867986 1.06791,0.65117 2.13544,0.6426 3.21702,-0.0258 z"
       style="fill:#424242;stroke-width:0.16458332" />
  </g>
</svg>
