<?xml version="1.0" encoding="UTF-8" standalone="no"?>
<svg
   xmlns:dc="http://purl.org/dc/elements/1.1/"
   xmlns:cc="http://creativecommons.org/ns#"
   xmlns:rdf="http://www.w3.org/1999/02/22-rdf-syntax-ns#"
   xmlns:svg="http://www.w3.org/2000/svg"
   xmlns="http://www.w3.org/2000/svg"
   id="svg8"
   version="1.1"
   viewBox="0 0 135.76923 137.37057"
   height="137.37057mm"
   width="135.76923mm">
  <defs
     id="defs2" />
  <metadata
     id="metadata5">
    <rdf:RDF>
      <cc:Work
         rdf:about="">
        <dc:format>image/svg+xml</dc:format>
        <dc:type
           rdf:resource="http://purl.org/dc/dcmitype/StillImage" />
        <dc:title></dc:title>
      </cc:Work>
    </rdf:RDF>
  </metadata>
  <g
     transform="translate(-40.972529,-74.100426)"
     id="layer1">
    <path
       id="path21"
       d="m 55.922224,204.43188 v -7.03916 h -3.41373 -3.41375 V 169.9385 142.48426 l -3.36574,-3.30485 c -3.82185,-3.75269 -5.1525,-7.2775 -4.65737,-12.33709 0.70215,-7.17531 7.51019,-13.24884 14.85108,-13.24884 h 3.25829 l 0.26539,-9.21792 c 0.24977,-8.675335 0.39238,-9.483225 2.42271,-13.725185 3.93213,-8.21544 11.3072,-14.0879 19.99754,-15.92324 2.6324,-0.55597 11.51201,-0.72709 29.699536,-0.57238 l 25.9444,0.22069 4.43787,2.13363 c 4.88031,2.34639 10.11011,7.03548 12.75078,11.43243 2.66306,4.43431 3.61814,9.11478 3.62708,17.774825 l 0.008,7.87715 h 3.33577 c 4.89702,0 10.06941,2.84109 12.65852,6.95307 4.12388,6.54958 2.87576,14.41497 -3.08211,19.42242 l -2.67096,2.24487 v 27.58944 27.58944 h -3.41375 -3.41375 v 7.03916 7.03912 h -6.82745 -6.82746 v -7.03912 -7.03916 H 108.83561 69.577634 v 7.03916 7.03912 h -6.82749 -6.82747 z m 9.4177,-2.17879 0.2006,-4.86037 h -2.76091 -2.7609 v 4.58104 c 0,2.51956 0.21938,4.79643 0.48752,5.05974 0.26814,0.26328 1.42028,0.38899 2.5603,0.27932 l 2.07278,-0.1994 z m 92.170956,0 0.2005,-4.86037 h -2.76092 -2.76089 v 4.58104 c 0,2.51956 0.21934,4.79643 0.48751,5.05974 0.26813,0.26328 1.42028,0.38899 2.56031,0.27932 l 2.07278,-0.1994 z m 6.28549,-36.35527 V 139.0957 l 2.68588,-1.34544 c 6.88321,-3.448 7.95407,-11.83891 2.16614,-16.97333 -4.28292,-3.79935 -9.64061,-3.9204 -13.56939,-0.30661 -3.13238,2.88123 -3.57209,6.46469 -3.57209,29.11092 v 20.99573 H 108.83517 66.163444 v -20.41403 c 0,-12.19213 -0.29949,-21.78523 -0.7436,-23.81856 -1.85281,-8.48303 -10.00703,-11.23672 -16.42225,-5.54584 -5.76321,5.11252 -4.67794,13.51108 2.19052,16.95172 l 2.68587,1.34544 v 26.80212 26.80215 h 54.961186 54.9612 z m -16.64324,-1.77977 c 0.24824,-0.9714 0.25262,-5.11945 0.0103,-9.21794 -0.51196,-8.63279 -0.95193,-9.30797 -7.67447,-11.77769 -17.17037,-6.30802 -57.600256,-4.98043 -66.749096,2.19181 -1.86399,1.46128 -1.86736,1.47985 -2.00244,11.01718 l -0.13529,9.55342 38.050196,-2.5e-4 38.05018,-2.4e-4 z m 0.13366,-30.18734 c 0.10865,-3.99551 0.50106,-8.40037 0.87231,-9.7886 0.89333,-3.3404 3.17182,-7.057 4.87511,-7.95207 1.29687,-0.68151 1.35557,-1.2374 1.07801,-10.20619 -0.26134,-8.444805 -0.48855,-9.902825 -2.071,-13.290025 -3.53975,-7.57677 -9.72778,-12.36112 -18.07284,-13.97318 -6.53624,-1.2627 -49.255436,-0.51725 -53.808586,0.93892 -6.64722,2.12588 -12.6084,7.90611 -15.11138,14.65271 -0.65096,1.75463 -1.20334,6.256095 -1.43195,11.669225 l -0.37219,8.81266 2.46615,2.42152 c 3.25869,3.19973 4.52885,7.68405 4.73049,16.70111 0.13609,6.08542 0.31573,7.10742 1.18454,6.73888 10.79798,-4.58046 19.18159,-5.87993 37.551136,-5.82053 12.95076,0.0418 15.60353,0.24324 22.53068,1.71128 4.31838,0.9151 9.38778,2.39799 11.26532,3.29535 1.87755,0.89736 3.57196,1.56902 3.76534,1.49252 0.19328,-0.0765 0.44039,-3.40808 0.54886,-7.40358 z"
       style="fill:#424242;stroke-width:0.99999994"/>
  </g>
</svg>
