<svg id="Layer_2" data-name="Layer 2" xmlns="http://www.w3.org/2000/svg" xmlns:xlink="http://www.w3.org/1999/xlink" width="1920" height="1080" viewBox="0 0 1920 1080"><defs><style>.cls-1,.cls-10,.cls-4,.cls-9{fill:none;}.cls-2{clip-path:url(#clip-path);}.cls-3{fill:#a9e9ff;}.cls-4{stroke:#fff;stroke-width:21px;}.cls-10,.cls-4,.cls-9{stroke-miterlimit:10;}.cls-5{fill:#fff;}.cls-6{font-size:77.12px;fill:#4d4d4d;font-family:Comfortaa-Bold, Comfortaa;font-weight:700;letter-spacing:0.12em;}.cls-7{letter-spacing:0.15em;}.cls-8{letter-spacing:0.12em;}.cls-10,.cls-9{stroke:#4d4d4d;}.cls-9{stroke-width:5px;}.cls-10{stroke-width:6px;}.cls-11{fill:#ffff24;}</style><clipPath id="clip-path"><rect class="cls-1" width="1920" height="1080"/></clipPath></defs><title>StartupHome</title><g class="cls-2"><polyline class="cls-3" points="2019.5 1080 -44.85 1080 -44.85 0 2019.5 0"/><path class="cls-4" d="M-84.44,424.89a93.93,93.93,0,0,1,32.89-21.31,173.44,173.44,0,0,1,319.32-87.73,107.5,107.5,0,0,1,133.09,81.58H415.1a93.79,93.79,0,1,1,0,187.57H-18.11a93.8,93.8,0,0,1-93.8-93.79,93.6,93.6,0,0,1,27.47-66.32"/><path class="cls-3" d="M-2.68,733.5c-44.51,0-80.73-34.9-80.73-77.8v-1c0-2.43.11-4.82.34-7.11l.1-1-.09-1c-.23-2.46-.35-5-.35-7.61,0-52.65,48.79-95.48,108.76-95.48,2.69,0,5.33.08,7.85.25l7.24.49,3-6.61C51.78,518.42,68.2,502,89.71,490.35c22.8-12.33,49.92-18.85,78.4-18.85,72.3,0,131.12,42.34,131.12,94.38v11h15.59c44.51,0,80.73,34.9,80.73,77.8v1c0,42.9-36.22,77.8-80.73,77.8Z"/><path class="cls-5" d="M168.11,482c33.36,0,64.49,9.44,87.64,26.59,21.27,15.75,33,36.1,33,57.29v21.55h26.09c38.72,0,70.23,30.19,70.23,67.3v1c0,37.11-31.51,67.3-70.23,67.3H-2.68c-38.72,0-70.23-30.19-70.23-67.3v-1c0-2.09.1-4.13.29-6.08l.2-2-.19-2c-.2-2.13-.3-4.36-.3-6.63,0-46.86,44.08-85,98.26-85,2.46,0,4.86.07,7.15.23l14.48,1L53,541c7.38-16.18,22.18-30.9,41.69-41.44C116,488.08,141.36,482,168.11,482m0-21c-62.36,0-115.3,29.85-134.21,71.3q-4.23-.27-8.55-.27c-65.87,0-119.26,47.45-119.26,106q0,4.34.39,8.58c-.26,2.68-.39,5.4-.39,8.14v1c0,48.77,40.85,88.3,91.23,88.3h317.5c50.38,0,91.23-39.53,91.23-88.3v-1c0-48.77-40.85-88.3-91.23-88.3h-5.09v-.55C309.73,508,246.33,461,168.11,461Z"/><path class="cls-3" d="M1514.1,1128.5c-89,0-161.43-67.36-161.43-150.15,0-39.94,16.68-77.53,47-105.85a164.57,164.57,0,0,1,76.64-40.15l9.55-2.14.94-9.74c2.22-22.94,13.18-44.68,30.86-61.22,20.44-19.12,47.55-29.65,76.34-29.65h21.73a113.61,113.61,0,0,1,53,13.07l11,5.82,6.7-10.48a172.27,172.27,0,0,1,29.35-34.63c34-30.88,78.69-47.88,125.78-47.88,1.72,0,3.47,0,5.19.07l14,.36c47.4,1.27,91.73,19.63,124.82,51.71,32.8,31.81,50.72,73.39,50.44,117.08l0,9.68,9.15,3.16C2075.78,848.16,2102,867,2121,892a142.12,142.12,0,0,1,29.39,86.39c0,39.94-16.68,77.53-47,105.85-30.53,28.57-71.18,44.3-114.47,44.3Z"/><path class="cls-5" d="M1841.57,642v27c1.59,0,3.21,0,4.82.06l14,.37c44,1.17,85.14,18.18,115.79,47.91,30.13,29.21,46.59,67.32,46.35,107.3L2022.4,844l18.3,6.32c28.14,9.72,52.17,26.94,69.49,49.79a128.74,128.74,0,0,1,26.65,78.24c0,36.16-15.16,70.25-42.69,96-28,26.21-65.39,40.65-105.24,40.65H1514.1c-81.57,0-147.93-61.3-147.93-136.65,0-36.16,15.16-70.25,42.69-96a151.1,151.1,0,0,1,70.35-36.83l19.11-4.27,1.88-19.48c1.9-19.66,11.36-38.37,26.64-52.66,17.93-16.77,41.77-26,67.12-26h21.73a100,100,0,0,1,46.71,11.5l22,11.65,13.41-21a158.29,158.29,0,0,1,27-31.9c31.53-28.62,73-44.38,116.71-44.38l0-27m0,0c-52.08,0-99.79,19.57-134.85,51.38a185.42,185.42,0,0,0-31.65,37.36,126.58,126.58,0,0,0-59.36-14.64H1594a125.09,125.09,0,0,0-85.56,33.29c-19.53,18.27-32.46,42.69-35.07,69.78a178.14,178.14,0,0,0-82.92,43.47c-31.66,29.61-51.24,70.52-51.24,115.71,0,90.38,78.32,163.65,174.93,163.65h474.81c48.31,0,92-18.32,123.69-47.94s51.24-70.52,51.24-115.71c0-70.45-47.58-130.49-114.33-153.55.61-97.91-83.27-179.57-188.41-182.36l-14-.37c-1.86-.05-3.7-.07-5.55-.07Z"/><path class="cls-3" d="M1695.78,343c-52.21,0-94.68-38.32-94.68-85.42,0-22.58,9.78-43.91,27.55-60.06A99.22,99.22,0,0,1,1685,172.7l5-.52,1.68-4.79a108.31,108.31,0,0,1,29.48-43.91c22.85-20.8,53.3-32.26,85.71-32.26a132.3,132.3,0,0,1,23.3,2l4.64.82,3-3.65a114.31,114.31,0,0,1,11.56-12.19c22.85-20.8,53.29-32.25,85.71-32.25s62.86,11.45,85.71,32.25c22.65,20.61,35.12,47.94,35.12,77a99.33,99.33,0,0,1-5.34,32.21l-1.74,5.1,4.07,3.53c18.81,16.32,29.17,38.16,29.17,61.51,0,22.58-9.78,43.91-27.54,60.06-18,16.35-41.81,25.36-67.13,25.36Z"/><path class="cls-5" d="M1935.13,54c30.42,0,58.95,10.71,80.33,30.17,21,19.07,32.5,44.31,32.5,71.06a91.52,91.52,0,0,1-4.91,29.63l-3.48,10.19,8.14,7.06c17,14.78,26.41,34.47,26.41,55.47,0,20.3-8.85,39.52-24.93,54.15-16.49,15-38.41,23.27-61.74,23.27H1695.78c-23.33,0-45.26-8.27-61.75-23.28-16.07-14.62-24.93-33.85-24.93-54.14s8.86-39.53,24.94-54.15a91.21,91.21,0,0,1,51.82-22.77l10.09-1,3.36-9.58a100.42,100.42,0,0,1,27.31-40.65c21.38-19.45,49.91-30.17,80.33-30.17a124.88,124.88,0,0,1,21.89,1.92l9.28,1.66,6-7.31a103,103,0,0,1,10.73-11.32C1876.18,64.71,1904.71,54,1935.13,54m0-16c-35.58,0-67.78,13.12-91.1,34.33a120.91,120.91,0,0,0-12.37,13.06A140.28,140.28,0,0,0,1807,83.22c-35.57,0-67.78,13.12-91.1,34.34a115.88,115.88,0,0,0-31.64,47.19,106.83,106.83,0,0,0-61,26.85c-18.61,16.92-30.16,40.28-30.16,66,0,51.39,46.2,93.42,102.68,93.42h291.67c28.24,0,53.91-10.51,72.51-27.44s30.16-40.29,30.16-66c0-26.5-12.28-50.51-31.93-67.55a107.32,107.32,0,0,0,5.77-34.8c0-32.37-14.41-61.68-37.73-82.9S1970.7,38,1935.13,38Z"/><text class="cls-6" transform="translate(686 376.03) scale(1.14 1)">STARTUP<tspan class="cls-7"><tspan x="0" y="92.54">	</tspan><tspan class="cls-8" x="34.27" y="92.54" xml:space="preserve"> PROJECT</tspan><tspan x="0" y="185.08">	</tspan></tspan></text><text class="cls-6" transform="translate(1050.13 559.07) scale(1.14 1)">PH</text><rect class="cls-9" x="1052.54" y="580.59" width="53.19" height="3.81" rx="1.63" ry="1.63"/><line class="cls-10" x1="804" y1="661" x2="803.41" y2="661.34"/><line class="cls-10" x1="804" y1="661" x2="803.35" y2="661.83"/><line class="cls-10" x1="803.5" y1="660.5" x2="803.41" y2="661.34"/><path class="cls-11" d="M1300.43,225.43c.31-.12.56-.15.54-.06s-.41,2.37-.87,5.08l-12,70.27a3.73,3.73,0,0,1-5.42,2.92l-26.36-11.5-9.16-4-8.75-3.82c-2.52-1.1-2.87-3.46-.79-5.25l58.45-50.18,3.8-3.26Z"/><path class="cls-11" d="M1295.18,227.41c2.57-1,3-.3.88,1.49l-58.45,50.18a13.57,13.57,0,0,1-8.77,2.79l-57.78-5.37c-2.74-.26-2.87-1.26-.3-2.23Z"/><path class="cls-11" d="M1249.44,289.6c2.55,1,3.09,3.51,1.21,5.51l-13.94,14.8c-1.89,2-3.43,1.38-3.43-1.37V288.08c0-2.75,2.08-4.16,4.63-3.13Z"/><path class="cls-10" d="M1299.86,225.64l.57-.21c.31-.12.56-.15.54-.06s-.41,2.37-.87,5.08l-12,70.27a3.73,3.73,0,0,1-5.42,2.92l-26.36-11.5-9.16-4-8.75-3.82a37.16,37.16,0,0,0-9.56-2.46l-57.78-5.37c-2.74-.26-2.87-1.26-.3-2.23l129.1-48.63"/><line class="cls-10" x1="1233.82" y1="282.33" x2="1299.86" y2="225.64"/><line class="cls-10" x1="1299.86" y1="225.64" x2="1299.86" y2="225.64"/><line class="cls-10" x1="1299.86" y1="225.64" x2="1300.61" y2="225"/><path class="cls-10" d="M1249.44,289.6c2.55,1,3.09,3.51,1.21,5.51l-13.94,14.8c-1.89,2-3.43,1.38-3.43-1.37V288.08c0-2.75,2.08-4.16,4.63-3.13Z"/><line class="cls-10" x1="752" y1="764" x2="751.77" y2="764.4"/></g></svg>