<svg xmlns="http://www.w3.org/2000/svg" xmlns:xlink="http://www.w3.org/1999/xlink" width="1920" height="1080" viewBox="0 0 1920 1080"><defs><style>.cls-1,.cls-13,.cls-14,.cls-4{fill:none;}.cls-2{clip-path:url(#clip-path);}.cls-3{fill:#a9e9ff;}.cls-4{stroke:#fff;stroke-width:21px;}.cls-13,.cls-14,.cls-4{stroke-miterlimit:10;}.cls-5{fill:#fff;}.cls-10,.cls-11,.cls-12,.cls-6,.cls-7{isolation:isolate;}.cls-10,.cls-11,.cls-12,.cls-7{font-size:65.99px;fill:#4d4d4d;font-family:Comfortaa-Bold, Comfortaa;font-weight:700;}.cls-7{letter-spacing:0.08em;}.cls-8{letter-spacing:0.04em;}.cls-11,.cls-9{letter-spacing:0.12em;}.cls-10{letter-spacing:0.15em;}.cls-12{letter-spacing:0.12em;}.cls-13,.cls-14{stroke:#4d4d4d;}.cls-13{stroke-width:5px;}.cls-14{stroke-width:6px;}.cls-15{fill:#ffff24;}</style><clipPath id="clip-path"><rect class="cls-1" width="1920" height="1080"/></clipPath></defs><title>StartupHomeS</title><g id="Layer_2" data-name="Layer 2"><g class="cls-2"><rect class="cls-1" width="1920" height="1080"/><polyline class="cls-3" points="2019.5 1080 -44.85 1080 -44.85 0 2019.5 0"/><path class="cls-4" d="M158.56,424.89a93.83,93.83,0,0,1,32.89-21.31,173.44,173.44,0,0,1,319.32-87.73,107.5,107.5,0,0,1,131.73,75.9c.5,1.88,1,3.77,1.36,5.68H658.1A93.79,93.79,0,0,1,660,585H224.89a93.79,93.79,0,0,1-66.33-160.11"/><path class="cls-3" d="M507.32,792.5c-44.51,0-80.73-34.9-80.73-77.8v-1c0-2.43.11-4.82.34-7.11l.1-1-.09-1q-.35-3.69-.35-7.61c0-52.65,48.79-95.48,108.76-95.48,2.69,0,5.33.08,7.85.25l7.24.49,3-6.61c8.33-18.24,24.75-34.69,46.26-46.31,22.8-12.33,49.92-18.85,78.4-18.85,72.3,0,131.12,42.34,131.12,94.38v11h15.59c44.51,0,80.73,34.9,80.73,77.8v1c0,42.9-36.22,77.8-80.73,77.8Z"/><path class="cls-5" d="M678.11,541c33.36,0,64.49,9.44,87.64,26.59,21.27,15.75,33,36.1,33,57.29v21.55h26.09c38.72,0,70.23,30.19,70.23,67.3v1c0,37.11-31.51,67.3-70.23,67.3H507.32c-38.72,0-70.23-30.19-70.23-67.3v-1c0-2.09.1-4.13.29-6.08l.2-2-.19-2c-.2-2.13-.3-4.36-.3-6.63,0-46.86,44.08-85,98.26-85,2.46,0,4.86.07,7.15.23l14.48,1L563,600c7.38-16.18,22.18-30.9,41.69-41.44C626,547.08,651.36,541,678.11,541m0-21c-62.36,0-115.3,29.85-134.21,71.3q-4.23-.27-8.55-.27c-65.87,0-119.26,47.45-119.26,106q0,4.34.39,8.58c-.26,2.68-.39,5.4-.39,8.14v1c0,48.77,40.85,88.3,91.23,88.3h317.5c50.38,0,91.23-39.53,91.23-88.3v-1c0-48.77-40.85-88.3-91.23-88.3h-5.09v-.55C819.73,567,756.33,520,678.11,520Z"/><path class="cls-3" d="M1091.1,1112.5c-89,0-161.43-67.36-161.43-150.15,0-39.94,16.68-77.53,47-105.85a164.59,164.59,0,0,1,76.64-40.15l9.55-2.14.94-9.74c2.22-22.94,13.18-44.68,30.86-61.22,20.44-19.12,47.55-29.65,76.34-29.65h21.73a113.53,113.53,0,0,1,53,13.07l11,5.82,6.7-10.48a172.09,172.09,0,0,1,29.35-34.63c34-30.88,78.69-47.88,125.78-47.88,1.72,0,3.47,0,5.19.07l14,.36c47.4,1.27,91.73,19.63,124.82,51.71,32.8,31.81,50.72,73.39,50.44,117.08v9.68l9.15,3.16A160.71,160.71,0,0,1,1698,876a142.07,142.07,0,0,1,29.39,86.39c0,39.94-16.68,77.53-47,105.85-30.53,28.57-71.18,44.3-114.47,44.3Z"/><path class="cls-5" d="M1418.57,626v27c1.59,0,3.21,0,4.82.06l14,.37c44,1.17,85.14,18.18,115.79,47.91,30.13,29.21,46.59,67.32,46.35,107.3L1599.4,828l18.3,6.32c28.14,9.72,52.17,26.94,69.49,49.79a128.73,128.73,0,0,1,26.65,78.24c0,36.16-15.16,70.25-42.69,96-28,26.21-65.39,40.65-105.24,40.65H1091.1c-81.57,0-147.93-61.3-147.93-136.65,0-36.16,15.16-70.25,42.69-96a151.17,151.17,0,0,1,70.35-36.83l19.11-4.27,1.88-19.48c1.9-19.66,11.36-38.37,26.64-52.66,17.93-16.77,41.77-26,67.12-26h21.73a100,100,0,0,1,46.71,11.5l22,11.65,13.41-21a158.19,158.19,0,0,1,27-31.9c31.53-28.62,73-44.38,116.71-44.38V626m0,0c-52.08,0-99.79,19.57-134.85,51.38A185.15,185.15,0,0,0,1252,714.72a126.57,126.57,0,0,0-59.36-14.64H1171a125.08,125.08,0,0,0-85.56,33.29c-19.53,18.27-32.46,42.69-35.07,69.78a178.21,178.21,0,0,0-82.92,43.47c-31.66,29.61-51.24,70.52-51.24,115.71,0,90.38,78.32,163.65,174.93,163.65H1566c48.31,0,92-18.32,123.69-47.94s51.24-70.52,51.24-115.71c0-70.45-47.58-130.49-114.33-153.55.61-97.91-83.27-179.57-188.41-182.36l-14-.37c-1.86,0-3.7-.07-5.55-.07Z"/><path class="cls-3" d="M1140.78,315c-52.21,0-94.68-38.32-94.68-85.42,0-22.58,9.78-43.91,27.55-60.06A99.24,99.24,0,0,1,1130,144.7l5-.52,1.68-4.79a108.39,108.39,0,0,1,29.48-43.91c22.85-20.8,53.3-32.26,85.71-32.26a132.81,132.81,0,0,1,23.3,2l4.64.82,3-3.65a113.83,113.83,0,0,1,11.56-12.19C1317.22,29.4,1347.66,18,1380.08,18s62.86,11.45,85.71,32.25c22.65,20.61,35.12,47.94,35.12,77a99.41,99.41,0,0,1-5.34,32.21l-1.74,5.1,4.07,3.53c18.81,16.32,29.17,38.16,29.17,61.51,0,22.58-9.78,43.91-27.54,60.06-18,16.35-41.81,25.36-67.13,25.36Z"/><path class="cls-5" d="M1380.13,26c30.42,0,58.95,10.71,80.33,30.17,21,19.07,32.5,44.31,32.5,71.06a91.34,91.34,0,0,1-4.91,29.63l-3.48,10.19,8.14,7.06c17,14.78,26.41,34.47,26.41,55.47,0,20.3-8.85,39.52-24.93,54.15-16.49,15-38.41,23.27-61.74,23.27H1140.78c-23.33,0-45.26-8.27-61.75-23.28-16.07-14.62-24.93-33.85-24.93-54.14s8.86-39.53,24.94-54.15a91.21,91.21,0,0,1,51.82-22.77l10.09-1,3.36-9.58a100.4,100.4,0,0,1,27.31-40.65C1193,81.94,1221.53,71.22,1252,71.22a125.52,125.52,0,0,1,21.89,1.92l9.28,1.66,6-7.31a103.43,103.43,0,0,1,10.73-11.32C1321.18,36.71,1349.71,26,1380.13,26m0-16c-35.58,0-67.78,13.11-91.1,34.33a121.17,121.17,0,0,0-12.37,13.06A140.59,140.59,0,0,0,1252,55.22c-35.57,0-67.78,13.12-91.1,34.34a115.91,115.91,0,0,0-31.64,47.19,106.82,106.82,0,0,0-61,26.85c-18.61,16.92-30.16,40.28-30.16,66,0,51.39,46.2,93.42,102.68,93.42h291.67c28.24,0,53.91-10.51,72.51-27.44s30.16-40.29,30.16-66c0-26.5-12.28-50.51-31.93-67.55a107.28,107.28,0,0,0,5.77-34.8c0-32.37-14.41-61.68-37.73-82.9S1415.7,10,1380.13,10Z"/><g class="cls-6"><text class="cls-7" transform="translate(739 417.25) scale(0.94 1)">S<tspan class="cls-8" x="50.61" y="0">T</tspan><tspan class="cls-9" x="96.81" y="0">ARTUP</tspan></text><text class="cls-10" transform="translate(739 496.44) scale(0.94 1)"> </text><text class="cls-11" transform="translate(766.57 496.44) scale(0.94 1)"><tspan xml:space="preserve"> PROJECT</tspan></text></g><text class="cls-12" transform="translate(995.96 573.89) scale(0.94 1)">PH</text><path class="cls-13" d="M999.3,592.3h34.28a1.63,1.63,0,0,1,1.63,1.63h0a1.63,1.63,0,0,1-1.63,1.63H999.3a1.63,1.63,0,0,1-1.63-1.63h0A1.63,1.63,0,0,1,999.3,592.3Z"/><line class="cls-14" x1="804" y1="661" x2="803.41" y2="661.34"/><line class="cls-14" x1="804" y1="661" x2="803.35" y2="661.83"/><line class="cls-14" x1="803.5" y1="660.5" x2="803.41" y2="661.34"/><path class="cls-15" d="M1172.6,288.36c.22-.1.39-.12.38,0s-.33,2.36-.72,5.08L1164,352.06a3.29,3.29,0,0,1-3.41,3.17,3.37,3.37,0,0,1-1.71-.56l-16.23-8.58-8.84-4.68-3.8-2a3.57,3.57,0,0,1-1.9-4.68,3.64,3.64,0,0,1,.9-1.26l39.67-41.3c1.9-2,3.46-3.61,3.47-3.61Z"/><path class="cls-15" d="M1167.64,290.63c2.51-1.15,3-.46,1.09,1.53l-39.67,41.3a11.47,11.47,0,0,1-8.44,3l-37.86-4.27c-2.74-.31-2.93-1.49-.42-2.64Z"/><path class="cls-15" d="M1135.4,342.68a3.91,3.91,0,0,1,2.06,5.13,4,4,0,0,1-.64,1l-8.54,11c-1.69,2.17-3.07,1.69-3.07-1.06V342.7c0-2.75,2-4,4.49-2.8Z"/><path class="cls-14" d="M1172.2,288.54l.4-.18c.22-.1.39-.12.38,0s-.33,2.36-.72,5.08L1164,352.06a3.29,3.29,0,0,1-3.41,3.17,3.37,3.37,0,0,1-1.71-.56l-16.23-8.58-8.84-4.68-3.8-2a31.6,31.6,0,0,0-9.39-2.9l-37.86-4.27c-2.74-.31-2.93-1.49-.42-2.64l89.85-41"/><line class="cls-14" x1="1125.59" y1="337.06" x2="1172.19" y2="288.55"/><line class="cls-14" x1="1172.19" y1="288.55" x2="1172.2" y2="288.54"/><line class="cls-14" x1="1172.2" y1="288.54" x2="1172.72" y2="288"/><path class="cls-14" d="M1135.4,342.68a3.91,3.91,0,0,1,2.06,5.13,4,4,0,0,1-.64,1l-8.54,11c-1.69,2.17-3.07,1.69-3.07-1.06V342.7c0-2.75,2-4,4.49-2.8Z"/><line class="cls-14" x1="752" y1="764" x2="751.77" y2="764.4"/></g></g></svg>