<svg xmlns="http://www.w3.org/2000/svg" xmlns:xlink="http://www.w3.org/1999/xlink" width="2066.5" height="1128" viewBox="0 0 2066.5 1128"><defs><style>.cls-1,.cls-10,.cls-12,.cls-4{fill:none;}.cls-2{clip-path:url(#clip-path);}.cls-3{fill:#a9e9ff;}.cls-4{stroke:#fff;stroke-width:21px;}.cls-10,.cls-12,.cls-4{stroke-miterlimit:10;}.cls-5{fill:#fff;}.cls-6,.cls-9{font-size:81px;}.cls-11,.cls-6,.cls-9{fill:#4d4d4d;font-family:Comfortaa-Bold, Comfortaa;font-weight:700;}.cls-6,.cls-8{letter-spacing:0.12em;}.cls-7{letter-spacing:0.15em;}.cls-9{letter-spacing:0.12em;}.cls-10,.cls-12{stroke:#4d4d4d;}.cls-10{stroke-width:5px;}.cls-11{font-size:50px;letter-spacing:0.12em;}.cls-12{stroke-width:6px;}.cls-13{fill:#ffff24;}</style><clipPath id="clip-path" transform="translate(47)"><rect class="cls-1" width="1920" height="1080"/></clipPath></defs><title>StartupHome2</title><g id="Layer_2" data-name="Layer 2"><g class="cls-2"><rect class="cls-3" x="47" width="1920" height="1080"/><path class="cls-4" d="M-2.84,411.16a82.57,82.57,0,0,1,28.93-18.75,152.54,152.54,0,0,1,280.84-77.17A94.55,94.55,0,0,1,424,387H436.5a82.5,82.5,0,1,1,0,165H55.5A82.51,82.51,0,0,1-2.84,411.16" transform="translate(47)"/><path class="cls-3" d="M38,706.5c-41.09,0-74.53-31-74.53-69.06v-.88a60.94,60.94,0,0,1,.31-6.27l.1-1-.1-1c-.2-2.17-.31-4.43-.31-6.72,0-46.87,45.15-85,100.66-85,2.49,0,5,.08,7.29.23l7.13.46,3-6.46c7.66-16.24,22.83-30.91,42.72-41.31,21.19-11.07,46.39-16.92,72.87-16.92,33.09,0,64.06,9.13,87.23,25.72,22.1,15.82,34.27,36.52,34.27,58.28v11H334c41.09,0,74.53,31,74.53,69.06v.88c0,38.08-33.44,69.06-74.53,69.06Z" transform="translate(47)"/><path class="cls-5" d="M197.22,483c30.91,0,59.72,8.44,81.12,23.75,19.27,13.8,29.88,31.47,29.88,49.75V578H334c35.3,0,64,26.27,64,58.56v.88c0,32.29-28.73,58.56-64,58.56H38c-35.3,0-64-26.27-64-58.56v-.88c0-1.79.09-3.54.25-5.2l.22-2.07-.2-2.08c-.18-1.83-.27-3.75-.27-5.71,0-41.08,40.44-74.5,90.16-74.5,2.27,0,4.5.07,6.61.21l14.26.92,6.09-12.92c6.7-14.19,20.22-27.14,38.09-36.48,19.7-10.29,43.22-15.73,68-15.73m0-21c-58.12,0-107.47,26.9-125.09,64.25q-3.94-.25-8-.25C2.76,526-47,568.76-47,621.5q0,3.9.36,7.73c-.24,2.41-.36,4.86-.36,7.33v.88C-47,681.38-8.93,717,38,717H334c47,0,85-35.62,85-79.56v-.88c0-43.94-38.07-79.56-85-79.56h-4.75v-.5c0-52.19-59.09-94.5-132-94.5Z" transform="translate(47)"/><path class="cls-3" d="M1421.5,1114.5c-81.33,0-147.5-66.17-147.5-147.5a147.61,147.61,0,0,1,113.11-143.47l9.43-2.25.88-9.66A98.36,98.36,0,0,1,1495,722.5h20a97.49,97.49,0,0,1,48,12.65l11.47,6.5,6.77-11.32a166.12,166.12,0,0,1,26.94-34,164,164,0,0,1,114.72-46.74c1.56,0,3.15,0,4.72.06l12.89.37a165.51,165.51,0,0,1,160.29,165.83l0,9.47,8.87,3.27a147.52,147.52,0,0,1-51.1,285.9Z" transform="translate(47)"/><path class="cls-5" d="M1722.88,663.1h0c1.43,0,2.89,0,4.35.06l12.87.36a152,152,0,0,1,147.18,152.26l-.11,18.93,17.76,6.56A134,134,0,0,1,1858.5,1101h-437a134,134,0,0,1-31.26-264.34l18.87-4.51,1.75-19.32A84.84,84.84,0,0,1,1495,736h20a84.06,84.06,0,0,1,41.32,10.89l23,13,13.53-22.63A152.59,152.59,0,0,1,1617.56,706a150.59,150.59,0,0,1,105.32-42.93m0-27a179.43,179.43,0,0,0-153.25,87.3A110.54,110.54,0,0,0,1515,709h-20a111.85,111.85,0,0,0-111,101.4A161,161,0,0,0,1421.5,1128h437a161,161,0,0,0,55.78-312.06c.56-96.33-76.64-176.66-173.41-179.41l-12.89-.36c-1.71,0-3.41-.07-5.1-.07Z" transform="translate(47)"/><path class="cls-3" d="M1678.5,415a70.51,70.51,0,0,1-7.94-140.55l5.15-.58,1.57-4.94a90.58,90.58,0,0,1,103.57-61.26l5,1,3-4.06A90.53,90.53,0,0,1,1948,285.37l-1.47,4.74,3.59,3.42A70.5,70.5,0,0,1,1901.5,415Z" transform="translate(47)"/><path class="cls-5" d="M1861.5,176a82.58,82.58,0,0,1,78.81,107l-2.94,9.48,7.18,6.85a62.5,62.5,0,0,1-43,107.68h-223a62.51,62.51,0,0,1-7-124.6l10.29-1.17,3.15-9.87a82.58,82.58,0,0,1,94.41-55.84l9.92,1.95,6-8.13a82.92,82.92,0,0,1,7.91-9.18A82,82,0,0,1,1861.5,176m0-16a98.46,98.46,0,0,0-79.11,39.82,98.57,98.57,0,0,0-112.73,66.68A78.5,78.5,0,0,0,1678.5,423h223a78.41,78.41,0,0,0,54.09-135.26A98.53,98.53,0,0,0,1861.5,160Z" transform="translate(47)"/><text x="47"></text><text x="47"></text><text x="47"></text><text x="47"></text><text x="47"></text><text class="cls-6" transform="translate(772.83 383.64)">STARTUP<tspan class="cls-7"><tspan x="0" y="97.2">	</tspan><tspan class="cls-8" x="36" y="97.2" xml:space="preserve"> PROJECT</tspan><tspan x="0" y="194.4">	</tspan></tspan></text><text x="47"></text><text class="cls-9" transform="translate(1108.28 575.9)">PH</text><rect class="cls-10" x="1110.5" y="598.5" width="49" height="4" rx="2" ry="2"/><text class="cls-11" transform="translate(1110.29 667.2)">2017</text><line class="cls-12" x1="851" y1="661" x2="850.41" y2="661.34"/><line class="cls-12" x1="851" y1="661" x2="850.35" y2="661.83"/><line class="cls-12" x1="850.5" y1="660.5" x2="850.41" y2="661.34"/><path class="cls-13" d="M1233.18,314.15c-1.75,2.12-3.18,1.6-3.18-1.15V291c0-2.75,2-4.06,4.54-2.91l10.08,4.64a3.66,3.66,0,0,1,1.36,5.94Z" transform="translate(47)"/><path class="cls-13" d="M1234.07,281.72a12,12,0,0,1-8.54,3l-52.46-5.56c-2.74-.29-2.91-1.41-.38-2.5l114-49c2.53-1.09,3-.4,1,1.52Z" transform="translate(47)"/><path class="cls-13" d="M1291.34,225.67l.52-.22c.29-.13.52-.15.5-.06s-.36,2.38-.77,5.1l-11.13,74.27a3.42,3.42,0,0,1-5.21,2.72l-23.78-11.83-9-4.45-7.54-3.75a3.34,3.34,0,0,1-.91-5.73l53.69-52.55Z" transform="translate(47)"/><path class="cls-12" d="M1291.34,225.67l.52-.22c.29-.13.52-.15.5-.06s-.36,2.38-.77,5.1l-11.13,74.27a3.42,3.42,0,0,1-5.21,2.72l-23.78-11.83-9-4.45-7.54-3.75a33.31,33.31,0,0,0-9.45-2.76l-52.46-5.56c-2.74-.29-2.91-1.41-.38-2.5l118.64-50.95" transform="translate(47)"/><line class="cls-12" x1="1277.5" y1="285.22" x2="1338.33" y2="225.68"/><line class="cls-12" x1="1338.33" y1="225.68" x2="1338.34" y2="225.67"/><line class="cls-12" x1="1338.34" y1="225.67" x2="1339.03" y2="225"/><path class="cls-12" d="M1244.62,292.73a3.66,3.66,0,0,1,1.36,5.94l-12.8,15.48c-1.75,2.12-3.18,1.6-3.18-1.15V291c0-2.75,2-4.06,4.54-2.91Z" transform="translate(47)"/><line class="cls-12" x1="799" y1="764" x2="798.77" y2="764.4"/></g></g></svg>