<?xml version="1.0" encoding="utf-8"?>
<!-- Generator: Adobe Illustrator 22.1.0, SVG Export Plug-In . SVG Version: 6.00 Build 0)  -->
<svg version="1.1" xmlns="http://www.w3.org/2000/svg" xmlns:xlink="http://www.w3.org/1999/xlink" x="0px" y="0px"
	 viewBox="0 0 1070 1506" style="enable-background:new 0 0 1070 1506;" xml:space="preserve">
<style type="text/css">
	.st0{display:none;fill:none;}
	.st1{clip-path:url(#SVGID_2_);}
	.st2{fill:#3F5CA5;}
	.st3{clip-path:url(#SVGID_2_);fill:#334994;}
	.st4{clip-path:url(#SVGID_2_);fill:#F7E779;}
	.st5{clip-path:url(#SVGID_2_);fill:#31B24F;}
	.st6{clip-path:url(#SVGID_2_);fill:#FDFEFD;}
	.st7{clip-path:url(#SVGID_2_);fill:#F4774C;}
	.st8{clip-path:url(#SVGID_2_);fill:#F4CA3B;}
	.st9{clip-path:url(#SVGID_2_);fill:#3F9BBC;}
	.st10{clip-path:url(#SVGID_2_);fill:#F4C93B;}
	.st11{clip-path:url(#SVGID_2_);fill:#FEFEFE;}
	.st12{clip-path:url(#SVGID_2_);fill:#F4784C;}
	.st13{clip-path:url(#SVGID_2_);fill:#F2784D;}
	.st14{clip-path:url(#SVGID_2_);fill:#F3774C;}
	.st15{clip-path:url(#SVGID_2_);fill:#FBFCFC;}
	.st16{clip-path:url(#SVGID_2_);fill:#236983;}
	.st17{clip-path:url(#SVGID_2_);fill:#FAE15F;}
	.st18{clip-path:url(#SVGID_2_);fill:#FBE258;}
	.st19{clip-path:url(#SVGID_2_);fill:#FBE259;}
	.st20{clip-path:url(#SVGID_2_);fill:#FBE257;}
	.st21{clip-path:url(#SVGID_2_);fill:#FCE156;}
	.st22{clip-path:url(#SVGID_2_);fill:#FDE156;}
	.st23{clip-path:url(#SVGID_2_);fill:#F4BA3D;}
	.st24{clip-path:url(#SVGID_2_);fill:#FCFDFD;}
	.st25{clip-path:url(#SVGID_2_);fill:#7097CA;}
	.st26{clip-path:url(#SVGID_2_);fill:#B73428;}
	.st27{clip-path:url(#SVGID_2_);fill:#F2794A;}
	.st28{clip-path:url(#SVGID_2_);fill:#334A95;}
	.st29{clip-path:url(#SVGID_2_);fill:#354994;}
	.st30{clip-path:url(#SVGID_2_);fill:#F58E47;}
	.st31{clip-path:url(#SVGID_2_);fill:#34B152;}
	.st32{clip-path:url(#SVGID_2_);fill:#F4D200;}
	.st33{clip-path:url(#SVGID_2_);fill:#F5C546;}
	.st34{clip-path:url(#SVGID_2_);fill:#F6C447;}
	.st35{clip-path:url(#SVGID_2_);fill:#F1774E;}
	.st36{clip-path:url(#SVGID_2_);fill:#334A96;}
	.st37{clip-path:url(#SVGID_2_);fill:#F2774D;}
	.st38{clip-path:url(#SVGID_2_);fill:#F3784C;}
	.st39{clip-path:url(#SVGID_2_);fill:#FFFFFF;}
	.st40{clip-path:url(#SVGID_2_);fill:none;stroke:#FFFFFF;stroke-width:2;stroke-miterlimit:10;}
</style>
<g id="Layer_1">
	<rect class="st0" width="1279" height="1024"/>
</g>
<g id="Layer_2">
	<g>
		<defs>
			<rect id="SVGID_1_" width="1070" height="1504"/>
		</defs>
		<clipPath id="SVGID_2_">
			<use xlink:href="#SVGID_1_"  style="overflow:visible;"/>
		</clipPath>
		<g id="Layer_1_1_" class="st1">
			<rect class="st2" width="1070" height="1506"/>
		</g>
		<path class="st3" d="M533.3,459.6L533.3,459.6c314.9,0,570.1,351.1,570.1,784.1v27.6c0,433.1-255.2,784.1-570.1,784.1l0,0
			c-314.9,0-570.1-351.1-570.1-784.1v-27.6C-36.8,810.6,218.5,459.6,533.3,459.6z"/>
		<path class="st4" d="M489.6,1197.4c-0.7-12.6-1.5-25.2-4.5-37.3c-5.6-22.5-16.2-41.3-27.7-59.4c-9-14.2-18.2-28.2-25.3-44.1
			c-36.9-81.6-1.4-184.8,71.2-207c63.6-19.5,127.3,33.4,137.6,114.7c5.1,40.8-2.5,78.1-21.5,111.8c-9.7,17.1-20.7,33.2-29.5,51.1
			c-10.5,21.5-16.4,44.6-15.9,70.1c-1.1,2.6-3.1,2.6-5,2.6c-24.9,0.2-49.8,0.2-74.7,0C492.5,1199.8,490.6,1199.9,489.6,1197.4z"/>
		<path class="st5" d="M765.5,721c-0.2,17.4-5.8,32.6-12.5,47.1c-11.3,24.3-25.8,45.3-41.3,65.5c-4,5.2-4.1,5.2-8,0.3
			c-17.1-21.5-32.6-44.7-44.2-71.5c-4.2-9.6-7.5-19.7-9.2-30.6c-5.2-35.1,13.8-72,41.4-81.2c25.2-8.4,49.5,4.2,62.5,26.8
			C761.8,690.4,765.7,704.9,765.5,721z"/>
		<path class="st6" d="M781.8,1001c2-7.4,3.8-15,6-22.3c1.1-3.5,0.4-5-2.1-6.8c-18.8-12.8-30.6-32.2-35.2-58.5
			c-9.6-54.6,26.8-107.1,71-102.5c38.8,4,66.3,44.2,63.4,92.8c-2.8,45.6-36.3,81.5-72.7,77.7c-7.9-0.8-7.9-0.8-10.3,8.7
			c-1.5,5.8-2.9,11.7-4.4,17.5c-0.7,1.2-1.8,1.7-2.9,1.4c-3.9-1.1-7.8-2.7-11.5-4.8C782,1003.6,781.2,1002.7,781.8,1001z"/>
		<path class="st7" d="M301,820.7c0.2,18.2-5,32.9-11.3,47c-12.1,27.1-28.1,50.3-45.4,72.3c-1.6,2.1-2.8,2.1-4.4,0.1
			c-20.2-25.8-39.2-52.9-51.1-86.4c-11.4-31.9-5.8-64.7,14.8-87.7c32.2-36,86.6-13.9,95.8,38.9C300.4,810.1,300.9,815.4,301,820.7z"
			/>
		<path class="st8" d="M192.4,1228.3c-1.4,0-2.7,0-4.1,0c-3.2,0.1-4.8-1.9-4.7-6c0.4-16.9-0.7-14.3-11.2-20
			c-1.1-0.6-2.3-1.1-3.4-1.8c-3.5-2.3-6.5-1.5-9.2,2.2c-8.1,11.1-8.1,8.6-15.1-0.2c-4.7-5.9-4.7-7.1-0.1-12.9
			c1.2-1.6,2.5-3.1,3.7-4.8c1.6-1.8,2.1-5,1.1-7.6c-1.6-4.9-3.2-9.8-4.8-14.7c-1.2-3.7-3.2-5.6-6.6-5.5c-12.3,0.4-11.5,0-11.4-15.3
			c0-6.1,1.3-8.3,6.1-7.5c8.2,1.4,12.5-3.1,14.3-12.6c0.2-0.7,0.4-1.3,0.6-1.9c3.4-10.1,3.4-10.1-2.9-18c-4.7-5.9-4.6-7-0.1-12.9
			c8.6-11.2,7.9-9.1,15.2-0.3c3,3.6,5.7,4.6,9.4,2.2c3.1-1.9,6.2-3.5,9.4-4.9c3.4-1.6,4.9-4.4,4.9-9c-0.1-14-1.3-14,11.6-13.8
			c5.4,0.1,6.4,1.3,6.3,8.2c0,13.9-0.2,12.1,9.3,16.9c10.7,5.4,8.7,7.4,17.8-4c3.1-3.9,5-3.9,7.9,0c7.8,10.4,10.7,10.2,0.7,21.3
			c-2.5,2.7-2.7,6.1-1.4,9.8c1.6,4.6,3.1,9.1,4.5,13.7c1.1,3.7,3.2,5.2,6.3,5.1c13.5-0.4,11.4,0.7,11.5,15c0.1,6.5-1.1,8.6-6.1,7.7
			c-8.1-1.4-12.2,3.1-14,12.4c-0.2,1-0.6,1.9-0.9,2.9c-3.1,9.9-3.1,9.9,3,17.1c4.8,5.7,4.7,7,0.2,12.9c-7.5,9.9-7.5,10.8-15.4,0.3
			c-2.6-3.6-5.4-4.1-8.8-2.1c-3.4,2-6.7,3.7-10.2,5.3c-3.1,1.4-4.6,4-4.4,8.2c0,1,0,2.1,0,3.1
			C201.5,1228.3,201.5,1228.3,192.4,1228.3z"/>
		<path class="st9" d="M489.6,1197.4c27.4,0.1,54.8,0.1,82.3,0.2c0.7-0.1,1.3-0.2,2-0.4c3.3,2.5,2.9,6,1.8,9.9s-3.4,7.8,0.7,12.1
			c2.8,3,0.6,8.3-3.4,9.4c-2.4,0.6-4.4,1.2-5.1,4.7c-0.6,2.7-1.3,4.6,1.6,5.9c2.6,1.3,2.4,4.7,2,7.6c-0.4,2.7-2,4-4.1,4.1
			c-0.8,0-1.7,0.1-2.4,0.1c-2.3,0-2.7,2.3-3.4,4.4c-0.8,2.7,0.9,2.8,2,3.4c2.8,1.7,3.7,4.5,3,8c-0.7,3.5-2.9,4.6-5.6,4.6
			c-3,0-6,0.1-9,0.1c-1.4,2-3.4,2.2-5.2,2.2c-10.2,0.1-20.4,0.1-30.7,0c-2,0-4-0.8-5.8-2.2c-3-0.1-6-0.2-9-0.2
			c-2.4,0.2-4.4-2.1-4.8-5.2c-0.5-3,0.6-5.4,2.8-6.8c1.3-0.8,3-0.8,2.2-3.7c-0.7-2.3-1.1-4.7-3.6-4.7c-2.8,0.1-5.3-0.5-6.2-4.4
			c-0.9-3.8,0.6-6.6,3.4-8.2c1.5-0.9,0.7-2.4,0.3-3.5c-0.7-2.2-0.6-5.4-3.4-5.6c-1.5,0-3-0.7-4.2-1.8c-2.6-2.7-2.9-6.9-0.2-9.8
			c1.9-2,1.9-3.7,1.2-6.2c-0.7-2.1-1.1-4.2-1.8-6.3C485.8,1201.5,486.7,1199,489.6,1197.4z"/>
		<path class="st10" d="M925.5,1219.3c-7.1-0.3-7.5,0-10.5,8.2c-1.2,3.4-2.4,6.9-3.7,10.3c-1.6,3.9-1,7.1,1.4,10.2
			c8.9,11.2,7.1,10.6-0.6,19.8c-4.5,5.3-5.5,5.3-9.7-0.3c-1.2-1.6-2.4-3.2-3.7-4.8c-1.7-2.5-4.4-3.3-6.7-1.9
			c-3.8,1.8-7.7,3.6-11.5,5.3c-3.3,1.4-4.7,4.2-4.7,8.6c-0.1,14.5,0.2,13.7-11.2,13.3c-6.5-0.2-7-0.8-7-8.9c0-2.1,0.1-4.1,0.2-6.2
			c0.2-3.7-1-6.2-3.8-7.7c-3.9-2.1-7.7-4.3-11.5-6.6c-2.4-1.7-5.2-1-7.1,1.5c-0.4,0.5-0.8,1-1.2,1.4c-2.7,2.3-4.4,8.1-8.2,6.1
			c-4.3-2.2-7-7.5-9.6-12.2c-0.7-1.3-0.4-3,0.4-4.3c0.4-0.7,0.9-1.2,1.4-1.9c2.3-3.6,7.2-5.5,6.8-10.9c-0.5-7.5-3.2-14.4-5.9-21.1
			c-1.1-2.8-3.9-2.7-6.2-2.8c-10.6-0.5-10.1,0.8-9.8-13.4c0.2-8.9,0.8-9.6,7.9-9.4c1.5,0,3,0.1,4.5,0.2c2.8,0.1,4.6-1.3,5.7-4.6
			c1.7-4.9,3.4-9.7,5.3-14.5c1.4-3.4,0.8-6.2-1.1-8.9c-0.5-0.6-0.9-1.2-1.4-1.9c-1.9-3.1-6.1-5.3-4.6-10c1.8-5.4,5.9-8.8,9.7-12
			c1-0.9,2.4-0.3,3.5,0.6c0.4,0.4,0.8,0.9,1.2,1.4c3,3.1,4.5,9.3,9,8.9c5.8-0.6,11.2-4.1,16.5-7.2c2.5-1.5,2.5-5.1,2.5-8.2
			c0.3-12.7,0.3-12.7,10.4-12.1c1.1,0.1,2.2,0.2,3.3,0.2c3.4,0,4.6,2.2,4.5,6.2c-0.5,16.9-1.1,13.3,11,20.6c1.3,0.8,2.8,1.5,4.1,2.3
			c2.2,1.6,4.9,1.1,6.7-1.3c0.3-0.4,0.6-0.7,0.9-1c2.8-2.5,4.6-8.2,8.5-6.7c4.4,1.6,6.7,7.2,9.5,11.6c1.5,2.4,0.4,4.9-1.3,6.8
			c-9.5,10.6-8.5,8.6-3.9,23.9c0.6,1.9,1.2,3.8,1.7,5.8c0.9,3.3,2.8,5,5.5,5.1c0.3,0,0.6,0,0.8,0.1c3.4,0.7,7.9-1.6,10,2.4
			c2.5,4.9,0.7,11,0.4,16.6c-0.1,3.1-2.2,4-4.5,4.1C928.2,1219.6,926.8,1219.4,925.5,1219.3z"/>
		<path class="st11" d="M391.1,728.7c-12.7,0-25.3-0.1-38,0.1c-2.5,0-4-1.1-5.2-3.7c-5.9-12.8-0.1-29.2,11.5-32
			c1.7-0.3,3.2-1.5,4.2-3.4c9.6-17.7,27.9-21.5,40.8-8.4c2.7,2.7,5,6,6.9,9.8c1.3,2.6,2.4,2.7,4.5,2.1c7.1-1.8,13.3,0.6,17.7,8.1
			c4.3,7.3,4.5,15.1,1.4,23.2c-1.2,3.1-2.9,4.4-5.8,4.4C416.5,728.6,403.8,728.7,391.1,728.7z"/>
		<path class="st12" d="M781.8,1001c5.1,2.9,10.3,5.1,15.7,6.6c5.2,2.9,5.3,3,3.5,10.1c-8.1,32.3-16.2,64.6-24.3,96.9
			c-1.7,6.9-5,11.6-10.8,12.3c-6.4,0.7-12.3-1.4-16.4-8.1c-2.5-4.2-2-9-0.8-13.8c5.8-23.1,11.6-46.3,17.4-69.5
			c2.5-10.1,5.2-20.2,7.5-30.4c1.1-4.7,2.5-6.9,6.5-4.4C780.7,1000.9,781.2,1001,781.8,1001z"/>
		<path class="st13" d="M278.8,1121.3c-3.9,0.9-5.9-1-5.4-5.7c0.8-7.5-4.2-7.7-7.5-9.9c-3-2-5.2-0.5-7.1,2.4c-2.7,4.2-4.7,2.1-7-0.7
			c-2.4-2.9-3.7-5.7-0.5-8.8c3.1-3,2.9-6.4,1.4-10.4c-1.5-4.3-2.4-8.9-7.5-8c-4,0.7-4.7-2.6-4.7-6.7c0-4.2,0.7-7.2,4.7-6.5
			c3.6,0.6,5.6-1.6,6.6-5.7c1.1-4.4,3.9-8.7-0.6-12.7c-2.7-2.4-2.5-5.2,0-8c2.2-2.5,4.1-6.4,7.2-1.7c2.3,3.4,4.8,4.5,8.2,2.3
			c3.4-2.2,7.3-3,6.7-9.7c-0.5-5.5,2.6-5.6,5.9-5.7c3.5-0.1,5.3,1.7,4.8,6c-0.7,6.2,2.9,7.2,6.1,9.1s5.9,2.6,8.3-1.5
			c2.4-4.1,4.9-2.6,7.4,0.6c2.5,3.2,3.4,5.9,0.2,8.9c-3.7,3.5-2.1,7.4-0.8,11.4c1.3,4.1,2.6,7.6,6.9,6.9s5.1,2.3,5,6.9
			c-0.1,4.3-1.1,7-5,6.4c-3.1-0.5-5.4,0.8-6.3,4.8c-1,4.5-4.4,9,0.2,13.4c3.1,2.9,2.6,5.7-0.1,8.8c-2.4,2.8-4.5,5.3-7.3,0.7
			c-1.9-3-4.2-4.3-7.2-2.2c-3.3,2.3-8.1,2.3-7.4,9.5C284.5,1120.1,282.6,1122.5,278.8,1121.3z"/>
		<path class="st14" d="M787.3,1215c-0.1,1.9-0.9,3.6-2.1,4.5c-2.9,2.7-3.1,5.8-1.8,9.9c1.6,5.2,2.9,9.8,8.5,9.1
			c4.2-0.4,2.9,4.1,3.1,7.1c0.2,3.3-0.5,6.1-3.7,5.5c-4.7-0.8-6.7,2.4-8.5,7.2c-1.7,4.6-2,8.3,1.4,11.8c2.3,2.4,1.9,5.1-0.4,7.3
			c-2,2-3.5,6.2-7,2.1c-4.3-5-8.9-5-13.7-0.7c-2,1.8-2.1,4.3-2,6.9c0.1,4.8-2,5.5-5.2,5.4s-5.9-0.9-5.2-6c1-7.3-3.8-7.8-7.2-10.3
			c-3.2-2.3-5.4-0.9-7.5,2.1c-2.3,3.4-4.2,2.8-6.3-0.3c-1.9-2.9-4.7-5.5-1-9.2c2.8-2.8,3.7-6,2.1-10.3c-1.6-4.3-2.1-9.4-7.4-8.7
			c-4.1,0.5-4.4-2.9-4.4-7s1-6.8,4.6-6.1c5.7,1.1,6.4-4.7,8.3-9.1c1.7-4,0.7-6.9-1.7-9.4c-3.3-3.6-1.2-6.1,1-8.8
			c2.2-2.7,4.5-4.6,6.6-0.4c2.9,5.6,6.4,3.3,10,1.8c3.6-1.5,5.6-4,5.2-9c-0.4-5.7,2.9-5,5.8-5.1c3.1-0.1,5.4,1.1,4.7,5.5
			c-1,7.1,3.3,8.4,6.9,10.7c3.3,2.1,5.7,0.9,7.9-2.3c1-1.4,2.2-3.1,3.8-1.7C784.3,1209.6,786.6,1211.6,787.3,1215z"/>
		<path class="st15" d="M327,1160.4c-3.1-0.2-6.5,3.4-6.6,7.4c-0.1,3.2-1.6,3.5-3.5,3.6c-2.1,0-4-0.4-3.6-3.9
			c0.4-3.5-1.3-4.7-3.5-5.8c-2.2-1.1-4.3-2.2-6.1,1c-1.7,2.9-3.1,1.1-4.6-0.6c-1.5-1.8-2.4-3.5-0.3-5.4c2.1-1.9,2.1-4.2,1.1-7.1
			s-1.8-5.9-5-5.3c-2.6,0.5-2.9-1.6-2.8-4.1c0.1-2.3,0-4.8,2.7-4.4c3.2,0.6,4.1-2,5.2-5c1-2.8,1.2-5.1-1-7.2c-2-1.9-1.2-3.6,0.3-5.5
			s3-3.3,4.7-0.6s3.6,2.1,5.8,1c2.4-1.1,4.1-2.4,3.7-6.2s1.9-3.4,3.8-3.4c2.1-0.1,3.5,0.6,3.2,3.7s0.9,4.6,3.1,5.6
			c2.3,1,4.5,2.5,6.5-0.8c1.8-2.9,3.2-0.9,4.7,0.8c1.6,1.9,2,3.6,0.1,5.5c-1.9,1.9-2.2,4-1,6.7c1.1,2.7,1.6,6,5,5.3
			c2.8-0.5,2.9,2,2.9,4.6c0.1,2.6-0.5,4.4-3,3.9c-3.4-0.6-3.9,2.7-5,5.5c-0.9,2.4-1.3,4.5,0.7,6.4c2.1,2.1,1.9,3.9,0,6.2
			c-1.9,2.4-3.4,2.5-5-0.1C328.9,1161,327.9,1160.4,327,1160.4z"/>
		<path class="st16" d="M510.3,1271.7l41.7-0.1c-0.6,13.4-8,22.9-19,24.4c-8.9,1.1-18.7-7.6-21.2-19
			C511.3,1275.3,510.7,1273.5,510.3,1271.7z"/>
		<path class="st17" d="M535.5,792.6v25.6c0,3.7-0.5,7.1-4.2,7.2c-3.7,0.1-4.2-3.3-4.2-7.1c-0.1-15.9-0.2-31.8-0.3-47.7
			c0-1.5,0-3.1,0.1-4.6c0.3-3.3,1.5-5.6,4.4-5.5s4,2.5,4,5.8c0,8.7,0,17.4,0,26.2L535.5,792.6z"/>
		<path class="st18" d="M653.7,929.3c-2.3,0-3.9-1-4.4-3.4c-0.6-3,0.2-5.2,2.4-6.9c8.7-6.4,17.3-13,25.9-19.5
			c3.4-2.5,6.7-5.2,10.2-7.6c2.2-1.5,4.6-1.8,6.1,1.3c1.5,3.1,0.5,6-1.9,7.8c-12,9.1-24,18.2-36.1,27.2
			C655.3,928.6,654.5,929,653.7,929.3z"/>
		<path class="st19" d="M628.7,1104.9c-0.2-2.2,0.8-4.3,2.3-5c1.7-1,3.6-0.5,4.9,1.1c4.4,4.9,8.8,9.7,13.2,14.6
			c6,6.7,12,13.4,18.1,20.1c2.4,2.6,3.5,5.6,1.1,8.8c-2.4,3.2-4.6,1.5-6.8-0.9c-10.1-11.2-20.2-22.4-30.3-33.6
			C629.9,1108.7,628.6,1107.3,628.7,1104.9z"/>
		<path class="st20" d="M637,804.7c-0.1,1.1-0.9,2.5-1.7,3.9c-7.5,13.6-15.1,27.2-22.6,40.8c-0.1,0.1-0.2,0.3-0.2,0.4
			c-1.6,3.1-3.8,4.9-6.5,2.7c-3.1-2.5-2.1-5.9-0.4-8.9c6.1-10.9,12.1-21.9,18.2-32.8c2-3.5,3.9-7,5.9-10.4c1.2-2.1,3.3-2.9,5-1.7
			C636.6,799.7,637.3,801.5,637,804.7z"/>
		<path class="st20" d="M453.1,848.6c0.1,1.8-0.7,3.5-1.9,4.2c-1.4,1.1-3.3,1-4.6-0.3c-0.9-1-1.7-2.2-2.4-3.4
			c-7.4-13.3-14.9-26.5-22.3-39.8c-2.5-4.4-2.6-8.2-0.2-9.8c3.4-2.3,5.2,0.2,7,3.4c7.5,13.6,15.1,27.2,22.6,40.7
			C452.3,845,453.2,846.5,453.1,848.6z"/>
		<path class="st20" d="M362.8,896.8c-0.1-4.8,3-7,6.6-4.6c3.2,2.2,6.3,4.7,9.5,7.1c8.6,6.5,17.3,13,25.9,19.4
			c2.6,1.9,4.7,4.3,2.9,8.2c-1.9,4.2-4.7,3-7.4,0.9c-11.4-8.6-22.8-17.3-34.3-25.8C364.3,900.7,362.7,899.5,362.8,896.8z"/>
		<path class="st18" d="M391.4,1146.3c-1.7,0-3.1-0.7-3.7-2.7c-0.8-1.9-0.6-4.2,0.5-5.8c0.7-1,1.5-2,2.4-2.8
			c9.6-10.7,19.1-21.3,28.7-32c0.7-0.8,1.4-1.6,2.2-2.3c2-1.6,3.9-1.5,5.5,0.7s1.5,4.7,0,7c-0.8,1.1-1.7,2.2-2.7,3.2
			c-9.5,10.6-18.9,21.2-28.4,31.7C394.5,1144.8,393.3,1146.5,391.4,1146.3z"/>
		<path class="st21" d="M685.3,1016.2c-6.7,0-13.3,0-20,0c-3.1,0-5.7-1.1-5.7-5.5s2.8-5.3,5.8-5.2c13.5,0.3,27,0.5,40.4,0.7
			c3.1,0,5.7,1.1,5.4,5.6c-0.2,4.1-2.7,4.9-5.6,4.8c-6.8-0.1-13.6,0-20.4,0L685.3,1016.2z"/>
		<path class="st22" d="M370.7,1017.2c-6.7,0-13.3-0.1-20,0c-2.9,0-5.4-0.6-5.6-4.8c-0.2-4.2,2.1-5.7,5-5.7
			c14.2-0.2,28.3-0.3,42.5-0.5c2.7,0,4.2,1.8,4.2,5c0,3.4-1.7,5.4-4.4,5.4c-7.2,0.1-14.4,0-21.7,0L370.7,1017.2z"/>
		<path class="st23" d="M537.2,860.4c21.1,1.1,41.5,11.2,58.2,28.8c18.7,19.3,31,44,35.6,74c4.7,30.3,2.2,59.9-8.8,87.9
			c-7.1,17.9-17.1,33.3-26.7,49c-12.7,20.9-23,43.2-26.1,69.7c-0.4,3.4-0.8,6.8-1,10.2c-0.2,3.4-1.6,4.2-4.1,4.2
			c-10.8-0.1-21.5-0.1-32.3-0.1c-5.7-0.8-5.9-1-5.9-9.1c-0.1-42.6,0-85.1,0-127.7c0.1-4.3-0.1-8.5-0.5-12.8c0.2-2.5,1.7-3.4,3.4-3.6
			c5.4-0.8,9.6-4.3,13.3-9.1c3.7-4.9,4.9-4.8,9.7-1.7c4.2,2.8,8.7,5,13.2,6.5c2.2,0.5,4.2,2.3,5.5,4.8c0.7,1.4,1.3,3.2,2.5,4.1
			c4.4,3.4,4,8,2.9,13.4c-7.7,36.3-14.4,73-21.9,109.4c-0.5,2.2-1.7,5.7,0.5,6.4c2.8,1,2.6-3.1,3.1-5.3c6.7-33.3,13.4-66.7,20-100.1
			c1-4.8,2.1-9.6,3.2-14.3c0.5-3,2.3-5.4,4.6-5.9c0.3-0.1,0.5-0.2,0.8-0.3c5.4-2.5,8.4-7.5,7.6-12.8c-0.8-5.7-6.5-11-11.7-10.5
			c-3.8,0.4-7.4,1.7-10,6c-3.2,5.3-5.8,6-10.7,3.6c-3.3-1.6-6.7-2.7-9.6-5.4c-3.2-3-3.9-5.4-2.4-10.1c0.8-2.7,2.3-5.7-0.4-7.8
			c-2.3-1.8-4.5-0.2-6.3,1.7c-2.2,2.3-2,5-0.8,7.8c2.8,6.7,2.7,7.2-1.6,12.6c-3.4,4.3-7.3,7.1-12.4,6.4c-2.3-0.3-4.1-1.1-3.2-4.8
			c1.7-3.4,1.5-7.2,1.5-11c0-46,0-92.1,0-138.1c0-1.4,0-2.7,0-4.1C526.5,859.7,525,858.9,537.2,860.4z"/>
		<path class="st8" d="M537.2,860.4c-9.9,0.4-9-2-9.1,11.6c0,49.2,0,98.4,0,147.7c0,3.1,0.8,6.9-3.3,7.2c-5.7,3.2-7.1-3.8-9.9-7
			c-2.3-2.6-3.2-6.4-0.8-10.1c0.8-1.1,1.7-2.3,2.4-3.5c1-1.9,1.4-3.9,0-5.6c-1.9-2.4-4.6-3.3-7.2-2.4c-1.9,0.6-2.2,2.7-2.2,5
			c0.1,0.9,0.2,1.7,0.4,2.5c1.7,7.5,1.3,8.4-4.6,11.4c-2.6,1.4-5.2,3-7.8,4.4c-3.5,1.9-6.1,1.1-8.9-2c-4.5-5-10.8-5.8-15.9-1.9
			c-3,2.3-5.1,5.4-4.7,10c0.4,4.6,2.1,8.7,5.7,9.7c6.2,1.6,7.9,7.1,9.4,13.7c6.4,29.2,13.2,58.3,19.7,87.4c1.5,6.7,3,13.5,4.6,20.2
			c0.3,1.3,0.7,2.6,1.1,3.9c0.4,1.1,0.9,2.3,2.1,1.9c1.1-0.3,1.2-1.7,1.1-2.9c-0.3-2.7-0.8-5.4-1.5-8c-7.1-31.1-14.1-62.2-21.1-93.3
			c-1.1-4.8-2.1-9.5-3.3-14.3c-0.9-3.8-0.6-7,1.9-9.7c2-2.1,3.3-5,3.9-8.2c0.4-2.5,1.8-4.5,3.6-5.2c4.5-1.9,8.7-4.8,13.2-7
			c2.8-1.3,5-0.8,6.9,2.1c3.2,5,6.7,9.5,11.5,12c1,0.4,1.8,1.6,1.8,3.1c1.7,2.6,1.7,5.6,1.7,8.8c0,45,0,89.9-0.1,134.9
			c0,4,0.7,6.6,4.1,7.2c-10.6,0-21.3-0.1-31.9,0.3c-4,0.1-5.3-2.1-5.6-6.5c-0.6-11.9-3.3-23.2-6.8-34.2
			c-4.8-14.7-11.9-27.7-19.5-40.2c-9-14.8-18.9-28.8-26.5-44.9c-9.3-19.5-14.8-40.4-15.3-63.5c-0.5-24,3.2-46.6,12.4-67.6
			c11.1-25.4,27.4-43.9,48.3-56.2c14.4-8.4,29.6-11.3,45.2-11.7C534.1,859.5,535.7,859.2,537.2,860.4z"/>
		<path class="st24" d="M700.8,666c2.9-0.2,3.4,2.4,3.6,5c0.3,4.1,1.6,6.2,5.2,5.6c1.6-0.1,3.3,0.1,4.8,0.8c4.5,1.6,8.8,3.4,11-4.4
			c0.5-1.9,2.4-2.1,3.9-0.9c1.2,0.9,2.3,1.8,3.5,2.7c4.7,3.6,4.9,4.2,1.8,9.9c-1.5,2.7-1.6,4.6,0.5,6.9c1.4,1.5,2.6,3.4,3.6,5.6
			c2.2,5.3,4.4,10.1,10.3,6.8c1.5-0.8,2.8,0.7,3.3,2.8c0.3,1.5,0.6,3,0.8,4.5c1.3,7.1,1.2,7.6-4.3,9.1c-2.8,0.7-3.4,2.3-3.5,5.5
			c0,4.3-0.6,8.6-1.8,12.6c-1,2.8-0.3,4.3,1.7,5.7c1.8,1.2,4.7,2.3,4,5.7c-0.8,4.1-2.5,8.1-5.5,10.4c-2.1,1.5-3.8-1.1-5.4-2.5
			c-1.6-1.4-2.9-1.6-4.5,0.5c-2.4,3.3-5.3,6-8.5,7.7c-2.6,1.4-2.8,3.4-2.2,6.5c1.2,6.7,1,7-4.4,8.6c-0.8,0.2-1.6,0.4-2.4,0.7
			c-3.3,1.6-5.1-0.2-5.4-4.2c-0.4-4.7-2.1-6.5-5.8-6.1c-1.6,0.2-3.3-0.1-4.8-0.7c-4.4-1.9-8.3-3.1-10.3,4.2
			c-0.6,2.2-2.6,2.2-4.3,1.1c-1.3-0.9-2.5-2.1-3.8-2.9c-3.5-2.2-4.1-5.2-1.6-9c2-3.1,1.9-5.4-0.6-8.1c-2.2-2.4-4-5.6-5.2-9.1
			c-1.2-3.7-3-4-5.7-3.1c-4.7,1.5-5.3,0.9-6.4-5.1c-0.2-1-0.3-2-0.6-3c-1.1-4.4,0-7,3.7-7.5c3.2-0.4,4.7-2,4.4-6.5
			c-0.2-3.8,0.3-7.6,1.5-11c0.9-3,0.7-5-1.8-6.6c-1.8-1.1-4.7-2.3-3.7-5.7c1.1-3.8,2.5-7.7,5.4-10c1.4-1.1,3,0,4.1,1.2
			c2.9,3.3,5,2.5,7.4-1c2.1-3.1,5.1-5.1,8.1-6.9c1.5-0.9,1.8-1.9,1.5-4C691.2,668.8,693.4,665.9,700.8,666z"/>
		<path class="st25" d="M868.4,896.2c-0.1,35.4-23.2,64.6-51.1,64.6c-28.3,0-51.8-29.3-51.7-64.5c0.1-36.4,23.1-64.7,52.7-64.6
			C845.6,831.7,868.5,861.1,868.4,896.2z"/>
		<path class="st26" d="M241.6,766.8c24.8-0.2,44.9,24.4,45.1,55.4c0.3,30.9-19.8,56.4-44.3,56.6s-44.7-24.5-45.3-55.6
			C196.7,792.7,216.9,767,241.6,766.8z"/>
		<path class="st27" d="M151,1145.4c-0.8-27.8,18.3-52.1,41.1-52.2c23.5-0.1,42.6,23.6,42.2,52.6c-0.4,29-17.7,52.6-42.4,52.3
			C168.9,1197.9,150.6,1175.2,151,1145.4z"/>
		<path class="st27" d="M910.3,1205.3c0,29.7-18.3,53.1-41.8,52.7c-23.3-0.5-41.4-23-41.4-52.5c0-30.9,19.9-53.1,43.5-52.4
			C892.2,1153.9,910.3,1177,910.3,1205.3z"/>
		<path class="st28" d="M278.5,1095c-9.6-0.1-17-9.5-17.1-21.5c0-12,7.8-21.7,17.4-21.7c9.3,0,17.1,9.9,17.1,21.7
			C295.9,1085.8,288.4,1095.1,278.5,1095z"/>
		<path class="st29" d="M757.2,1221.9c9.8,0.1,17.4,9.8,17.1,22c-0.2,11.8-8.3,21.6-17.5,21.3c-9.4-0.3-17.3-10.3-17.2-21.7
			C739.7,1231.2,747.4,1221.7,757.2,1221.9z"/>
		<path class="st28" d="M327.9,1140.1c-0.1,7.7-5.1,14-11.2,14c-6.2,0-11.3-6.6-11.2-14.5c0.1-7.5,5.4-14,11.4-13.8
			C323,1126.1,327.9,1132.5,327.9,1140.1z"/>
		<path class="st30" d="M526.6,1033.1c-6.3-1.9-10.9-6.9-14.6-13.2c-1.5-2.5-2.8-3.3-5.1-1.7c-2.2,1.4-4.4,2.7-6.7,3.7
			c-4.7,2.2-9.5,4.2-10.3,11.8c0,0.2-0.1,0.3-0.2,0.4c-7.2,5.7-3.7,13.3-2.1,20.4c5.3,23.5,10.7,47,16,70.5
			c2.5,10.9,4.9,21.7,7.3,32.6c0.4,1.6,0.7,3.3,0.8,5c0.3,2.8-0.3,5.2-2.8,5.9c-2.3,0.6-3.6-1.1-4.2-3.6c-1.7-6.7-3.4-13.4-4.9-20.1
			c-6.6-29.4-13.2-58.9-19.8-88.4c-0.5-2-0.9-3.9-1.3-5.9c-0.8-5.4-2.7-9.1-7.5-10.4c-4.7-1.3-7.1-6.3-7.5-12.2
			c-0.4-5.9,2.3-9.6,6-12.4c5.7-4.4,14.6-3.2,18.4,2.8c1.6,2.4,3.5,2.9,5.8,1.6c3.6-2.1,7.2-4,10.9-5.9c2.1-1.1,2.9-2.5,1.7-5.5
			c-1.5-3.9-2.6-8.3,0.4-11.8c2-2.4,8.1-1.3,10.8,1.4c2.6,2.5,2.9,5.5,1.3,9c-1.3,2.9-5.7,4.2-4.1,8.5c2,5.2,5.1,9.7,10,11.4
			c6.1,2.5,14.1-1.7,17.2-8.9c0.8-1.8,0-2.8-0.8-4c-5.6-8.3-1.1-14,4.8-15.7c5.3-1.5,8.1,2.9,6.3,9.4c-2.2,7.8-1.1,10.4,5.3,13
			c1.3,0.4,2.6,0.9,3.9,1.6c4.1,2.6,6.9,1.4,9.7-3.4c6-10.1,20.2-7.6,24.2,4c2.2,6.2-1.1,15.1-7.1,17.1c-4.1,1.4-5.5,4.2-6.4,9
			c-7.4,37.7-15.1,75.4-22.6,113c-0.4,2-0.5,4.2-1.8,5.6c-1.3,1.4-3.2,1.5-4.6,0.3c-1.7-1.1-1.9-3.1-1.5-5.3
			c2.6-13.1,5.1-26.3,7.7-39.4c5.3-26.4,10.5-52.8,15.8-79.1c0.5-2.4,0.6-4.4-1.6-5.5c-0.3-0.1-0.5-0.3-0.7-0.6
			c-3.8-9.9-12.1-10.5-18.8-14.5c-1.2-0.5-2.3-1.2-3.4-2c-2.9-2.7-5-1.5-7,1.5C539.3,1030,533.6,1033.3,526.6,1033.1z"/>
		<path class="st31" d="M682.8,723.8c0.1-17,11.4-30.9,24.9-30.9s24.7,14.4,24.6,31.3c-0.2,16.9-11.4,31-24.9,30.8
			C693.7,754.8,682.8,740.8,682.8,723.8z"/>
		<path class="st11" d="M795.1,856.3c7.8,0,14,7.7,14,17.5c0,9.8-6,17.7-13.8,17.8c-8,0.1-14.3-7.8-14.3-17.8
			C781.1,864.1,787.3,856.4,795.1,856.3z"/>
		<path class="st32" d="M217.2,822.7c0-17.5,11-31.3,24.9-31.2c13.9,0.1,25,14.2,24.9,31.3c-0.1,17.2-11.3,31.3-25.1,31.3
			C228.3,854.1,217.2,840.1,217.2,822.7z"/>
		<path class="st33" d="M159,1148.2c-2-21.7,12.4-43,31.4-44.7c16.9-1.5,33.8,13,35.7,39.3c1.4,19.8-9.6,42.8-31.4,45.2
			C177.7,1189.8,160.2,1173.3,159,1148.2z"/>
		<path class="st34" d="M869.2,1163.6c18.6,0.1,33.8,19.6,33.4,42.9c-0.3,22.9-15.8,41.6-34.4,41.4c-18-0.2-33.3-19.7-33.2-42.4
			C835.1,1182.1,850.4,1163.4,869.2,1163.6z"/>
		<path class="st35" d="M757.2,1255.1c-5.4,0-9.7-5.3-9.7-11.9c0-6.6,4.5-11.9,9.8-11.8s9.2,5.4,9.1,11.9
			C766.3,1249.9,762.2,1255.2,757.2,1255.1z"/>
		<path class="st11" d="M689.2,724.2c-0.1-13,7.9-23.1,18.3-23.2c10.2,0,18.5,10.4,18.4,23.1c-0.1,12.4-8.4,23-18.2,23
			C697.6,747.3,689.3,737,689.2,724.2z"/>
		<path class="st28" d="M192.4,1183.2c-16.5,0-29.9-16.9-29.9-37.5c0-20.9,13.6-37.7,30.3-37.6c16.3,0.1,29.5,16.9,29.6,37.4
			C222.5,1166.6,209.2,1183.3,192.4,1183.2z"/>
		<path class="st36" d="M838.9,1205.6c-0.1-20.9,13.1-37.6,29.7-37.7c16.6-0.1,30,16.6,30.1,37.3c0.1,21-13.4,38-30,37.9
			S839,1226.6,838.9,1205.6z"/>
		<path class="st37" d="M192.6,1162.8c-7.9,0.1-13.8-7-13.9-16.8s5.7-17.5,13.3-17.7c8-0.2,14.3,7.2,14.3,16.9
			C206.4,1155.6,200.7,1162.7,192.6,1162.8z"/>
		<path class="st38" d="M868.7,1188.2c7.7-0.1,13.8,7.3,13.9,16.9c0.2,9.9-5.9,17.7-13.7,17.8c-7.8,0.1-13.9-7.6-14-17.5
			C855,1195.8,860.9,1188.3,868.7,1188.2z"/>
		<path class="st11" d="M191.4,329.5c-17.8,0-35.7-0.2-53.5,0.1c-3.9,0.1-6.1-1.6-8-5.1c-11.9-21.3-6.3-49.6,12.6-63
			c18.8-13.5,43.8-7.1,55.7,14.2c0.5,0.9,1,1.8,1.4,2.7c1.5,3.2,3,4.3,6.3,4.3c12.9-0.4,24.2,9.9,26.6,24.3c0.6,3.4,1.6,4.3,4.5,4.2
			c7-0.2,12.9,5.9,13.5,13.8c0.3,3.4-0.4,4.7-3.8,4.7C228.2,329.4,209.8,329.5,191.4,329.5z"/>
		<path class="st11" d="M871.5,329.1c-18.2,0-36.5-0.1-54.7,0.1c-3.1,0-4.8-1.3-6.2-4.2c-6.9-13-3.1-30,8.4-37.8
			c2.7-1.8,5.7-3,8.7-3.6c1.7-0.2,3.3-1.3,4.2-3.1c17-29.3,52.8-28.4,68.3,1.8c1.4,2.7,2.6,2.7,4.9,2c9.6-3.2,20,0.8,26,9.9
			c5.8,9,6.4,21.1,1.4,30.7c-1.1,2.7-3.7,4.4-6.3,4.1C907.9,329,889.7,329.1,871.5,329.1z"/>
		<path id="path4754" class="st39" d="M416.7,505.2l0.1-18.9h254.1l0.1,18.9L671,524H416.7L416.7,505.2z M567.6,518.5
			c3-0.6,5.5-2.5,6.7-5c1.2-2.5,1.3-3.1,1.3-13.1v-9.1l-3-0.1h-3.1v8.6c0,9.4-0.1,10.3-1,11.8c-1,1.5-2.1,1.9-4.1,1.9
			c-2.8,0-4.3-1.4-4.9-4.2c-0.2-3.2-0.3-6.4-0.2-9.6v-8.5h-3.1l-3,0.1v9.2c0,8.1,0.1,9.4,0.3,10.6c0.4,2,1.3,3.6,2.5,4.8
			c1.4,1.4,3,2.3,4.7,2.5c2.3,0.4,4.6,0.4,7,0L567.6,518.5z M656.4,518.3c1.6-0.4,3.1-1.3,4.3-2.6c1.1-1.1,1.8-3,1.7-5
			c0.1-1.1-0.1-2.3-0.6-3.1c-1-2.1-2.4-3.2-6.4-5c-3.2-1.4-3.8-1.8-4.4-2.6c-1.1-1.3-0.6-3.1,1.1-3.8c2.2-0.9,5.3-0.5,9.1,1.2
			c0.2,0.1,0.2-0.5,0.2-2.7v-2.8l-1.1-0.3c-3.3-0.8-6.6-0.9-9.9-0.2c-1.7,0.3-3.3,1.2-4.6,2.6c-1.5,1.6-1.8,2.6-1.8,4.9
			c-0.1,1.2,0.1,2.3,0.6,3.2c1,2.2,2.9,3.6,6.7,5.2c3.4,1.4,4.7,2.6,4.7,4.1c0,1.2-0.7,1.9-2.2,2.4c-1.9,0.4-3.8,0.3-5.7-0.2
			c-1.2-0.5-2.5-1.1-3.6-1.9l-0.4-0.3l0.1,3.1l0.1,3.1l1.1,0.4c2.3,0.8,4.7,1.1,7.1,0.9C653.5,518.7,654.9,518.6,656.4,518.3
			L656.4,518.3z M447.7,505.1c2.5-7.3,4.7-13.5,4.7-13.6c0.1-0.1-0.6-0.2-3.1-0.2h-3.2l-1,3.1c-3,9.6-4.9,16.3-5.1,17.3l-0.2,1.2
			l-0.1-0.8c-0.1-0.4-1.5-5.3-3.2-10.8l-3-10h-3.3c-1.1-0.1-2.2,0-3.3,0.1c0,0.1,2.1,6.2,4.6,13.6l4.6,13.4h6.9L447.7,505.1
			L447.7,505.1z M478,515.9v-2.5h-10.3v-6.2h8.9v-5h-8.9v-6h9.7l-0.1-2.4l-0.1-2.4h-15.7l-0.1,13.5l-0.1,13.5H478L478,515.9z
			 M494,508.9l-0.1-9.5l2.4,3.7l6.3,9.5l3.9,5.8h6.1v-27.2h-2.9l-2.9,0.1v9.2c0,6.2-0.1,9.2-0.2,9l-6.1-9.3l-5.9-9h-6.5v27.2h5.9
			L494,508.9z M536.2,507.3v-11.1h7.7v-5h-21.7v5h3.8l3.8,0.1l0.1,11l0.1,11h6.2L536.2,507.3z M593.4,513.2V508h1.1
			c2.2,0,2.6,0.5,6.4,6.6l2.3,3.7h3.5c3,0,3.5,0,3.3-0.3c-0.1-0.3-1.3-2.2-2.8-4.5c-2.9-4.4-4.4-6.4-5.6-7c-0.6-0.3-0.7-0.4-0.3-0.5
			c1.7-0.6,3.3-1.8,4.6-3.5c1.4-2.3,1.4-5.8-0.1-8.1c-1.7-2.6-5.1-3.4-14.1-3.2l-4.4,0.1l-0.1,13.5l-0.1,13.5h6.2L593.4,513.2z
			 M593.4,499.6l0.1-3.7h2.2c1-0.1,2.1,0,3.1,0.5c1.2,0.6,1.7,1.5,1.7,3c0,1.3-0.5,2.5-1.3,3c-0.9,0.8-2,1-4,1h-1.7L593.4,499.6z
			 M634.7,515.9v-2.5h-10v-6.2h8.9l-0.1-2.4l-0.1-2.4h-4.4h-4.4v-6h9.5v-5h-15.7v27.2h16.2L634.7,515.9z M505.7,476
			c-5.9-0.9-10.2-5-11.8-11c-0.3-1-0.4-2-0.3-5c0-3.4,0.1-3.8,0.5-5.5c0.5-1.9,1.3-3.6,2.4-5c2-2.7,4.4-4.5,7.1-5.3
			c1.8-0.6,1.9-0.6,5-0.7c3.6,0,4.7,0.2,7.1,1.4c3.3,1.5,6,5,7.3,9.6c0.4,1.6,0.5,3.3,0.4,5c0,2.9-0.1,3.6-0.4,5.1
			c-1.5,5.7-5.2,9.6-10.4,11C510.3,476.2,508,476.3,505.7,476L505.7,476z M511.5,469.4c3.1-1.5,4.6-4.6,4.6-9.5
			c0-3.9-0.8-6.4-2.7-8.3c-3.1-2.6-6.9-2.6-9.9,0.1c-1.9,1.8-3,5-2.8,8.2c0,1.1,0.1,2.3,0.3,3.4c0.9,3.5,3,6,5.6,6.6
			C508.2,470.1,509.9,470,511.5,469.4L511.5,469.4z M539.9,476.1c-0.3,0-1-0.2-1.7-0.4l-1.2-0.3v-3.3c-0.1-1.1,0-2.2,0.2-3.2
			c1.1,0.6,2.2,1,3.3,1.1c0.8,0.1,1.6,0,2.3-0.4c1.1-0.5,2-1.6,2.4-3.1c0.3-1,0.4-2.2,0.4-11.8l0.1-10.7h6.7v10.8
			c0,12.2-0.1,12.9-1.4,15.8c-1.4,2.9-3.6,4.8-6.1,5.3C543.3,476.1,541.6,476.2,539.9,476.1L539.9,476.1z M616.3,476
			c-7.3-1.1-11.8-6.3-12.3-14.3c-0.6-9.4,4.8-16.7,13.3-18.1c2.8-0.3,5.7-0.1,8.5,0.3c2.3,0.6,2.1,0.2,2.1,4.1v3.4l-1-0.5
			c-3.5-1.9-8.6-1.8-11.4,0.1c-1.8,1.1-3.2,3.2-3.9,5.7c-0.4,2.1-0.4,4.3,0,6.3c0.8,3.1,2.7,5.3,5.5,6.4c1.2,0.4,2.3,0.5,3.5,0.4
			c2.1,0.1,4.2-0.3,6.1-1.3l1.2-0.6l-0.1,3.2l-0.1,3.2l-1.1,0.4c-0.8,0.3-1.7,0.6-2.6,0.8C621.5,476.1,618.9,476.2,616.3,476
			L616.3,476z M416.9,459.8l0.1-15.8h6.6c5.5,0,6.8,0.1,8.2,0.4c4.1,0.9,6.6,3.2,7.3,6.9c0.1,0.9,0.2,1.9,0.2,2.8
			c0,3.1-0.8,5-2.8,7.2c-2.5,2.5-5.1,3.5-10,3.5h-2.7v11h-7L416.9,459.8z M429,458.9c2.4-0.7,3.5-3.1,2.9-6c-0.1-0.8-0.5-1.6-1-2
			c-1.1-1.1-2.3-1.5-5-1.5h-2.1v9.8h2.1C426.9,459.2,428,459.1,429,458.9L429,458.9z M455.5,459.7v-15.9l6.9,0.1
			c5.4,0.1,7.2,0.2,8.3,0.4c4.6,1.1,6.8,3.7,6.8,8.1c0,4-1.9,6.9-5.7,8.5c-1.1,0.5-1.1,0.5-0.7,0.7c1.6,0.8,2.9,2.4,5.4,6.4l3.1,5
			l1.5,2.5h-4l-4-0.1l-2.6-4.6c-1.5-2.5-3-5-3.5-5.6c-0.9-1.3-2.2-2-3.5-1.9h-1.1v12.2h-7L455.5,459.7z M467.9,457.5
			c2.4-1.3,3.2-4.5,1.7-6.7c-0.7-1-1.9-1.4-4.7-1.5l-2.5-0.1v8.8h2.2C466.7,458,466.9,458,467.9,457.5L467.9,457.5z M570.8,459.7
			v-15.9h8.9h8.8l0.1,2.8l0.1,2.8h-10.9v7.2h10v6h-10v7.2h11.4v5.8h-18.4L570.8,459.7z M650.6,462.7v-13.1h-8.7v-5.8h24.4v5.8h-8.7
			v26h-7L650.6,462.7z M420.7,430.6c-1.5-0.2-2.9-0.6-4.3-1.2l-0.8-0.4v-7l0.9,0.7c3.2,2.4,8.2,3.2,10.9,1.8c1.1-0.6,1.5-1,1.8-2.1
			c0.3-1.6-0.9-3.1-3.6-4.4l-3.9-1.9c-3.8-1.9-5.7-4.2-6.1-7.4c-0.6-5.1,2-8.7,7.3-10.2c3.9-0.7,7.8-0.6,11.7,0.5l0.5,0.2v6.5
			l-1.3-0.7c-1.8-0.9-3.8-1.4-5.7-1.3c-2.4,0-3.4,0.3-4.4,1.2c-1.4,1.4-1.2,2.9,0.6,4.5c1.2,0.8,2.5,1.5,3.8,2
			c4.9,2.3,6.5,3.5,7.7,6.1c0.5,0.9,0.8,2.1,0.7,3.3c0.2,5-2.1,8.1-7.1,9.4C426.4,430.7,423.5,430.9,420.7,430.6L420.7,430.6z
			 M615.2,430.5c-5.4-1.1-8.4-4.7-9-11.1c-0.1-1.1-0.2-6.2-0.2-11.4v-9.4h6.9l0.1,10.5c0.1,11.7,0.1,11.5,1.4,13.5
			c1,1.4,2,1.9,4.4,1.9c0.9,0.2,1.9,0,2.8-0.5c1.1-0.6,1.9-1.8,2.5-3.3c0.3-0.9,0.3-2.2,0.4-11.6l0.1-10.5h6.8v10.1
			c0,10.8-0.1,12.1-1,14.5c-1.3,3.6-3.8,6-7.5,7C620.3,430.8,617.7,430.9,615.2,430.5L615.2,430.5z M459,417.3v-12.9h-8.7v-5.8h24.4
			v5.8H466v25.8h-7V417.3z M484.2,430.1c0-0.1,2.5-7.2,5.5-15.7l5.5-15.6h4.1h4.1l5,14.6c2.8,8,5.2,15.1,5.5,15.8l0.5,1.2h-3.8
			l-3.8-0.1l-0.2-0.5c-0.1-0.3-0.6-1.8-1.1-3.5l-0.9-2.9h-11l-0.2,0.7c-0.1,0.4-0.6,2-1,3.5l-0.8,2.7l-3.7,0.1
			C486.6,430.3,485.4,430.3,484.2,430.1L484.2,430.1z M502.9,417.6c0-0.1-0.8-2.8-1.7-5.8c-1-3.1-1.8-6.1-1.9-6.6
			c-0.1-0.5-0.2-0.9-0.2-0.9c-0.1,0.4-0.2,0.8-0.3,1.2c-0.1,0.6-1,3.6-1.9,6.6c-1,3-1.7,5.6-1.7,5.7s1.7,0.1,3.9,0.1
			C501.6,417.9,502.9,417.8,502.9,417.6L502.9,417.6z M529.8,414.4v-15.8l7.4,0.1c8.1,0.1,8.3,0.1,10.7,1.3c1.4,0.6,2.5,1.9,3.3,3.6
			c0.5,1,0.5,1.4,0.5,3.5c0,2.2,0,2.5-0.6,3.8c-1,2.2-3.2,4.1-5.8,5c-0.4,0.1-0.3,0.2,0.2,0.5c1,0.6,1.9,1.5,2.7,2.5
			c0.7,0.9,7,10.9,7,11.2c0,0.1-1.8,0.1-3.9,0.1h-3.9l-1.3-2.3c-1.6-2.9-3.3-5.7-5.1-8.3c-0.8-1-1.9-1.5-3-1.3h-1.3v12h-7
			L529.8,414.4z M541.8,412.4c0.9-0.4,1.8-1.2,2.4-2.2c0.5-1.2,0.6-2.7,0.1-4c-0.8-1.6-2-2.1-5.1-2.3l-2.4-0.1v9.1l2.2-0.1
			C539.9,412.8,540.8,412.6,541.8,412.4L541.8,412.4z M575,417.3v-12.9h-8.7v-5.8h24.4v5.8h-8.9v25.8H575L575,417.3z M649.7,414.4
			v-15.8l7.2,0.1c6.1,0.1,7.4,0.1,8.4,0.4c3.8,1.1,5.9,3.3,6.6,6.9c0.8,3.8-0.3,8-2.7,10c-2.4,2.3-4.8,3.2-9.5,3.4l-2.9,0.1v10.7h-7
			V414.4z M662.2,413.4c1.8-0.8,2.5-2.1,2.5-4.6c0-0.9-0.1-1.7-0.5-2.4c-0.4-0.8-1-1.4-1.7-1.7c-1-0.5-1.3-0.6-3.5-0.7l-2.4-0.1
			v10.1l2.3-0.1C660,414,661.1,413.8,662.2,413.4L662.2,413.4z"/>
		<path class="st39" d="M420.6,225c-2.3,0.6-2.4,2.2-0.3,3.6l62.2,41.5c2.3,1.8,4,4.8,4.9,8.3l14,76.2c0.4,2.5,2.1,4.1,3.8,3.6
			c0.3-0.1,0.7-0.3,1-0.5l45.1-33.3c2.4-1.5,5.1-1.5,7.4,0l45.1,33.3c2,1.5,4.4,0.4,5.4-2.4c0-0.1,0.1-0.2,0.1-0.3l59.6-187.6
			c1-3-0.1-5-2.4-4.4L420.6,225z M516.2,339c-2,1.6-3,0.4-2.2-2.7l8.5-32.9c0.6-2.6,2.6-4,4.4-3.2c0.2,0.1,0.5,0.3,0.7,0.5
			l14.6,11.7c2,1.6,2,4.2,0,5.9L516.2,339z M520.8,286.1c-2.2,2.2-3.9,5.3-4.8,8.9l-8.4,37.6c-0.7,3.1-1.7,3.1-2.2-0.1l-8.6-53.7
			c-0.5-3.4,0.8-6.7,2.9-8.2l107.7-64.1c2.1-1.3,2.3-0.9,0.3,0.9L520.8,286.1z"/>
		<path class="st40" d="M420.8,225.1c-2.3,0.6-2.4,2.2-0.3,3.6l62.2,41.4c2.3,1.8,4,4.8,4.9,8.3l14,75.9c0.4,2.5,2.1,4.1,3.8,3.6
			c0.3-0.1,0.7-0.3,1-0.5l45.1-33.2c2.4-1.5,5.1-1.5,7.4,0l45.1,33.2c2,1.5,4.4,0.4,5.4-2.4c0-0.1,0.1-0.2,0.1-0.3l59.6-187
			c1-3-0.1-5-2.4-4.4L420.8,225.1z M516.4,338.8c-2,1.6-3,0.4-2.2-2.7l8.5-32.8c0.6-2.6,2.6-4,4.4-3.2c0.2,0.1,0.5,0.3,0.7,0.5
			l14.6,11.7c2,1.6,2,4.2,0,5.8L516.4,338.8z M521,286c-2.2,2.2-3.9,5.3-4.8,8.9l-8.4,37.5c-0.7,3.1-1.7,3.1-2.2-0.1l-8.6-53.5
			c-0.5-3.4,0.8-6.7,2.9-8.1l107.7-63.9c2.1-1.3,2.3-0.9,0.3,0.9L521,286z"/>
	</g>
</g>
</svg>
