<svg xmlns="http://www.w3.org/2000/svg" xmlns:xlink="http://www.w3.org/1999/xlink" width="1760" height="877" viewBox="0 0 1760 877"><defs><style>.cls-1,.cls-41{fill:none;}.cls-2{clip-path:url(#clip-path);}.cls-3{fill:#3f5ca5;}.cls-4{fill:#334994;}.cls-5{fill:#f7e779;}.cls-6{fill:#31b24f;}.cls-7{fill:#fdfefd;}.cls-8{fill:#f4774c;}.cls-9{fill:#f4ca3b;}.cls-10{fill:#3f9bbc;}.cls-11{fill:#f4c93b;}.cls-12{fill:#fefefe;}.cls-13{fill:#f4784c;}.cls-14{fill:#f2784d;}.cls-15{fill:#f3774c;}.cls-16{fill:#fbfcfc;}.cls-17{fill:#236983;}.cls-18{fill:#fae15f;}.cls-19{fill:#fbe258;}.cls-20{fill:#fbe259;}.cls-21{fill:#fbe257;}.cls-22{fill:#fce156;}.cls-23{fill:#fde156;}.cls-24{fill:#f4ba3d;}.cls-25{fill:#fcfdfd;}.cls-26{fill:#7097ca;}.cls-27{fill:#b73428;}.cls-28{fill:#f2794a;}.cls-29{fill:#334a95;}.cls-30{fill:#354994;}.cls-31{fill:#f58e47;}.cls-32{fill:#34b152;}.cls-33{fill:#f4d200;}.cls-34{fill:#f5c546;}.cls-35{fill:#f6c447;}.cls-36{fill:#f1774e;}.cls-37{fill:#334a96;}.cls-38{fill:#f2774d;}.cls-39{fill:#f3784c;}.cls-40{fill:#fff;}.cls-41{stroke:#fff;stroke-miterlimit:10;stroke-width:2px;}</style><clipPath id="clip-path"><rect class="cls-1" width="1760" height="877"/></clipPath></defs><title>VentureIdea</title><g id="Layer_2" data-name="Layer 2"><g class="cls-2"><rect class="cls-3" width="1760" height="877"/><rect class="cls-4" x="-63" y="244.95" width="1892" height="1954.56" rx="946" ry="946"/><path class="cls-5" d="M842.12,782.28c-1-8.71-1.92-17.38-5.84-25.82-7.22-15.59-20.87-28.56-35.56-41.15-11.49-9.86-23.33-19.55-32.53-30.52-47.37-56.5-1.8-127.86,91.46-143.26,81.74-13.5,163.54,23.08,176.69,79.39,6.59,28.23-3.18,54-27.66,77.35-12.46,11.88-26.54,23-37.86,35.39-13.53,14.87-21,30.9-20.46,48.49-1.4,1.79-4,1.78-6.4,1.79q-48,.19-95.91,0C845.83,783.92,843.39,784,842.12,782.28Z"/><path class="cls-6" d="M1196.52,452.58c-.26,12-7.42,22.55-16.08,32.62-14.45,16.8-33.15,31.38-53,45.32-5.15,3.62-5.25,3.62-10.28.21-22-14.89-41.88-30.92-56.81-49.5-5.35-6.65-9.69-13.6-11.78-21.18-6.7-24.32,17.67-49.8,53.14-56.23,32.28-5.84,63.54,2.91,80.3,18.52C1191.67,431.33,1196.66,441.39,1196.52,452.58Z"/><path class="cls-7" d="M1217.32,646.32c2.55-5.15,4.89-10.35,7.73-15.42,1.36-2.42.5-3.49-2.76-4.68-24.1-8.84-39.33-22.3-45.25-40.49-12.31-37.77,34.4-74.1,91.21-71,49.84,2.74,85.17,30.62,81.41,64.23-3.52,31.56-46.6,56.39-93.3,53.76-10.2-.57-10.2-.57-13.25,6l-5.64,12.15a4.62,4.62,0,0,1-3.68,1,101.38,101.38,0,0,1-14.8-3.32C1217.68,648.15,1216.66,647.48,1217.32,646.32Z"/><path class="cls-8" d="M599.9,521.57c.26,12.59-6.36,22.77-14.45,32.52-15.54,18.74-36.15,34.83-58.34,50-2.09,1.43-3.53,1.49-5.6.07-26-17.88-50.3-36.64-65.71-59.82-14.68-22.09-7.47-44.75,19-60.71,41.4-24.93,111.25-9.61,123.07,27A37.45,37.45,0,0,1,599.9,521.57Z"/><path class="cls-9" d="M460.43,803.65c-1.75,0-3.5,0-5.25,0-4.14,0-6.16-1.31-6-4.12.52-11.73-.87-9.93-14.41-13.86-1.45-.42-3-.75-4.35-1.24-4.53-1.6-8.34-1-11.76,1.5-10.39,7.7-10.43,5.92-19.41-.14-6-4-6-4.92-.06-8.91,1.61-1.08,3.22-2.17,4.79-3.28,2.15-1.53,2.65-3.27,1.45-5.24-2.07-3.39-4.12-6.78-6.18-10.18-1.55-2.57-4.14-3.86-8.48-3.78-15.78.3-14.8,0-14.68-10.56.05-4.22,1.71-5.74,7.78-5.19,10.57.94,16.09-2.11,18.34-8.75a7.31,7.31,0,0,1,.8-1.31c4.37-7,4.37-7-3.72-12.48-6-4.07-5.95-4.84-.12-8.92,11.07-7.75,10.1-6.32,19.49-.19a12.48,12.48,0,0,0,12.14,1.5c3.87-1.35,8-2.35,12.09-3.41,4.27-1.11,6.3-3.05,6.26-6.22-.1-9.69-1.73-9.72,14.92-9.55,6.93.07,8.17.89,8.14,5.7-.05,9.59-.19,8.34,12,11.67,13.8,3.76,11.14,5.12,22.82-2.76,3.95-2.67,6.38-2.71,10.21,0,10.07,7.2,13.72,7.06.86,14.71-3.18,1.89-3.5,4.21-1.86,6.79,2,3.15,4,6.32,5.82,9.51,1.47,2.54,4.07,3.63,8.1,3.57,17.28-.28,14.64.5,14.81,10.4.07,4.49-1.42,5.94-7.89,5.35-10.45-.95-15.72,2.14-18,8.59a12.68,12.68,0,0,1-1.17,2c-4,6.83-4,6.83,3.83,11.89,6.13,4,6.07,4.82.32,8.91-9.6,6.81-9.73,7.48-19.75.17-3.38-2.46-6.92-2.83-11.3-1.47s-8.66,2.55-13.09,3.66c-4,1-5.89,2.79-5.68,5.66.06.71,0,1.42,0,2.13C472.11,803.66,472.11,803.66,460.43,803.65Z"/><path class="cls-10" d="M842.12,782.28l105.65.12a25.21,25.21,0,0,0,2.59-.25c4.19,1.74,3.76,4.13,2.32,6.82s-4.32,5.38.93,8.37c3.6,2,.78,5.76-4.41,6.51-3.05.43-5.62.83-6.59,3.28-.73,1.86-1.63,3.16,2.08,4.11,3.39.87,3.11,3.25,2.54,5.26-.52,1.84-2.51,2.75-5.3,2.82-1,0-2.09.07-3.14.08-3,0-3.5,1.54-4.31,3-1,1.83,1.18,1.93,2.62,2.38,3.61,1.15,4.72,3.12,3.79,5.57s-3.69,3.2-7.22,3.17c-3.84,0-7.68.07-11.53.11-1.8,1.4-4.25,1.51-6.73,1.53-13.12.08-26.24.06-39.37,0a19.18,19.18,0,0,1-7.41-1.51c-3.85-.06-7.69-.12-11.54-.16-3.57,0-5.53-1.46-6.13-3.62s.79-3.75,3.56-4.7c1.67-.57,3.92-.58,2.79-2.58-.88-1.57-1.4-3.28-4.63-3.24-3.55.05-6.84-.38-7.95-3s.71-4.54,4.38-5.69c1.92-.6.91-1.67.43-2.45-.93-1.54-.78-3.71-4.39-3.89a12,12,0,0,1-5.36-1.27c-3.3-1.85-3.67-4.76-.21-6.74,2.4-1.38,2.47-2.59,1.48-4.29-.83-1.43-1.4-2.93-2.24-4.35C837.28,785.11,838.32,783.32,842.12,782.28Z"/><path class="cls-11" d="M1401.88,797.43c-9.11-.23-9.66,0-13.49,5.65-1.6,2.37-3.07,4.78-4.78,7.11-2,2.71-1.33,4.95,1.8,7.08,11.38,7.74,9.15,7.35-.73,13.67-5.76,3.68-7,3.65-12.39-.17-1.57-1.12-3.15-2.23-4.7-3.35-2.43-1.77-5.27-2.17-8.59-1.33q-7.37,1.88-14.78,3.67c-4.17,1-6,2.91-6,5.92-.18,10,.19,9.51-14.37,9.24-8.41-.16-9-.55-8.94-6.14,0-1.42.08-2.85.2-4.26.2-2.54-1.29-4.29-4.82-5.33q-7.47-2.18-14.78-4.59a10,10,0,0,0-9.1,1,15.06,15.06,0,0,1-1.56,1c-3.41,1.62-5.64,5.57-10.59,4.22-5.5-1.52-8.93-5.16-12.31-8.46-.9-.89-.51-2.08.56-3,.54-.46,1.22-.85,1.77-1.31,3-2.52,9.24-3.81,8.79-7.51-.64-5.19-4.14-10-7.63-14.62-1.48-2-5-1.87-8-1.95-13.55-.35-13,.52-12.62-9.28.22-6.12,1-6.63,10.14-6.51,1.92,0,3.84.07,5.77.13,3.55.1,5.94-.91,7.37-3.18,2.12-3.37,4.33-6.73,6.77-10,1.76-2.37,1.11-4.32-1.4-6.16a20.11,20.11,0,0,1-1.76-1.31c-2.4-2.18-7.84-3.68-5.87-6.93,2.27-3.74,7.52-6.07,12.46-8.29a5.77,5.77,0,0,1,4.47.41c.57.25,1,.65,1.55.95,3.83,2.11,5.84,6.45,11.5,6.16,7.48-.39,14.36-2.87,21.14-5,3.16-1,3.15-3.5,3.25-5.67.39-8.77.4-8.77,13.32-8.39,1.4,0,2.79.15,4.19.15,4.29,0,5.93,1.53,5.79,4.26-.59,11.72-1.42,9.22,14.17,14.28,1.73.57,3.55,1,5.26,1.6a9.4,9.4,0,0,0,8.64-.91,10.83,10.83,0,0,1,1.21-.68c3.57-1.72,5.86-5.7,11-4.66,5.61,1.14,8.65,5,12.19,8,1.93,1.65.45,3.4-1.68,4.69-12.16,7.36-10.87,5.92-5,16.52.73,1.33,1.48,2.66,2.16,4,1.15,2.3,3.53,3.44,7.08,3.5.35,0,.71,0,1,0,4.37.46,10.1-1.1,12.83,1.7,3.28,3.37.86,7.61.56,11.46-.17,2.16-2.89,2.79-5.75,2.81C1405.37,797.65,1403.62,797.5,1401.88,797.43Z"/><path class="cls-12" d="M667.06,427.5c-20.8,0-41.6-.07-62.41.05-4.15,0-6.51-.81-8.5-2.81-9.6-9.62-.18-21.88,18.79-24,3.18-.35,5-1.06,6.85-2.54,20.12-16.57,59.54-16.08,78.3,1,2.13,1.95,3.93,2,7.44,1.58,11.67-1.33,21.8.42,29.05,6.08,7,5.46,7.3,11.33,2.33,17.4-1.91,2.33-4.67,3.32-9.44,3.29C708.67,427.41,687.87,427.5,667.06,427.5Z"/><path class="cls-13" d="M1217.32,646.32a135.16,135.16,0,0,0,20.15,4.58c6.72,2,6.76,2,4.47,7q-15.59,33.54-31.18,67.07c-2.19,4.73-6.43,8-13.84,8.5-8.18.51-15.78-.94-21-5.59-3.27-2.89-2.5-6.23-1-9.53q11.23-24,22.38-48.09c3.26-7,6.73-14,9.68-21,1.36-3.27,3.26-4.79,8.28-3.08A9.48,9.48,0,0,0,1217.32,646.32Z"/><path class="cls-14" d="M571.34,729.58c-5,.62-7.57-.66-6.93-3.94,1-5.17-5.34-5.31-9.71-6.86a8.62,8.62,0,0,0-9.16,1.69c-3.42,2.91-6,1.42-9-.51-3.13-2-4.78-3.92-.63-6.09,4-2.09,3.69-4.41,1.83-7.23s-3.12-6.16-9.64-5.52c-5.2.51-6-1.78-6-4.65s.83-5,6.09-4.51c4.6.42,7.14-1.08,8.54-4,1.47-3.05,5-6-.76-8.82-3.48-1.7-3.25-3.62,0-5.56,2.84-1.71,5.28-4.41,9.3-1.17,3,2.39,6.19,3.11,10.53,1.6s9.43-2.09,8.57-6.72c-.7-3.8,3.32-3.89,7.56-3.95,4.53-.06,6.85,1.17,6.2,4.16-.92,4.29,3.71,5,7.85,6.3,4,1.23,7.49,1.77,10.64-1.06s6.23-1.8,9.46.38,4.27,4.09.26,6.14c-4.75,2.43-2.73,5.09-1.12,7.93s3.38,5.25,8.83,4.76,6.56,1.58,6.49,4.72-1.37,4.86-6.39,4.46c-4-.32-6.9.58-8.08,3.34-1.33,3.09-5.68,6.21.21,9.26,3.93,2,3.33,4-.09,6.11-3.09,1.95-5.73,3.67-9.37.52a8.54,8.54,0,0,0-9.19-1.53c-4.18,1.55-10.36,1.57-9.55,6.59C578.63,728.75,576.27,730.42,571.34,729.58Z"/><path class="cls-15" d="M1224.38,794.42c-.07,1.54-1.31,2.43-2.71,3.13-3.72,1.86-4,4-2.36,6.84,2,3.6,3.71,6.75,11,6.34,5.42-.3,3.78,2.87,4,4.91.28,2.29-.6,4.22-4.76,3.83-6.06-.56-8.67,1.63-10.94,5-2.15,3.22-2.55,5.74,1.79,8.18,3,1.69,2.39,3.56-.51,5.06-2.63,1.35-4.53,4.3-9,1.46-5.49-3.47-11.46-3.44-17.59-.47-2.53,1.23-2.67,3-2.57,4.77.18,3.32-2.61,3.84-6.72,3.75s-7.52-.66-6.65-4.17c1.26-5.08-4.93-5.4-9.27-7.11a8.85,8.85,0,0,0-9.61,1.44c-3,2.33-5.41,2-8.12-.24-2.5-2-6.1-3.77-1.27-6.37,3.59-1.93,4.73-4.12,2.65-7.13s-2.67-6.53-9.55-6c-5.28.36-5.61-2-5.59-4.87s1.23-4.68,6-4.21c7.32.74,8.18-3.24,10.62-6.28,2.22-2.77.9-4.71-2.19-6.52-4.22-2.48-1.53-4.21,1.3-6.07s5.71-3.2,8.53-.29c3.75,3.89,8.2,2.26,12.86,1.22s7.14-2.74,6.74-6.19c-.47-3.94,3.72-3.46,7.44-3.51,4-.06,6.88.76,6.08,3.8-1.29,4.94,4.18,5.8,8.81,7.41,4.21,1.45,7.3.65,10.16-1.58,1.25-1,2.87-2.15,4.91-1.15C1220.58,790.73,1223.56,792.1,1224.38,794.42Z"/><path class="cls-16" d="M633.23,756.66c-3.92-.15-8.39,2.35-8.54,5.1-.11,2.24-2,2.43-4.51,2.46-2.74,0-5.14-.28-4.65-2.67s-1.67-3.27-4.46-4-5.5-1.52-7.87.7c-2.18,2-4,.82-5.92-.44s-3.07-2.43-.43-3.77,2.75-2.94,1.35-4.94-2.27-4.05-6.49-3.63c-3.35.33-3.66-1.1-3.57-2.85s0-3.35,3.4-3c4.18.41,5.32-1.41,6.64-3.48s1.53-3.52-1.3-5c-2.6-1.31-1.52-2.52.39-3.78s3.79-2.32,6-.39,4.59,1.44,7.44.68c3.07-.82,5.23-1.68,4.8-4.26s2.41-2.32,4.93-2.38c2.73-.07,4.54.42,4.12,2.55s1.18,3.22,4,3.9c3,.72,5.77,1.74,8.39-.59,2.28-2,4.08-.61,6,.57,2.1,1.31,2.58,2.51.15,3.79s-2.77,2.76-1.32,4.64,2,4.13,6.41,3.69c3.66-.37,3.69,1.35,3.78,3.16s-.69,3-3.8,2.72c-4.32-.4-5,1.88-6.36,3.79-1.16,1.65-1.61,3.1.87,4.39,2.76,1.43,2.4,2.7,0,4.33s-4.28,1.69-6.4-.1A4.05,4.05,0,0,0,633.23,756.66Z"/><path class="cls-17" d="M868.63,833.69l53.51,0c-.74,9.24-10.31,15.87-24.39,16.88-11.37.83-24-5.28-27.26-13.15C870,836.13,869.25,834.92,868.63,833.69Z"/><path class="cls-18" d="M901.12,502.09v17.75c0,2.56-.65,4.94-5.39,5s-5.35-2.28-5.37-4.88c-.08-11-.24-22-.37-33a20.11,20.11,0,0,1,.11-3.2c.34-2.27,2-3.85,5.63-3.8s5.14,1.72,5.16,4c0,6,0,12.07,0,18.1Z"/><path class="cls-19" d="M1052.89,596.69c-3,0-5-.68-5.64-2.4-.78-2.06.24-3.61,3.09-4.75,11.13-4.45,22.17-9,33.25-13.5,4.34-1.77,8.62-3.61,13.05-5.26,2.82-1,5.93-1.25,7.87.88s.69,4.14-2.42,5.41q-23.08,9.45-46.24,18.84A21.27,21.27,0,0,1,1052.89,596.69Z"/><path class="cls-20" d="M1020.75,718.26c-.15-1.59.8-2.79,3-3.44a7.47,7.47,0,0,1,6.28.78c5.61,3.39,11.29,6.73,16.92,10.1,7.74,4.62,15.42,9.29,23.21,13.87,3.09,1.82,4.49,3.88,1.42,6.07s-6,1.07-8.72-.59q-19.44-11.67-38.95-23.27C1022.27,720.83,1020.67,719.88,1020.75,718.26Z"/><path class="cls-21" d="M1031.41,510.46c-.11.79-1.2,1.73-2.2,2.7l-29.09,28.21-.31.28a6.85,6.85,0,0,1-8.31,1.85c-3.93-1.72-2.7-4.07-.53-6.18q11.65-11.36,23.42-22.67c2.51-2.42,5-4.87,7.61-7.21a6.46,6.46,0,0,1,6.5-1.18C1030.83,507,1031.8,508.28,1031.41,510.46Z"/><path class="cls-21" d="M795.22,540.85c0,1.29-.77,2.32-2.44,2.91a7.09,7.09,0,0,1-5.9-.23,15.49,15.49,0,0,1-3-2.42q-14.33-13.75-28.6-27.55c-3.17-3-3.35-5.64-.25-6.8,4.25-1.6,6.72.14,9,2.37,9.65,9.42,19.39,18.8,29.12,28.18C794.26,538.39,795.38,539.43,795.22,540.85Z"/><path class="cls-21" d="M679.23,574.24c-.15-3.31,3.92-4.85,8.48-3.2,4.16,1.5,8.13,3.25,12.18,4.89,11.11,4.5,22.19,9,33.33,13.47,3.31,1.33,6,3,3.73,5.67-2.46,2.89-6,2.06-9.49.64q-22-9-44.07-17.91C681.2,576.91,679.18,576.05,679.23,574.24Z"/><path class="cls-19" d="M715.94,746.88c-2.25,0-4-.48-4.8-1.83a2.74,2.74,0,0,1,.61-4,31.36,31.36,0,0,1,3-2Q733.19,728,751.64,717a25.16,25.16,0,0,1,2.86-1.55c2.53-1.11,5.06-1,7.08.5s1.95,3.26-.05,4.82a33.38,33.38,0,0,1-3.42,2.2q-18.23,11-36.48,21.88C719.94,745.82,718.39,747,715.94,746.88Z"/><path class="cls-22" d="M1093.42,656.83c-8.56,0-17.13,0-25.7,0-4,0-7.34-.72-7.26-3.77s3.57-3.65,7.48-3.61q26,.28,51.92.49c4,0,7.27.77,7,3.89-.24,2.87-3.46,3.38-7.21,3.35-8.74-.1-17.48,0-26.23,0Z"/><path class="cls-23" d="M689.41,657.51c-8.57,0-17.14-.06-25.7,0-3.72,0-6.92-.41-7.24-3.32s2.65-3.94,6.42-4q27.29-.19,54.56-.31c3.42,0,5.4,1.25,5.45,3.43.05,2.37-2.18,3.72-5.68,3.74-9.27.06-18.54,0-27.81,0Z"/><path class="cls-24" d="M903.29,549c28.27.88,53.15,7.88,74.79,19.9,24,13.35,39.83,30.48,45.77,51.21,6,21,2.87,41.43-11.3,60.84-9.06,12.41-21.95,23-34.26,33.91-16.32,14.45-29.56,29.89-33.55,48.26a68.79,68.79,0,0,0-1.29,7c-.27,2.3-2.09,2.92-5.22,2.9-13.82-.09-27.64-.08-41.46-.11-7.25-.54-7.56-.71-7.58-6.31-.1-29.45,0-58.9,0-88.35a39.79,39.79,0,0,0-.66-8.84c.27-1.76,2.17-2.34,4.36-2.52a33.79,33.79,0,0,0,17.14-6.3c4.71-3.3,6.33-3.31,12.45-1.16a100.85,100.85,0,0,0,17.06,4.41c3.1.51,5.41,1.53,7.08,3.34.93,1,1.73,2.21,3.17,2.8,5.68,2.36,5.12,5.56,3.65,9.28-9.94,25.16-18.5,50.54-28.17,75.74-.58,1.51-2.15,3.93.58,4.44,3.59.68,3.39-2.18,4-3.69,8.65-23.07,17.14-46.16,25.64-69.26,1.22-3.33,2.74-6.61,4.05-9.93.85-2.14,2.6-3.57,5.85-4.09a8.4,8.4,0,0,0,1-.24c6.94-1.75,10.73-5.2,9.75-8.85-1.06-3.95-8.33-7.6-15.06-7.25-4.94.26-9.47,1.19-12.78,4.17-4.1,3.69-7.45,4.18-13.75,2.49-4.19-1.12-8.64-1.84-12.37-3.72-4.12-2.08-5-3.76-3.1-7,1.09-1.87,2.92-3.91-.48-5.38-2.94-1.27-5.74-.16-8.13,1.17-2.8,1.56-2.62,3.44-1,5.43,3.65,4.62,3.51,5-2,8.73a24.19,24.19,0,0,1-15.89,4.43c-2.93-.2-5.29-.79-4.17-3.35,2.16-2.36,1.88-5,1.88-7.6q0-47.79,0-95.58c0-1,0-1.9,0-2.85C889.43,548.56,887.59,548,903.29,549Z"/><path class="cls-9" d="M903.29,549c-12.74.27-11.62-1.42-11.62,8q0,51.09,0,102.19c0,2.12,1,4.8-4.18,5-7.31,2.2-9.08-2.64-12.67-4.81-3-1.82-4.09-4.45-1-7,1-.83,2.16-1.55,3.07-2.43,1.34-1.3,1.75-2.71,0-3.9a12.3,12.3,0,0,0-9.17-1.66c-2.42.43-2.89,1.9-2.77,3.43a5.51,5.51,0,0,0,.51,1.74c2.18,5.19,1.73,5.8-5.85,7.91-3.4,1-6.68,2.06-10.06,3a13.23,13.23,0,0,1-11.47-1.38c-5.9-3.55-13.93-3.94-20.46-1.28-3.84,1.56-6.53,3.72-6.06,6.93s2.66,6,7.36,6.71c8,1.12,10.19,4.89,12,9.47,8.16,20.21,16.91,40.31,25.25,60.49,1.93,4.67,3.82,9.35,5.88,14a15.71,15.71,0,0,0,1.44,2.67,2.49,2.49,0,0,0,2.68,1.35,1.51,1.51,0,0,0,1.39-2,27.19,27.19,0,0,0-1.87-5.54c-9.05-21.52-18.16-43-27.05-64.57-1.37-3.3-2.76-6.6-4.23-9.88-1.16-2.61-.83-4.85,2.5-6.73a10.66,10.66,0,0,0,5.06-5.7c.63-1.76,2.11-3,4.59-3.6,5.8-1.35,11.21-3.33,16.91-4.84,3.57-.93,6.52-.58,8.91,1.45a37.81,37.81,0,0,0,14.8,8.28c1.36.38,2.29,1.07,2.37,2.15,2.2,1.78,2.1,3.91,2.1,6.06,0,31.12,0,62.24-.1,93.36,0,2.79.94,4.54,5.2,5-13.65,0-27.31-.09-40.95.18-5.18.1-6.85-1.46-7.15-4.5-.8-8.25-4.23-16.07-8.78-23.66-6.1-10.18-15.22-19.15-25.06-27.81-11.62-10.21-24.24-19.93-34.09-31-12-13.53-19-28-19.59-43.94-.61-16.64,4.09-32.23,15.93-46.81,14.31-17.61,35.18-30.37,62-38.87,18.45-5.84,38-7.82,58-8.12C899.23,548.34,901.37,548.22,903.29,549Z"/><path class="cls-25" d="M1113.28,414.48c3.66-.15,4.35,1.64,4.63,3.46.43,2.8,2.07,4.28,6.68,3.87a22.85,22.85,0,0,1,6.2.55c5.77,1.11,11.31,2.34,14.17-3.05.68-1.3,3-1.47,5-.65,1.49.61,3,1.21,4.48,1.84,6,2.52,6.25,2.9,2.35,6.87-1.86,1.89-2.08,3.21.6,4.79A16.55,16.55,0,0,1,1162,436c2.89,3.68,5.68,7,13.28,4.7a3.39,3.39,0,0,1,4.21,2c.38,1,.71,2.07,1.06,3.11,1.64,4.94,1.59,5.26-5.54,6.27-3.54.5-4.39,1.55-4.45,3.8a16.67,16.67,0,0,1-2.28,8.69c-1.23,2-.41,3,2.19,3.93,2.32.86,6,1.57,5.09,3.91a12.16,12.16,0,0,1-7,7.19c-2.64,1-4.9-.75-7-1.7s-3.77-1.14-5.78.33a35,35,0,0,1-11,5.39c-3.3,1-3.58,2.41-2.88,4.52,1.54,4.65,1.26,4.84-5.65,5.94-1,.16-2.11.2-3.07.45-4.25,1.1-6.57-.15-7-2.9-.45-3.24-2.68-4.51-7.42-4.23a22.64,22.64,0,0,1-6.22-.51c-5.59-1.31-10.6-2.18-13.29,2.9-.79,1.5-3.37,1.52-5.48.74-1.68-.63-3.22-1.45-4.93-2-4.52-1.53-5.29-3.63-2.09-6.23,2.63-2.12,2.47-3.76-.74-5.63a18.57,18.57,0,0,1-6.63-6.33c-1.55-2.59-3.85-2.77-7.32-2.17-6,1-6.81.6-8.18-3.53a17,17,0,0,0-.73-2.07c-1.43-3,0-4.87,4.81-5.21,4.07-.29,6-1.39,5.6-4.51a12.24,12.24,0,0,1,2-7.64c1.2-2.09.87-3.43-2.29-4.58-2.28-.82-6-1.6-4.79-4a14.19,14.19,0,0,1,6.89-6.92c1.78-.79,3.87,0,5.29.85,3.68,2.28,6.49,1.71,9.54-.69,2.76-2.17,6.59-3.51,10.36-4.76,1.92-.65,2.33-1.35,2-2.76C1101,416.42,1103.82,414.41,1113.28,414.48Z"/><path class="cls-26" d="M1328.61,573.77c-.06,24.48-29.78,44.7-65.72,44.7-36.37,0-66.5-20.25-66.42-44.65.08-25.21,29.66-44.76,67.65-44.71C1299.3,529.15,1328.67,549.49,1328.61,573.77Z"/><path class="cls-27" d="M523.64,484.23c31.87-.17,57.62,16.88,58,38.37.35,21.32-25.4,39-56.93,39.18s-57.45-17-58.11-38.5C465.93,502.15,491.86,484.4,523.64,484.23Z"/><path class="cls-28" d="M407.22,746.28c-1-19.21,23.5-36,52.81-36.09,30.18-.08,54.73,16.33,54.24,36.38s-22.73,36.36-54.45,36.2C430.24,782.62,406.79,766.91,407.22,746.28Z"/><path class="cls-28" d="M1382.42,787.72c0,20.59-23.57,36.78-53.75,36.46-30-.32-53.19-15.9-53.21-36.32,0-21.35,25.58-36.78,55.89-36.24C1359.22,752.11,1382.44,768.12,1382.42,787.72Z"/><path class="cls-29" d="M571,711.41c-12.32,0-21.89-6.55-21.9-14.89s10-15,22.41-15c11.93,0,21.93,6.87,21.91,15C593.4,705,583.71,711.45,571,711.41Z"/><path class="cls-30" d="M1185.71,799.17c12.61.11,22.3,6.8,22,15.21-.27,8.14-10.63,15-22.43,14.77-12-.19-22.23-7.13-22.13-15C1163.27,805.62,1173.17,799.07,1185.71,799.17Z"/><path class="cls-29" d="M634.4,742.63c-.07,5.3-6.57,9.69-14.33,9.69-8,0-14.49-4.55-14.34-10,.14-5.21,7-9.7,14.58-9.56C628.14,732.89,634.46,737.33,634.4,742.63Z"/><path class="cls-31" d="M889.57,668.51a34.8,34.8,0,0,1-18.76-9.13c-1.9-1.75-3.61-2.29-6.55-1.2a85.49,85.49,0,0,1-8.62,2.6c-6,1.53-12.25,2.88-13.19,8.17a.47.47,0,0,1-.26.3c-9.24,4-4.8,9.22-2.77,14.11,6.77,16.29,13.75,32.54,20.61,48.81q4.76,11.26,9.38,22.55a16.09,16.09,0,0,1,1.11,3.47c.32,1.93-.34,3.62-3.62,4.07-3,.41-4.64-.76-5.45-2.52-2.15-4.63-4.33-9.26-6.28-13.93q-12.79-30.57-25.46-61.17a34.61,34.61,0,0,1-1.61-4.11c-1.05-3.76-3.42-6.28-9.65-7.21-6.05-.91-9.05-4.35-9.62-8.43s2.92-6.66,7.67-8.62c7.31-3,18.7-2.19,23.68,1.94,2.05,1.69,4.44,2,7.46,1.08,4.59-1.45,9.28-2.77,14-4.09,2.75-.77,3.7-1.74,2.24-3.81-1.88-2.69-3.37-5.72.47-8.16,2.57-1.64,10.36-.89,13.9,1,3.28,1.72,3.76,3.78,1.7,6.25-1.69,2-7.36,2.93-5.24,5.86a19.93,19.93,0,0,0,12.78,8c7.79,1.74,18.16-1.19,22-6.13,1-1.28,0-2-1-2.8-7.13-5.77-1.38-9.71,6.18-10.85,6.82-1,10.4,2,8,6.51-2.82,5.37-1.44,7.17,6.84,9a47.08,47.08,0,0,1,5,1.1c5.28,1.8,8.88,1,12.49-2.33,7.68-7,25.9-5.28,31.12,2.74,2.79,4.29-1.45,10.42-9.1,11.85-5.21,1-7,2.93-8.24,6.22-9.54,26.1-19.34,52.16-29.07,78.23-.51,1.38-.67,2.9-2.32,3.89a6.87,6.87,0,0,1-5.9.22c-2.16-.79-2.48-2.14-1.91-3.69,3.33-9.07,6.57-18.16,9.92-27.24q10.13-27.37,20.35-54.75c.63-1.68.79-3-2-3.79A1.62,1.62,0,0,1,949,672c-4.87-6.84-15.56-7.24-24.12-10a29.4,29.4,0,0,1-4.25-1.36c-3.66-1.89-6.38-1.06-9,1.07C906,666.43,898.56,668.69,889.57,668.51Z"/><path class="cls-32" d="M1090.27,454.47c.1-11.74,14.59-21.42,32-21.35s31.73,9.95,31.54,21.67-14.69,21.46-32,21.32C1104.28,476,1090.17,466.28,1090.27,454.47Z"/><path class="cls-12" d="M1234.42,546.2c10,0,18,5.32,18,12.14s-7.69,12.21-17.76,12.3c-10.26.08-18.41-5.39-18.34-12.3S1224.39,546.23,1234.42,546.2Z"/><path class="cls-33" d="M492.27,522.9c.05-12.13,14.15-21.64,32-21.58s32.16,9.8,32,21.7-14.53,21.66-32.19,21.64S492.22,535,492.27,522.9Z"/><path class="cls-34" d="M417.47,748.17c-2.52-15,16-29.75,40.38-30.91,21.69-1,43.47,9,45.84,27.2,1.79,13.74-12.37,29.64-40.38,31.26C441.52,777,419,765.55,417.47,748.17Z"/><path class="cls-35" d="M1329.56,758.79c23.9.08,43.35,13.55,42.91,29.71-.44,15.88-20.32,28.79-44.12,28.66-23.11-.14-42.75-13.65-42.6-29.32C1285.91,771.65,1305.42,758.71,1329.56,758.79Z"/><path class="cls-36" d="M1185.69,822.2c-6.94,0-12.43-3.67-12.39-8.21s5.84-8.23,12.54-8.15,11.78,3.76,11.69,8.25S1192.25,822.22,1185.69,822.2Z"/><path class="cls-12" d="M1098.5,454.75c-.06-9,10.21-16,23.5-16.05,13,0,23.78,7.21,23.71,16-.07,8.61-10.74,15.89-23.37,15.94C1109.21,470.71,1098.56,463.61,1098.5,454.75Z"/><path class="cls-29" d="M460.4,772.45c-21.15,0-38.38-11.68-38.37-26s17.47-26.1,38.93-26c20.88.08,37.93,11.69,38,25.86C499.05,760.92,482,772.47,460.4,772.45Z"/><path class="cls-37" d="M1290.77,787.91c-.08-14.43,16.86-26,38.14-26s38.56,11.51,38.66,25.78c.11,14.52-17.17,26.27-38.54,26.23S1290.85,802.42,1290.77,787.91Z"/><path class="cls-38" d="M460.68,758.33c-10.15.07-17.68-4.82-17.86-11.6s7.34-12.12,17.11-12.22c10.32-.11,18.32,5,18.39,11.72C478.4,753.27,471.12,758.26,460.68,758.33Z"/><path class="cls-39" d="M1328.91,775.87c9.85-.07,17.68,5.06,17.9,11.7.21,6.83-7.55,12.29-17.55,12.35s-17.91-5.29-17.92-12.11C1311.33,781.14,1319,775.94,1328.91,775.87Z"/><path class="cls-12" d="M315.12,220.55c-29.35,0-58.71-.14-88.06.11-6.45.05-10-1.43-13.15-4.64-19.78-20-9.67-45.8,22.81-57.73,32.22-11.83,73.79-4.69,91.78,16,2.54,2.92,4.9,3.92,10.34,3.85,21.41-.27,39.68,9,43.64,22,.92,3,2.61,3.86,7.48,3.8,11.9-.13,21.07,5.33,22.19,12.47.48,3-.74,4.26-6.21,4.23C375.67,220.46,345.4,220.55,315.12,220.55Z"/><path class="cls-12" d="M1434.58,220.25c-30,0-60-.08-90,.08-5.12,0-7.86-1.17-10.26-3.77-14.27-15.44-.2-34.35,28.18-37.4,3.31-.35,5.14-1.07,6.93-2.76,28-26.48,86.93-25.66,112.5,1.63,2.3,2.46,4.25,2.46,8,1.81,16.34-2.79,33,.79,42.78,9,9.59,8,10.39,19.09,2.33,27.8-2.43,2.63-5.33,3.73-10.38,3.7C1494.62,220.18,1464.6,220.25,1434.58,220.25Z"/><path id="path4754" class="cls-40" d="M772.15,353.69l.05-15.31h251.57l0,15.31.05,15.31H772.11Zm149.38,10.84a9.44,9.44,0,0,0,6.59-4c1.21-2.08,1.25-2.48,1.26-10.65v-7.39l-3,0-3,0v7c0,7.65-.08,8.39-1,9.6s-2.06,1.56-4,1.55c-2.73,0-4.28-1.1-4.86-3.45a68.51,68.51,0,0,1-.22-7.76v-6.9l-3,0-3,0v7.47c0,6.55,0,7.61.33,8.58a7.54,7.54,0,0,0,2.52,3.94,9.08,9.08,0,0,0,4.62,2.08,25.57,25.57,0,0,0,6.88,0Zm87.88-.16a9.68,9.68,0,0,0,4.3-2.14,4.69,4.69,0,0,0,1.63-4,3.7,3.7,0,0,0-.63-2.54c-1-1.74-2.36-2.62-6.33-4.1-3.13-1.18-3.71-1.46-4.4-2.12-1.13-1.09-.63-2.48,1.11-3.07,2.2-.74,5.22-.42,9,1,.18.07.24-.42.24-2.18v-2.27l-1.1-.26a26.56,26.56,0,0,0-9.81-.17,9.89,9.89,0,0,0-4.6,2.11,4.36,4.36,0,0,0-1.81,4,3.74,3.74,0,0,0,.62,2.63c1,1.76,2.84,2.91,6.65,4.19,3.34,1.12,4.69,2.08,4.69,3.34,0,1-.67,1.56-2.22,1.94a15,15,0,0,1-5.65-.14,20.14,20.14,0,0,1-3.58-1.51l-.43-.27.05,2.49,0,2.48,1.06.31a21,21,0,0,0,7,.7,23.61,23.61,0,0,0,4.21-.33ZM802.82,353.61c2.52-6,4.62-10.93,4.66-11.05s-.63-.2-3.08-.2h-3.18l-1,2.56c-2.93,7.85-4.87,13.23-5.08,14.09l-.24,1-.13-.65c-.08-.36-1.49-4.33-3.13-8.82l-3-8.16h-3.22a22.88,22.88,0,0,0-3.22.12c0,.07,2,5,4.55,11l4.55,10.92h6.89l4.58-10.84Zm30,8.81v-2H822.65v-5h8.81v-4.07h-8.81v-4.87h9.58l-.05-2,0-2H816.62l0,11-.05,11H832.8Zm15.85-5.72-.07-7.76,2.4,3c1.32,1.66,4.12,5.15,6.22,7.76l3.81,4.74h6.06v-22.1l-2.83,0-2.82,0V350c0,5.06-.06,7.44-.19,7.27l-6-7.55-5.84-7.32h-6.42v22.09h5.79Zm41.77-1.26v-9h7.66v-4.06H876.64v4.06l3.78,0,3.78,0,0,9,0,9h6.12Zm56.67,4.79V356h1.06c2.15,0,2.62.4,6.31,5.4l2.25,3h3.44c3,0,3.43,0,3.34-.24s-1.33-1.78-2.81-3.66c-2.83-3.58-4.39-5.17-5.53-5.68-.61-.27-.65-.31-.31-.41a9.63,9.63,0,0,0,4.6-2.84,5.55,5.55,0,0,0-.11-6.59c-1.7-2.1-5.09-2.74-14-2.64l-4.31.05,0,11,0,11h6.13Zm0-11,.06-3,2.15,0a6.76,6.76,0,0,1,3.06.41,2.3,2.3,0,0,1,1.65,2.39,2.66,2.66,0,0,1-1.33,2.43c-.89.62-1.93.84-4,.84h-1.64Zm40.93,13.2v-2h-9.95v-5h8.81l0-2,0-2-4.36-.05-4.35,0v-4.87h9.38v-4.06H972v22.09h16.08ZM860.28,330c-5.81-.78-10.1-4.05-11.72-8.94a12.35,12.35,0,0,1-.34-4.05c0-2.79,0-3.11.53-4.43a12.12,12.12,0,0,1,2.34-4.11,13.81,13.81,0,0,1,7-4.32c1.75-.51,1.91-.52,5-.53,3.55,0,4.66.17,7,1.14a12.56,12.56,0,0,1,7.21,7.79,11.68,11.68,0,0,1,.42,4.06,11.43,11.43,0,0,1-.43,4.14c-1.46,4.62-5.13,7.81-10.27,8.93a24.84,24.84,0,0,1-6.69.32Zm5.7-5.4c3.07-1.19,4.57-3.75,4.57-7.75,0-3.13-.82-5.19-2.66-6.76a6.66,6.66,0,0,0-4.84-1.56,6.75,6.75,0,0,0-5,1.64c-1.94,1.61-2.78,3.62-2.78,6.68a13.25,13.25,0,0,0,.26,2.76,7.46,7.46,0,0,0,5.52,5.36A11.08,11.08,0,0,0,866,324.61Zm28.08,5.47c-.26,0-1-.18-1.68-.33l-1.19-.26v-2.67a11.78,11.78,0,0,1,.14-2.62,8.9,8.9,0,0,0,3.34.91,4,4,0,0,0,2.33-.35,4,4,0,0,0,2.35-2.56c.31-.79.35-1.74.41-9.6l.06-8.73h6.68v8.75c0,9.91-.06,10.48-1.34,12.81a8.91,8.91,0,0,1-6,4.34,23.8,23.8,0,0,1-5.07.31Zm75.66-.06c-7.22-.87-11.72-5.15-12.21-11.62-.59-7.65,4.73-13.6,13.15-14.71a39.72,39.72,0,0,1,8.4.25c2.3.47,2.11.16,2.11,3.34V310l-.95-.4c-3.5-1.51-8.47-1.49-11.32.05a8.06,8.06,0,0,0-3.9,4.66,11.48,11.48,0,0,0,0,5.15,7.65,7.65,0,0,0,5.39,5.19,10.27,10.27,0,0,0,3.49.35,14.35,14.35,0,0,0,6.08-1l1.21-.46,0,2.63-.06,2.63-1.05.35a21.66,21.66,0,0,1-2.54.61,39.85,39.85,0,0,1-7.76.26Zm-197.37-13.2,0-12.87h6.5c5.49,0,6.77.06,8.14.3,4,.72,6.52,2.63,7.25,5.59a11.06,11.06,0,0,1,.21,2.28,6.74,6.74,0,0,1-2.76,5.81c-2.43,2.08-5.06,2.83-9.86,2.83h-2.69v8.93H772.3Zm12-.7a3.76,3.76,0,0,0,2.91-4.88,2.56,2.56,0,0,0-1-1.63c-1.07-.91-2.26-1.2-4.94-1.2h-2.07v8h2.07a14.28,14.28,0,0,0,3.06-.25Zm26.27.64V303.82l6.84.09a62.29,62.29,0,0,1,8.24.35c4.55.87,6.75,3,6.74,6.58,0,3.27-1.92,5.62-5.63,6.9-1.08.37-1.1.39-.66.59,1.56.68,2.84,1.95,5.31,5.23l3.09,4.1,1.53,2-4-.05-4,0-2.63-3.7c-1.45-2-3-4.1-3.43-4.59a4.29,4.29,0,0,0-3.5-1.54h-1.09v9.91h-6.89ZM822.87,315c2.33-1,3.15-3.67,1.67-5.43-.71-.85-1.91-1.17-4.62-1.24l-2.44-.07v7.19h2.18c2,0,2.26,0,3.21-.45Zm101.82,1.83V303.86l8.76,0,8.76.05,0,2.31,0,2.32H931.58v5.84h10v4.71h-10V325h11.3v4.71H924.69Zm79.07,2.35V308.58h-8.62v-4.71h24.13v4.71h-8.62v21.11h-6.89Zm-227.71-26a21.93,21.93,0,0,1-4.26-1l-.83-.32v-5.7l.93.57c3.17,1.93,8.11,2.6,10.82,1.48,1.12-.47,1.52-.86,1.74-1.69.32-1.26-.89-2.49-3.55-3.57l-3.85-1.56c-3.8-1.54-5.7-3.42-6.06-6-.58-4.13,2-7.07,7.24-8.29a31.44,31.44,0,0,1,11.59.37l.48.15v5.31l-1.3-.53a13.54,13.54,0,0,0-5.69-1.1c-2.34,0-3.35.23-4.35,1-1.39,1.1-1.17,2.4.62,3.62a31.6,31.6,0,0,0,3.74,1.66c4.87,1.89,6.4,2.88,7.59,4.93a4.43,4.43,0,0,1,.69,2.64c.2,4.11-2,6.55-7,7.66a38.32,38.32,0,0,1-8.54.3Zm192.58-.06c-5.39-.89-8.26-3.81-8.9-9.05-.11-.9-.2-5.07-.2-9.26v-7.61h6.88l.06,8.56c.07,9.52,0,9.33,1.42,11,.93,1.13,2,1.5,4.38,1.5a5.08,5.08,0,0,0,2.76-.41,5.16,5.16,0,0,0,2.44-2.64c.29-.75.34-1.82.4-9.42l.07-8.56h6.77l0,8.24c0,8.76-.13,9.84-1,11.82q-1.89,4.44-7.42,5.69a30.55,30.55,0,0,1-7.66.17ZM814,282.34V271.87h-8.61v-4.71h24.12v4.71h-8.61v20.95H814Zm24.9,10.36c0-.07,2.45-5.83,5.44-12.79l5.43-12.67,4.1-.05,4.09,0,5,11.82c2.72,6.5,5.16,12.28,5.4,12.84l.45,1-3.77-.05-3.76,0-.15-.41-1-2.8-.9-2.4H848.32l-.2.61c-.11.34-.58,1.6-1,2.81l-.83,2.19-3.67,0a25.65,25.65,0,0,1-3.66-.08Zm18.56-10.12c0-.1-.77-2.24-1.71-4.75s-1.77-4.93-1.84-5.36-.16-.75-.2-.72a4.72,4.72,0,0,0-.27.93c-.1.48-1,2.9-1.91,5.39s-1.72,4.56-1.72,4.6,1.72.08,3.82.08a16.46,16.46,0,0,0,3.83-.17ZM884.1,280V267.13l7.33.07c8,.07,8.21.09,10.59,1.09a6.76,6.76,0,0,1,3.3,2.9c.47.84.51,1.1.51,2.87s0,2-.61,3.05a9.49,9.49,0,0,1-5.7,4.09c-.35.1-.33.14.21.38a9.88,9.88,0,0,1,2.69,2.06c.72.73,7,8.89,7,9.09,0,0-1.75.09-3.88.09h-3.88l-1.32-1.9a69.21,69.21,0,0,0-5.07-6.75,3.54,3.54,0,0,0-3-1.09H891v9.75h-6.9ZM896,278.33a4.65,4.65,0,0,0,2.34-1.81,3.87,3.87,0,0,0,.11-3.27c-.81-1.3-2-1.72-5.08-1.83l-2.34-.09v7.4l2.15-.08a13.63,13.63,0,0,0,2.82-.32Zm32.93,4V271.87h-8.61v-4.71h24.12v4.71H935.6v20.95h-6.7Zm73.9-2.36V267.13l7.13.07c6.06.05,7.31.1,8.28.34,3.75.92,5.79,2.67,6.52,5.6a7.64,7.64,0,0,1-2.67,8.11c-2.39,1.89-4.79,2.59-9.45,2.75l-2.92.1v8.72h-6.89Zm12.41-.81c1.82-.66,2.52-1.71,2.52-3.75a3,3,0,0,0-.53-1.95,2.81,2.81,0,0,0-1.65-1.35c-1-.44-1.31-.49-3.48-.55l-2.38-.07v8.21l2.27-.09a10,10,0,0,0,3.25-.45Z"/><path class="cls-40" d="M777,126.11c-2.69.56-2.92,2.09-.51,3.42l60.34,33.05a12.65,12.65,0,0,1,5.48,7.28l13.8,61.55a3.38,3.38,0,0,0,5.37,2.29L905,207.4a9.13,9.13,0,0,1,8.56,0l43.53,26.3a4.06,4.06,0,0,0,6.08-2.08l58.8-152c1-2.56-.4-4.2-3.09-3.65Zm94.44,92.44c-2.3,1.51-3.5.59-2.67-2l8.33-26.36a3.59,3.59,0,0,1,5.68-2l13.31,8.76c2.3,1.52,2.29,4,0,5.49Zm4.47-43a16.92,16.92,0,0,0-5.32,7.8l-8.21,30.18c-.72,2.66-1.74,2.62-2.26-.08l-8.41-43.29a6.88,6.88,0,0,1,3.54-7.1l105.25-51.42c2.47-1.21,2.68-.86.48.78Z"/><path class="cls-41" d="M777,126.11c-2.69.56-2.92,2.09-.51,3.42l60.34,33.05a12.65,12.65,0,0,1,5.48,7.28l13.8,61.55a3.38,3.38,0,0,0,5.37,2.29L905,207.4a9.13,9.13,0,0,1,8.56,0l43.53,26.3a4.06,4.06,0,0,0,6.08-2.08l58.8-152c1-2.56-.4-4.2-3.09-3.65Zm94.44,92.44c-2.3,1.51-3.5.59-2.67-2l8.33-26.36a3.59,3.59,0,0,1,5.68-2l13.31,8.76c2.3,1.52,2.29,4,0,5.49Zm4.47-43a16.92,16.92,0,0,0-5.32,7.8l-8.21,30.18c-.72,2.66-1.74,2.62-2.26-.08l-8.41-43.29a6.88,6.88,0,0,1,3.54-7.1l105.25-51.42c2.47-1.21,2.68-.86.48.78Z"/></g></g></svg>