<?xml version="1.0" encoding="UTF-8" standalone="no"?>
<svg
   xmlns:dc="http://purl.org/dc/elements/1.1/"
   xmlns:cc="http://creativecommons.org/ns#"
   xmlns:rdf="http://www.w3.org/1999/02/22-rdf-syntax-ns#"
   xmlns:svg="http://www.w3.org/2000/svg"
   xmlns="http://www.w3.org/2000/svg"
   id="svg3763"
   version="1.1"
   viewBox="0 0 133.5882 135.58963"
   height="135.58963mm"
   width="133.5882mm">
  <defs
     id="defs3757" />
  <metadata
     id="metadata3760">
    <rdf:RDF>
      <cc:Work
         rdf:about="">
        <dc:format>image/svg+xml</dc:format>
        <dc:type
           rdf:resource="http://purl.org/dc/dcmitype/StillImage" />
        <dc:title></dc:title>
      </cc:Work>
    </rdf:RDF>
  </metadata>
  <g
     transform="translate(-37.527327,-89.353995)"
     id="layer1">
    <path
       id="path3787"
       d="m 38.256447,224.55869 c -0.572605,-0.25222 -0.72912,-9.04087 -0.72912,-40.94067 v -40.61954 l 9.027269,-7.24237 9.027269,-7.24239 0.01328,-18.34822 c 0.0088,-11.400385 0.242504,-18.814635 0.617676,-19.579885 0.589381,-1.20216 1.737836,-1.23162 48.005449,-1.23162 36.09019,0 47.56865,0.18242 48.10159,0.7641 0.51295,0.55996 0.69996,5.81421 0.69996,19.669255 v 18.90518 l 8.66065,7.07126 8.66067,7.07124 0.38046,6.78756 c 0.63926,11.40535 0.45443,72.74364 -0.22336,74.12619 -0.59172,1.20687 -1.91778,1.2306 -66.05854,1.18134 -36.000077,-0.0276 -65.7828,-0.19469 -66.183822,-0.37143 z m 124.096693,-5.37772 c 0,-0.40517 -38.9537,-42.15673 -39.59034,-42.43389 -0.20106,-0.0876 -4.43408,2.41961 -9.40671,5.57147 -4.9726,3.15189 -9.22282,5.73069 -9.44491,5.73069 -0.22209,0 -4.474007,-2.5788 -9.448747,-5.73069 -4.97472,-3.15186 -9.2538,-5.73069 -9.50906,-5.73069 -0.49709,0 -39.259872,42.11814 -39.259872,42.65828 0,0.17713 26.248412,0.32193 58.329829,0.32193 32.08139,0 58.32981,-0.17424 58.32981,-0.3871 z M 61.588384,194.03342 c 10.185829,-11.00498 18.507639,-20.22024 18.492879,-20.47835 -0.0155,-0.2581 -8.54547,-5.81322 -18.957169,-12.34465 L 42.193712,149.33508 v 32.83482 c 0,18.05917 0.196869,32.61831 0.437476,32.35369 0.240607,-0.26462 8.771341,-9.48518 18.957196,-20.49017 z M 165.85292,182.06378 v -32.7287 l -18.93035,11.87534 c -10.41172,6.53143 -18.94245,12.08503 -18.9572,12.3413 -0.0225,0.3912 37.30941,41.16531 37.74172,41.22175 0.0803,0.01 0.14574,-14.7089 0.14574,-32.70969 z m -36.74778,-15.73106 18.9572,-11.88999 0.15168,-29.67903 0.15167,-29.679005 H 104.60668 60.847842 l 0.151448,29.989955 0.151464,29.98997 21.290369,13.52585 21.290377,13.52583 3.20815,-1.94679 c 1.76447,-1.07074 11.73888,-7.29729 22.16534,-13.83679 z m -55.024457,-18.8228 c -0.63378,-0.69187 -0.44341,-3.08173 0.31108,-3.90536 0.52585,-0.57402 7.98841,-0.7641 29.998207,-0.7641 25.85702,0 29.40588,0.11745 30.21484,1.00059 0.50415,0.55034 0.91662,1.35262 0.91662,1.78288 0,2.24438 -0.89341,2.31047 -31.2259,2.31047 -16.404297,0 -30.000987,-0.19109 -30.214847,-0.42448 z m 0.22108,-17.68766 c -0.38473,-0.50603 -0.61372,-1.58053 -0.50889,-2.3878 l 0.19069,-1.46771 30.162357,-0.16484 c 29.68865,-0.16245 30.1722,-0.14488 30.78949,1.11429 0.44599,0.9097 0.44681,1.64707 0.002,2.5527 -0.61177,1.24783 -1.22132,1.27347 -30.28059,1.27347 -25.147557,0 -29.762717,-0.13982 -30.355857,-0.92006 z m 0.0899,-17.03611 c -0.89589,-0.97797 -0.89589,-2.58778 0,-3.56575 0.52065,-0.56837 6.56728,-0.76409 23.60306,-0.76409 22.306117,0 22.919377,0.0332 23.527447,1.27347 0.44358,0.9048 0.44358,1.64219 0,2.54699 -0.60807,1.24028 -1.22133,1.27348 -23.527447,1.27348 -17.03578,0 -23.08241,-0.19566 -23.60306,-0.7641 z m 55.440007,0.0292 c -1.87379,-2.04545 -0.1649,-4.56237 2.88087,-4.24323 1.78588,0.18723 1.93382,0.37315 1.93382,2.43124 0,2.08719 -0.12963,2.24056 -2.04403,2.41689 -1.12423,0.10348 -2.37103,-0.16871 -2.77066,-0.6049 z m -74.341388,26.5617 -0.172465,-4.10024 -5.695588,4.66219 -5.695589,4.66219 5.695589,3.53036 5.695588,3.53037 0.172465,-4.09231 c 0.0948,-2.25078 0.0948,-5.93744 0,-8.19256 z m 103.217118,8.26864 c 2.64673,-1.6535 4.81224,-3.1117 4.81224,-3.2404 0,-0.24309 -8.48796,-7.34294 -9.77025,-8.17242 -0.56695,-0.36676 -0.72912,1.24449 -0.72912,7.24441 0,4.24385 0.19687,7.59429 0.43745,7.44543 0.24064,-0.14873 2.60299,-1.6235 5.24968,-3.27702 z"
       style="fill:#424242;stroke-width:0.99999994" />
  </g>
</svg>
